<?xml version="1.0" encoding="utf-8"?>
<!-- Generator: Adobe Illustrator 16.0.0, SVG Export Plug-In . SVG Version: 6.00 Build 0)  -->
<!DOCTYPE svg PUBLIC "-//W3C//DTD SVG 1.1//EN" "http://www.w3.org/Graphics/SVG/1.1/DTD/svg11.dtd">
<svg version="1.1" id="Camada_1" xmlns="http://www.w3.org/2000/svg" xmlns:xlink="http://www.w3.org/1999/xlink" x="0px" y="0px"
	 width="99.02px" height="99.021px" viewBox="0 0 99.02 99.021" enable-background="new 0 0 99.02 99.021" xml:space="preserve">
<path fill="#F8C44F" d="M2.456,13.235h94.085v12.518H2.456V13.235z"/>
<path fill="#384663" d="M98.997,28.209H0v-17.43h98.997V28.209z M4.912,23.297h89.173v-7.606H4.912V23.297z"/>
<path fill="#F8C44F" d="M68.159,89.782H4.382V25.753h90.234V88.24"/>
<path fill="#5EB4E7" d="M75.152,31.961h11.846v4.912H75.152V31.961z M81.219,40.482h5.778v4.912h-5.778V40.482z"/>
<path fill="#384663" d="M6.837,84.875H1.926V23.297h95.146v62.181h-4.912V28.209H6.837V84.875z"/>
<path fill="#384663" d="M1.926,84.875h95.145v4.907H1.926V84.875z M34.719,62.758L23.944,51.969L34.719,41.18l3.475,3.472
	l-7.308,7.317l7.308,7.317L34.719,62.758z"/>
<path fill="#384663" d="M29.204,49.511h21.746v4.912H29.204V49.511z"/>
<g>
	<path fill="#384663" d="M64.278,51.972L75.056,62.76L64.278,73.548l-3.476-3.471l7.311-7.317l-7.311-7.317L64.278,51.972z"/>
	<path fill="#384663" d="M48.049,60.306h21.744v4.912H48.049V60.306z"/>
</g>
</svg>
