<?xml version="1.0" encoding="utf-8"?>
<!-- Generator: Adobe Illustrator 16.0.0, SVG Export Plug-In . SVG Version: 6.00 Build 0)  -->
<!DOCTYPE svg PUBLIC "-//W3C//DTD SVG 1.1//EN" "http://www.w3.org/Graphics/SVG/1.1/DTD/svg11.dtd">
<svg version="1.1" id="Camada_1" xmlns="http://www.w3.org/2000/svg" xmlns:xlink="http://www.w3.org/1999/xlink" x="0px" y="0px"
	 width="99.02px" height="99.021px" viewBox="0 0 99.02 99.021" enable-background="new 0 0 99.02 99.021" xml:space="preserve">
<polygon fill="#FFFFFF" points="91.282,91.373 7.725,91.373 1.536,85.182 1.536,82.089 38.673,82.089 41.767,85.182 57.241,85.182 
	60.335,82.089 97.473,82.089 97.473,85.182 "/>
<g>
	<g>
		<defs>
			<rect id="SVGID_1_" x="-0.011" y="4.844" width="99.031" height="88.076"/>
		</defs>
		<clipPath id="SVGID_2_">
			<use xlink:href="#SVGID_1_"  overflow="visible"/>
		</clipPath>
		<path clip-path="url(#SVGID_2_)" fill="#FFFFFF" d="M91.282,83.635V34.12c0-2.564-2.077-4.643-4.641-4.643H12.367
			c-2.564,0-4.642,2.078-4.642,4.643v49.516H91.282z"/>
	</g>
	<g>
		<defs>
			<rect id="SVGID_3_" x="-0.011" y="4.844" width="99.031" height="88.076"/>
		</defs>
		<clipPath id="SVGID_4_">
			<use xlink:href="#SVGID_3_"  overflow="visible"/>
		</clipPath>
		<polygon clip-path="url(#SVGID_4_)" fill="#5EB4E7" points="86.642,77.446 12.367,77.446 12.367,34.12 37.584,51.944 
			49.504,53.462 61.869,50.827 86.642,34.12 		"/>
	</g>
	<g>
		<defs>
			<rect id="SVGID_5_" x="-0.011" y="4.844" width="99.031" height="88.076"/>
		</defs>
		<clipPath id="SVGID_6_">
			<use xlink:href="#SVGID_5_"  overflow="visible"/>
		</clipPath>
		<path clip-path="url(#SVGID_6_)" fill="#282D33" d="M92.83,80.54h-3.095V34.12c0-1.706-1.388-3.095-3.094-3.095H12.367
			c-1.707,0-3.095,1.389-3.095,3.095v46.42H6.177V34.12c0-3.414,2.776-6.189,6.19-6.189h74.274c3.412,0,6.188,2.776,6.188,6.189
			V80.54z"/>
	</g>
	<g>
		<defs>
			<rect id="SVGID_7_" x="-0.011" y="4.844" width="99.031" height="88.076"/>
		</defs>
		<clipPath id="SVGID_8_">
			<use xlink:href="#SVGID_7_"  overflow="visible"/>
		</clipPath>
		<path clip-path="url(#SVGID_8_)" fill="#282D33" d="M91.924,92.92H7.085l-7.096-7.096V80.54h39.325l3.095,3.096H56.6l3.095-3.096
			H99.02v5.284L91.924,92.92z M8.366,89.825h82.275l5.283-5.283v-0.906H60.976l-3.094,3.095H41.126l-3.094-3.095H3.083v0.906
			L8.366,89.825z"/>
	</g>
	<g>
		<defs>
			<rect id="SVGID_9_" x="-0.011" y="4.844" width="99.031" height="88.076"/>
		</defs>
		<clipPath id="SVGID_10_">
			<use xlink:href="#SVGID_9_"  overflow="visible"/>
		</clipPath>
		<path clip-path="url(#SVGID_10_)" fill="#F8C44F" d="M48.812,52.591c12.296,0,22.318-10.017,22.318-22.326
			c0-1.777-0.22-3.532-0.628-5.235l-2.551,3.322c0.072,0.654,0.107,1.294,0.107,1.913c-0.017,5.143-1.999,9.969-5.646,13.603
			c-3.639,3.644-8.467,5.649-13.599,5.649c-5.143,0-9.98-2.005-13.616-5.649c-3.636-3.634-5.635-8.46-5.635-13.603
			c0-5.133,1.999-9.976,5.635-13.612c3.636-3.624,8.46-5.63,13.616-5.63c3.19,0,6.311,0.785,9.085,2.28l1.892-2.457
			c-3.349-1.905-7.129-2.907-10.979-2.907C36.48,7.948,26.481,17.964,26.481,30.265C26.481,42.574,36.502,52.591,48.812,52.591"/>
	</g>
	<g>
		<defs>
			<rect id="SVGID_11_" x="-0.011" y="4.844" width="99.031" height="88.076"/>
		</defs>
		<clipPath id="SVGID_12_">
			<use xlink:href="#SVGID_11_"  overflow="visible"/>
		</clipPath>
		<path clip-path="url(#SVGID_12_)" fill="#F8C44F" d="M41.717,26.743c-0.518-0.639-1.273-0.993-2.08-0.993
			c-0.62,0-1.213,0.206-1.694,0.602c-1.141,0.927-1.319,2.615-0.381,3.759l9.184,10.49c0.509,0.619,1.259,0.988,2.078,0.988h0.043
			c0.816-0.01,1.591-0.398,2.076-1.055l19.949-26.229c0.887-1.162,0.673-2.85-0.499-3.75c-0.479-0.359-1.03-0.545-1.631-0.545
			c-0.846,0-1.614,0.377-2.135,1.048L48.763,34.59L41.717,26.743z"/>
	</g>
	<g>
		<defs>
			<rect id="SVGID_13_" x="-0.011" y="4.844" width="99.031" height="88.076"/>
		</defs>
		<clipPath id="SVGID_14_">
			<use xlink:href="#SVGID_13_"  overflow="visible"/>
		</clipPath>
		<path clip-path="url(#SVGID_14_)" fill="#F8C44F" d="M28.811,57.115l-0.776,2.536l7.91,0.093l3.048,3.132l2.799,2.879
			l3.909-10.874c-4.028-0.526-10.368-3.686-13.082-6.406L28.811,57.115z"/>
	</g>
	<g>
		<defs>
			<rect id="SVGID_15_" x="-0.011" y="4.844" width="99.031" height="88.076"/>
		</defs>
		<clipPath id="SVGID_16_">
			<use xlink:href="#SVGID_15_"  overflow="visible"/>
		</clipPath>
		<path clip-path="url(#SVGID_16_)" fill="#F8C44F" d="M69.587,56.931l0.776,2.537l-7.911,0.094l-3.048,3.131l-2.799,2.878
			l-3.907-10.874c4.027-0.524,10.367-3.685,13.08-6.406L69.587,56.931z"/>
	</g>
	<g>
		<defs>
			<rect id="SVGID_17_" x="-0.011" y="4.844" width="99.031" height="88.076"/>
		</defs>
		<clipPath id="SVGID_18_">
			<use xlink:href="#SVGID_17_"  overflow="visible"/>
		</clipPath>
		<rect x="31.471" y="26.739" clip-path="url(#SVGID_18_)" fill="#FFFFFF" width="5.489" height="4.921"/>
	</g>
	<g>
		<defs>
			<rect id="SVGID_19_" x="-0.011" y="4.844" width="99.031" height="88.076"/>
		</defs>
		<clipPath id="SVGID_20_">
			<use xlink:href="#SVGID_19_"  overflow="visible"/>
		</clipPath>
		<rect x="44.946" y="26.739" clip-path="url(#SVGID_20_)" fill="#FFFFFF" width="7.75" height="4.921"/>
	</g>
	<g>
		<defs>
			<rect id="SVGID_21_" x="-0.011" y="4.844" width="99.031" height="88.076"/>
		</defs>
		<clipPath id="SVGID_22_">
			<use xlink:href="#SVGID_21_"  overflow="visible"/>
		</clipPath>
		<rect x="59.901" y="27.35" clip-path="url(#SVGID_22_)" fill="#FFFFFF" width="7.353" height="4.31"/>
	</g>
	<g>
		<defs>
			<rect id="SVGID_23_" x="-0.011" y="4.844" width="99.031" height="88.076"/>
		</defs>
		<clipPath id="SVGID_24_">
			<use xlink:href="#SVGID_23_"  overflow="visible"/>
		</clipPath>
		<path clip-path="url(#SVGID_24_)" fill="#282D33" d="M48.812,7.939c3.85,0,7.63,1.002,10.977,2.909l-1.891,2.457
			c-2.774-1.497-5.897-2.28-9.086-2.28c-5.153,0-9.979,2.005-13.615,5.63c-3.636,3.637-5.636,8.478-5.636,13.61
			c0,5.143,2,9.969,5.636,13.606c3.637,3.64,8.471,5.645,13.615,5.645c5.133,0,9.962-2.005,13.6-5.645
			c3.646-3.638,5.63-8.464,5.646-13.606c0-0.619-0.035-1.257-0.108-1.913l2.549-3.322c0.412,1.703,0.63,3.458,0.63,5.235
			c0,12.312-10.021,22.326-22.317,22.326c-12.31,0-22.331-10.014-22.331-22.326C26.481,17.964,36.48,7.948,48.812,7.939
			 M48.812,4.844L48.812,4.844c-14.02,0.011-25.426,11.415-25.426,25.421c0,14.017,11.406,25.419,25.426,25.419
			c14.013,0,25.414-11.405,25.414-25.419c0-1.982-0.241-3.987-0.716-5.958c-0.279-1.161-1.2-2.057-2.367-2.306
			c-0.211-0.044-0.427-0.066-0.641-0.066c-0.95,0-1.863,0.438-2.457,1.21l-2.549,3.325c-0.488,0.634-0.711,1.432-0.622,2.228
			c0.061,0.533,0.091,1.06,0.091,1.567c-0.015,4.325-1.695,8.381-4.737,11.415c-3.057,3.059-7.108,4.741-11.413,4.741
			c-4.315,0-8.374-1.682-11.426-4.739c-3.049-3.052-4.731-7.106-4.731-11.417c0-4.314,1.682-8.372,4.729-11.422
			c3.056-3.045,7.116-4.724,11.428-4.724c2.666,0,5.298,0.659,7.617,1.909c0.462,0.251,0.967,0.371,1.465,0.371
			c0.935,0,1.851-0.424,2.458-1.208l1.886-2.456c0.546-0.71,0.758-1.62,0.582-2.499c-0.177-0.878-0.726-1.634-1.501-2.078
			C57.517,5.991,53.19,4.844,48.812,4.844"/>
	</g>
	<g>
		<defs>
			<rect id="SVGID_25_" x="-0.011" y="4.844" width="99.031" height="88.076"/>
		</defs>
		<clipPath id="SVGID_26_">
			<use xlink:href="#SVGID_25_"  overflow="visible"/>
		</clipPath>
		
			<path clip-path="url(#SVGID_26_)" fill="none" stroke="#282D33" stroke-width="2" stroke-linecap="round" stroke-linejoin="round" stroke-miterlimit="10" d="
			M42.105,26.245c-0.56-0.692-1.377-1.074-2.25-1.074c-0.669,0-1.31,0.223-1.83,0.651c-1.235,1.002-1.426,2.828-0.414,4.064
			l8.917,10.99c0.55,0.669,1.363,1.068,2.249,1.068h0.045c0.884-0.01,1.721-0.428,2.246-1.14l20.032-26.151
			c0.958-1.256,0.728-3.082-0.539-4.055c-0.52-0.389-1.116-0.59-1.767-0.59c-0.912,0-1.745,0.407-2.308,1.134L48.712,34.375
			L42.105,26.245z"/>
	</g>
	<g>
		<defs>
			<rect id="SVGID_27_" x="-0.011" y="4.844" width="99.031" height="88.076"/>
		</defs>
		<clipPath id="SVGID_28_">
			<use xlink:href="#SVGID_27_"  overflow="visible"/>
		</clipPath>
		
			<path clip-path="url(#SVGID_28_)" fill="none" stroke="#282D33" stroke-width="2" stroke-linecap="round" stroke-linejoin="round" stroke-miterlimit="10" d="
			M51.97,54.437l4.481,11.404l0.201-0.087l5.862-6.011l8.365,0.412l0.21-0.081l-4.985-12.664
			C62.378,51.169,57.461,53.728,51.97,54.437z"/>
	</g>
	<g>
		<defs>
			<rect id="SVGID_29_" x="-0.011" y="4.844" width="99.031" height="88.076"/>
		</defs>
		<clipPath id="SVGID_30_">
			<use xlink:href="#SVGID_29_"  overflow="visible"/>
		</clipPath>
		
			<path clip-path="url(#SVGID_30_)" fill="none" stroke="#282D33" stroke-width="2" stroke-linecap="round" stroke-linejoin="round" stroke-miterlimit="10" d="
			M27.372,60.075l0.202,0.081l8.372-0.412l5.845,6.011l0.212,0.087l4.452-11.303c-5.515-0.541-10.509-2.926-14.332-6.519
			L27.372,60.075z"/>
	</g>
</g>
</svg>
