<?xml version="1.0" encoding="utf-8"?>
<!-- Generator: Adobe Illustrator 16.0.0, SVG Export Plug-In . SVG Version: 6.00 Build 0)  -->
<!DOCTYPE svg PUBLIC "-//W3C//DTD SVG 1.1//EN" "http://www.w3.org/Graphics/SVG/1.1/DTD/svg11.dtd">
<svg version="1.1" id="Camada_1" xmlns="http://www.w3.org/2000/svg" xmlns:xlink="http://www.w3.org/1999/xlink" x="0px" y="0px"
	 width="99.02px" height="99.021px" viewBox="0 0 99.02 99.021" enable-background="new 0 0 99.02 99.021" xml:space="preserve">
<rect x="16.844" y="8.678" fill="#FFFFFF" width="63.333" height="88"/>
<path fill="#384663" d="M82.699,98.626H14V6.137h68.699V98.626l-3.835-1.877V9.972H17.835v84.819h61.368L82.699,98.626z"/>
<rect x="21.781" y="29.51" fill="#384663" width="21.629" height="3.835"/>
<rect x="21.781" y="85.756" fill="#384663" width="8.687" height="3.835"/>
<rect x="21.781" y="61.227" fill="#384663" width="50.152" height="3.835"/>
<rect x="21.781" y="54.119" fill="#384663" width="50.152" height="3.834"/>
<rect x="21.781" y="47.014" fill="#384663" width="50.152" height="3.835"/>
<rect x="21.781" y="39.025" fill="#384663" width="31.457" height="3.835"/>
<polygon fill="#394663" points="65.067,28.531 60.833,37.727 66.106,38.286 69.302,41.323 72.179,30.456 "/>
<polygon fill="#394663" points="72.947,30.848 74.945,40.755 78.62,37.719 83.972,36.92 78.459,29.889 "/>
<g>
	<g>
		<defs>
			<rect id="SVGID_1_" x="53.425" y="0.656" width="38.03" height="43.163"/>
		</defs>
		<clipPath id="SVGID_2_">
			<use xlink:href="#SVGID_1_"  overflow="visible"/>
		</clipPath>
		<path clip-path="url(#SVGID_2_)" fill="#00A7C0" d="M69.714,33.885c0.093,0,0.184,0.008,0.275,0.021
			c0.706,0.107,1.236,0.64,1.703,1.109c0.22,0.219,0.58,0.58,0.745,0.63c0.167-0.049,0.526-0.41,0.744-0.63
			c0.469-0.47,0.998-1.002,1.707-1.109c0.091-0.013,0.183-0.02,0.277-0.02c0.621,0,1.216,0.307,1.736,0.576
			c0.288,0.147,0.718,0.371,0.894,0.371c0.104-0.069,0.339-0.535,0.478-0.812c0.296-0.589,0.629-1.255,1.272-1.572
			c0.276-0.136,0.591-0.201,0.966-0.201c0.376,0,0.753,0.064,1.118,0.128c0.291,0.049,0.589,0.101,0.807,0.101
			c0.127,0,0.174-0.017,0.174-0.017c0.073-0.096,0.144-0.603,0.187-0.907c0.093-0.65,0.198-1.387,0.712-1.882
			c0.514-0.496,1.278-0.597,1.953-0.686c0.314-0.042,0.841-0.111,0.964-0.212c0.036-0.113-0.056-0.614-0.109-0.914
			c-0.12-0.648-0.255-1.382,0.076-2.008c0.328-0.62,1.02-0.943,1.63-1.229c0.289-0.134,0.771-0.359,0.854-0.493
			c0-0.117-0.248-0.561-0.397-0.828c-0.322-0.582-0.688-1.244-0.574-1.942c0.11-0.683,0.662-1.195,1.15-1.645
			c0.231-0.217,0.622-0.578,0.658-0.732c-0.034-0.125-0.425-0.488-0.657-0.704c-0.489-0.452-1.041-0.963-1.151-1.647
			c-0.113-0.699,0.252-1.358,0.576-1.941c0.147-0.266,0.396-0.711,0.384-0.864c-0.071-0.098-0.552-0.321-0.841-0.457
			c-0.612-0.285-1.303-0.607-1.63-1.227c-0.331-0.626-0.195-1.361-0.076-2.009c0.053-0.299,0.146-0.801,0.087-0.943
			c-0.1-0.072-0.627-0.141-0.941-0.182c-0.674-0.089-1.438-0.192-1.952-0.687c-0.514-0.496-0.62-1.232-0.713-1.883
			c-0.04-0.295-0.109-0.785-0.211-0.918c-0.009,0.003-0.058-0.004-0.149-0.004c-0.218,0-0.503,0.048-0.807,0.1
			c-0.365,0.063-0.743,0.128-1.118,0.128c-0.374,0-0.689-0.066-0.966-0.203c-0.643-0.316-0.976-0.982-1.272-1.571
			c-0.14-0.278-0.374-0.743-0.511-0.822c-0.144,0.011-0.572,0.234-0.859,0.38c-0.546,0.283-1.115,0.575-1.738,0.575
			c-0.094,0-0.185-0.006-0.272-0.019c-0.712-0.109-1.241-0.641-1.708-1.109c-0.225-0.226-0.601-0.602-0.76-0.635
			c-0.131,0.033-0.507,0.409-0.733,0.636c-0.465,0.468-0.998,1-1.703,1.108c-0.703,0.105-1.415-0.245-2.017-0.556
			c-0.284-0.146-0.718-0.37-0.894-0.37c-0.101,0.069-0.335,0.534-0.475,0.812c-0.297,0.589-0.631,1.256-1.274,1.572
			c-0.273,0.135-0.591,0.202-0.965,0.202c-0.375,0-0.752-0.064-1.117-0.127c-0.29-0.05-0.59-0.101-0.809-0.101
			c-0.126,0-0.171,0.017-0.171,0.017c-0.072,0.095-0.146,0.604-0.188,0.907c-0.095,0.65-0.198,1.387-0.711,1.882
			c-0.515,0.496-1.279,0.599-1.955,0.688c-0.315,0.041-0.841,0.111-0.963,0.212c-0.039,0.112,0.054,0.615,0.108,0.914
			c0.12,0.648,0.256,1.383-0.075,2.008c-0.329,0.622-1.021,0.944-1.631,1.229c-0.288,0.135-0.77,0.359-0.854,0.494
			c0.002,0.118,0.247,0.562,0.396,0.828c0.322,0.581,0.689,1.241,0.575,1.939c-0.111,0.685-0.663,1.195-1.149,1.646
			c-0.233,0.216-0.624,0.579-0.657,0.732c0.031,0.127,0.424,0.489,0.657,0.705c0.485,0.451,1.038,0.961,1.149,1.644
			c0.112,0.7-0.253,1.36-0.577,1.943c-0.147,0.266-0.395,0.71-0.386,0.864c0.073,0.098,0.555,0.323,0.843,0.458
			c0.61,0.284,1.302,0.606,1.631,1.225c0.333,0.628,0.197,1.362,0.077,2.011c-0.056,0.299-0.147,0.8-0.088,0.943
			c0.1,0.07,0.626,0.141,0.941,0.183c0.675,0.089,1.438,0.19,1.953,0.685c0.514,0.496,0.619,1.233,0.712,1.883
			c0.041,0.295,0.11,0.784,0.213,0.918c0.007-0.003,0.056,0.005,0.145,0.005c0.22,0,0.519-0.051,0.81-0.101
			c0.365-0.063,0.743-0.128,1.117-0.128c0.377,0,0.691,0.066,0.967,0.201c0.643,0.317,0.977,0.984,1.272,1.573
			c0.141,0.278,0.374,0.742,0.51,0.821c0.141-0.01,0.574-0.233,0.859-0.38C68.524,34.177,69.092,33.885,69.714,33.885"/>
	</g>
</g>
<circle fill="#394663" cx="72.482" cy="18.903" r="10.985"/>
<polygon fill="#FFFFFF" points="72.483,10.223 75.167,15.662 81.168,16.534 76.826,20.768 77.851,26.746 72.483,23.924 
	67.114,26.746 68.139,20.768 63.795,16.534 69.799,15.662 "/>
<polygon fill="#394663" points="72.483,12.799 74.33,16.542 78.459,17.142 75.472,20.056 76.176,24.17 72.483,22.227 68.787,24.17 
	69.494,20.056 66.505,17.142 70.636,16.542 "/>
</svg>
