<?xml version="1.0" encoding="utf-8"?>
<!-- Generator: Adobe Illustrator 16.0.0, SVG Export Plug-In . SVG Version: 6.00 Build 0)  -->
<!DOCTYPE svg PUBLIC "-//W3C//DTD SVG 1.1//EN" "http://www.w3.org/Graphics/SVG/1.1/DTD/svg11.dtd">
<svg version="1.1" id="Camada_1" xmlns="http://www.w3.org/2000/svg" xmlns:xlink="http://www.w3.org/1999/xlink" x="0px" y="0px"
	 width="99.02px" height="99.021px" viewBox="0 0 99.02 99.021" enable-background="new 0 0 99.02 99.021" xml:space="preserve">
<path fill="#384663" d="M89.685,72.212H17.653C7.92,72.212,0,64.293,0,54.557c0-8.394,5.875-15.528,13.924-17.252
	c0.785-14.556,12.876-26.156,27.629-26.156c13.037,0,24.3,9.223,27.031,21.775c1.051-0.177,2.106-0.266,3.149-0.266
	c10.744,0,19.483,8.741,19.483,19.487c0,0.121-0.001,0.244-0.004,0.367c4.419,1.045,7.644,4.979,7.644,9.707
	c0,5.231-4.039,9.536-9.161,9.958L89.685,72.212z M88.309,68.262l0.559,0.004c3.332,0,6.043-2.713,6.043-6.047
	c0-3.283-2.571-5.932-5.856-6.03l-2.149-0.063l0.248-2.133c0.079-0.687,0.117-1.291,0.117-1.848c0-8.568-6.969-15.54-15.537-15.54
	c-1.386,0-2.8,0.199-4.2,0.591l-2.181,0.611l-0.307-2.243c-1.6-11.671-11.698-20.47-23.492-20.47
	c-13.082,0-23.724,10.641-23.724,23.719l0.004,1.933l-1.75,0.2C9.164,41.733,3.946,47.587,3.946,54.557
	c0,7.559,6.149,13.709,13.707,13.709h70.49C88.197,68.264,88.251,68.262,88.309,68.262"/>
<path fill="#384663" d="M21.78,39.927l-0.004-0.174c-0.001-11.984,9.756-21.699,21.75-21.699V22c-9.818,0-17.806,7.944-17.806,17.71
	l0.003,0.129L21.78,39.927z"/>
<path fill="#384663" d="M10.852,55.544H6.906c0-5.967,4.465-10.977,10.387-11.653l0.447,3.922
	C13.813,48.26,10.852,51.584,10.852,55.544"/>
<path fill="#384663" d="M50.871,80.983H48.32c-6.373,0-10.177-3.068-10.177-8.205V55.432c0-5.613,4.565-10.182,10.177-10.182h2.552
	c5.612,0,10.176,4.566,10.176,10.182v17.346C61.048,77.915,57.243,80.983,50.871,80.983 M48.32,49.197
	c-3.436,0-6.231,2.796-6.231,6.234v17.346c0,2.827,2.096,4.261,6.231,4.261h2.552c4.134,0,6.229-1.434,6.229-4.261V55.432
	c0-3.438-2.795-6.236-6.229-6.236H48.32L48.32,49.197z"/>
<rect x="35.044" y="58.922" fill="#F8C44F" width="29.103" height="23.337"/>
<path fill="#384663" d="M62.174,80.285H37.017V60.894h25.157V80.285z M66.12,56.948h-3.946H37.017h-3.946v3.946v19.391v3.946h3.946
	h25.157h3.946v-3.946V60.894V56.948z"/>
<path fill="#384663" d="M49.597,65.002c-1.281,0-2.323,1.039-2.323,2.322c0,0.846,0.455,1.582,1.132,1.988l-0.526,5.717h1.717h1.712
	l-0.524-5.717c0.678-0.406,1.132-1.143,1.132-1.988C51.917,66.041,50.875,65.002,49.597,65.002"/>
</svg>
