<?xml version="1.0" encoding="utf-8"?>
<!-- Generator: Adobe Illustrator 16.0.0, SVG Export Plug-In . SVG Version: 6.00 Build 0)  -->
<!DOCTYPE svg PUBLIC "-//W3C//DTD SVG 1.1//EN" "http://www.w3.org/Graphics/SVG/1.1/DTD/svg11.dtd">
<svg version="1.1" id="Camada_1" xmlns="http://www.w3.org/2000/svg" xmlns:xlink="http://www.w3.org/1999/xlink" x="0px" y="0px"
	 width="99.02px" height="99.021px" viewBox="0 0 99.02 99.021" enable-background="new 0 0 99.02 99.021" xml:space="preserve">
<g>
	<defs>
		<rect id="SVGID_1_" x="4.486" y="8.774" width="91.548" height="82.236"/>
	</defs>
	<clipPath id="SVGID_2_">
		<use xlink:href="#SVGID_1_"  overflow="visible"/>
	</clipPath>
	<path clip-path="url(#SVGID_2_)" fill="#FFFFFF" d="M16.263,83.129V40.011c0-1.282,1.043-2.323,2.322-2.323h63.348
		c1.282,0,2.322,1.041,2.322,2.323v43.117"/>
	<path clip-path="url(#SVGID_2_)" fill="#3F4861" d="M85.903,83.129h-3.295V40.011c0-0.372-0.304-0.675-0.676-0.675H18.585
		c-0.372,0-0.674,0.303-0.674,0.675v43.117h-3.296V40.011c0-2.189,1.781-3.971,3.97-3.971h63.347c2.19,0,3.971,1.782,3.971,3.971
		V83.129z"/>
	<rect x="21.207" y="42.633" clip-path="url(#SVGID_2_)" fill="#7DB1E3" width="58.105" height="35.485"/>
	<path clip-path="url(#SVGID_2_)" fill="#FFFFFF" d="M6.134,82.914v4.171c0,0,3.049,2.278,5.291,2.278h28.077h21.514h28.077
		c2.241,0,5.293-2.278,5.293-2.278v-4.171H6.134z"/>
	<path clip-path="url(#SVGID_2_)" fill="#3F4861" d="M89.093,91.01H11.425c-2.71,0-5.921-2.34-6.277-2.605L4.486,87.91v-6.644
		h91.548v6.645l-0.662,0.494C95.015,88.672,91.803,91.01,89.093,91.01 M7.782,86.219c1.09,0.702,2.646,1.495,3.643,1.495h77.668
		c1.021,0,2.61-0.836,3.646-1.497v-1.656H7.782V86.219z"/>
	<path clip-path="url(#SVGID_2_)" fill="#E9C259" d="M41.569,67.554h18.185V29.996c-0.818-1.215-6.117-1.172-6.851,0.099
		L37.175,45.411c-0.732,1.269-0.23,2.158,0.156,4.498L41.569,67.554z"/>
	<path clip-path="url(#SVGID_2_)" fill="#FFFFFF" d="M64.68,10.047c1.143,0,2.076,0.935,2.076,2.076v36.268
		c0,1.143-0.934,2.077-2.076,2.077H43.57c-1.143,0-2.076-0.934-2.076-2.077V12.123c0-1.142,0.934-2.076,2.076-2.076H64.68z"/>
	<path clip-path="url(#SVGID_2_)" fill="#3F4861" d="M64.68,51.741H43.57c-1.847,0-3.35-1.503-3.35-3.349V12.123
		c0-1.846,1.503-3.349,3.35-3.349h21.11c1.848,0,3.351,1.502,3.351,3.349v36.269C68.031,50.238,66.528,51.741,64.68,51.741
		 M43.57,11.32c-0.443,0-0.803,0.36-0.803,0.803v36.269c0,0.443,0.36,0.803,0.803,0.803h21.11c0.443,0,0.805-0.36,0.805-0.803
		V12.123c0-0.435-0.368-0.803-0.805-0.803H43.57z"/>
	<line clip-path="url(#SVGID_2_)" fill="#3F4861" x1="55.58" y1="47.319" x2="55.58" y2="40.067"/>
	<rect x="54.307" y="40.067" clip-path="url(#SVGID_2_)" fill="#3F4861" width="2.546" height="7.252"/>
	<line clip-path="url(#SVGID_2_)" fill="#3F4861" x1="60.795" y1="47.319" x2="60.795" y2="34.464"/>
	<rect x="59.523" y="34.464" clip-path="url(#SVGID_2_)" fill="#3F4861" width="2.546" height="12.855"/>
	<line clip-path="url(#SVGID_2_)" fill="#3F4861" x1="55.58" y1="38.239" x2="55.58" y2="30.986"/>
	<rect x="54.307" y="30.986" clip-path="url(#SVGID_2_)" fill="#3F4861" width="2.546" height="7.253"/>
	<line clip-path="url(#SVGID_2_)" fill="#3F4861" x1="55.58" y1="29.158" x2="55.58" y2="21.906"/>
	<rect x="54.307" y="21.906" clip-path="url(#SVGID_2_)" fill="#3F4861" width="2.546" height="7.252"/>
	<line clip-path="url(#SVGID_2_)" fill="#3F4861" x1="55.58" y1="20.078" x2="55.58" y2="12.826"/>
	<rect x="54.307" y="12.826" clip-path="url(#SVGID_2_)" fill="#3F4861" width="2.546" height="7.252"/>
	<path clip-path="url(#SVGID_2_)" fill="#E9C259" d="M50.854,16.804c0,1.758-1.425,3.182-3.183,3.182
		c-1.757,0-3.182-1.424-3.182-3.182c0-1.758,1.425-3.183,3.182-3.183C49.428,13.622,50.854,15.047,50.854,16.804"/>
	<path clip-path="url(#SVGID_2_)" fill="#7DB1E3" d="M50.854,21.048c0,1.758-1.425,3.182-3.183,3.182
		c-1.757,0-3.182-1.424-3.182-3.182c0-1.757,1.425-3.183,3.182-3.183C49.428,17.865,50.854,19.291,50.854,21.048"/>
	<path clip-path="url(#SVGID_2_)" fill="#E9C259" d="M55.126,65.435c0.112-1.017,0.171-2.069,0.171-3.147
		c0-5.189-1.113-9.185-3.203-12.023v-14.02c0-1.656-1.341-2.998-2.996-2.998h-1.2c-1.656,0-2.998,1.342-2.998,2.998v17.583"/>
	<path clip-path="url(#SVGID_2_)" fill="#3F4861" d="M56.392,65.575l-2.531-0.278c0.108-0.985,0.164-1.997,0.164-3.009
		c0-4.813-0.995-8.605-2.955-11.27l-0.249-0.336V36.244c0-0.95-0.772-1.724-1.722-1.724h-1.2c-0.951,0-1.724,0.774-1.724,1.724
		v17.583h-2.546V36.244c0-2.354,1.916-4.27,4.27-4.27h1.2c2.354,0,4.269,1.915,4.269,4.27v13.613
		c2.126,3.08,3.202,7.26,3.202,12.431C56.57,63.392,56.51,64.499,56.392,65.575"/>
	<polyline clip-path="url(#SVGID_2_)" fill="#3F4861" points="36.721,75.976 36.721,69.145 64.099,69.145 64.099,75.976 	"/>
</g>
</svg>
