<svg xmlns="http://www.w3.org/2000/svg" width="102.5" height="81.53" viewBox="0 0 102.5 81.53"><path fill="#FFF" d="M94.805 59.335l-88.25-.019A4.556 4.556 0 0 0 2 63.872V6.555A4.555 4.555 0 0 1 6.555 2h88.25a4.557 4.557 0 0 1 4.557 4.555v48.228a4.557 4.557 0 0 1-4.557 4.552z"/><path fill="#384663" d="M4 63.872H0V6.555A6.562 6.562 0 0 1 6.555 0h88.25a6.563 6.563 0 0 1 6.557 6.555v48.227c0 3.614-2.941 6.554-6.557 6.554l-88.25-.019A2.557 2.557 0 0 0 4 63.872zM6.555 4A2.558 2.558 0 0 0 4 6.555v51.28a6.516 6.516 0 0 1 2.555-.519l88.251.019a2.558 2.558 0 0 0 2.556-2.554V6.555A2.56 2.56 0 0 0 94.805 4H6.555z"/><path fill="#5EB4E7" d="M9.592 7.694h77.434v15.563H9.592z"/><path fill="#FFF" d="M94.805 16.785l-88.25.019A4.555 4.555 0 0 1 2 12.249v57.317a4.555 4.555 0 0 0 4.555 4.555h88.25a4.556 4.556 0 0 0 4.557-4.555V21.339a4.557 4.557 0 0 0-4.557-4.554z"/><path fill="#384663" d="M94.805 76.12H6.555A6.562 6.562 0 0 1 0 69.565V12.249h4a2.558 2.558 0 0 0 2.555 2.555l88.25-.019c3.615 0 6.557 2.94 6.557 6.554v48.226a6.564 6.564 0 0 1-6.557 6.555zM4 18.285v51.28a2.558 2.558 0 0 0 2.555 2.555h88.25a2.559 2.559 0 0 0 2.557-2.555V21.339a2.557 2.557 0 0 0-2.557-2.554l-88.249.019A6.52 6.52 0 0 1 4 18.285z"/><path fill="#384663" d="M89.627 63.01h4v4h-4zm-4.076 4h-4.078v-4h4.078v4zm-8.155 0h-4.078v-4h4.078v4zm-8.154 0h-4.077v-4h4.077v4zm-8.154 0h-4.077v-4h4.077v4zm-8.154 0h-4.077v-4h4.077v4zm-8.155 0h-4.077v-4h4.077v4zm-8.154 0h-4.077v-4h4.077v4zm-8.154 0h-4.076v-4h4.076v4zm-8.155 0H16.24v-4h4.076v4zm-12.154-4h4v4h-4zm4-3.92h-4v-3.921h4v3.921zm0-7.841h-4v-3.921h4v3.921zm0-7.842h-4v-3.921h4v3.921zm0-7.841h-4v-3.921h4v3.921zm-4-11.842h4v4h-4zm77.389 4h-4.078v-4h4.078v4zm-8.155 0h-4.077v-4h4.077v4zm-8.154 0h-4.077v-4h4.077v4zm-8.154 0h-4.077v-4h4.077v4zm-8.154 0h-4.077v-4h4.077v4zm-8.155 0h-4.077v-4h4.077v4zm-8.154 0h-4.076v-4h4.076v4zm-8.154 0h-4.076v-4h4.076v4zm-8.155 0H16.24v-4h4.076v4zm69.311-4h4v4h-4zm4 35.365h-4v-3.921h4v3.921zm0-7.841h-4v-3.921h4v3.921zm0-7.841h-4v-3.921h4v3.921zm0-7.842h-4v-3.921h4v3.921z"/><path fill="#FFF" d="M83.705 38.535H100.5V51.63H83.705z"/><path fill="#384663" d="M102.5 53.63H81.705V36.535H102.5V53.63zm-16.795-4H98.5v-9.095H85.705v9.095z"/><path d="M88.543 45.083h4.27m-4.27-2h4.27v4h-4.27z" fill="#384663"/><path fill="#F8C44F" d="M46.672 65.945c0 8.604-6.979 15.585-15.588 15.585-8.607 0-15.584-6.98-15.584-15.585s6.977-15.584 15.584-15.584c8.609 0 15.588 6.98 15.588 15.584z"/><path fill="#384663" d="M23.527 63.946h15.115v4H23.527z"/></svg>