<?xml version="1.0" encoding="utf-8"?>
<!-- Generator: Adobe Illustrator 16.0.0, SVG Export Plug-In . SVG Version: 6.00 Build 0)  -->
<!DOCTYPE svg PUBLIC "-//W3C//DTD SVG 1.1//EN" "http://www.w3.org/Graphics/SVG/1.1/DTD/svg11.dtd">
<svg version="1.1" xmlns="http://www.w3.org/2000/svg" xmlns:xlink="http://www.w3.org/1999/xlink" x="0px" y="0px"
	 width="98.252px" height="99.589px" viewBox="0 0 98.252 99.589" enable-background="new 0 0 98.252 99.589" xml:space="preserve">
<g id="Camada_3">
	<polyline fill="#017F2B" points="0,32.354 1.15,38.092 4.9,42.708 8.65,41.336 9.275,45.079 14.4,45.079 22.077,41.063 
		22.077,46.217 34.559,50.582 35.275,55.434 41.006,56.184 46.275,60.923 39.4,60.354 41.025,70.03 45.4,70.778 47.025,74.521 
		49.922,74.521 52.275,80.135 43.15,84.377 42.575,89.242 51.15,96.354 62.525,81.632 62.9,76.729 79.9,70.404 85.15,61.547 
		85.15,44.979 	"/>
</g>
<g id="Camada_4">
	<polygon fill="#009B3B" points="43.15,84.479 51.4,91.479 62.9,77.979 62.9,72.479 80.15,65.479 85.15,55.479 43.15,8.479 
		37.4,8.916 33.4,1.01 22.994,3.916 25.307,8.291 18.9,11.697 16.338,8.822 9.932,9.541 9.932,23.479 3.15,25.854 0,32.354 
		5.15,38.104 8.775,36.979 9.4,40.104 14.15,40.479 21.4,36.229 22.15,41.604 33.9,46.244 34.65,51.229 39.4,51.604 41.525,57.729 
		39.4,60.354 40.9,65.479 45.025,65.979 46.275,69.604 49.126,70.104 50.275,76.604 	"/>
</g>
<g id="Camada_6">
	<rect x="42.562" fill="#384663" width="55.677" height="55.604"/>
	<rect x="46.262" y="3.229" fill="#FFFFFF" width="48.25" height="49.25"/>
	<rect x="49.112" y="8.479" fill="#5EB4E7" width="27.899" height="10"/>
	<rect x="80.762" y="8.479" fill="#5EB4E7" width="10.25" height="10"/>
	<rect x="49.112" y="23.104" fill="#384663" width="27.899" height="3.625"/>
	<rect x="80.762" y="23.104" fill="#384663" width="10.25" height="3.625"/>
	<rect x="49.112" y="30.541" fill="#384663" width="27.899" height="3.625"/>
	<rect x="49.112" y="37.229" fill="#384663" width="27.899" height="3.625"/>
	<rect x="49.112" y="43.854" fill="#384663" width="27.899" height="3.625"/>
	<rect x="80.762" y="30.541" fill="#384663" width="6.625" height="3.625"/>
</g>
</svg>
