<?xml version="1.0" encoding="utf-8"?>
<!-- Generator: Adobe Illustrator 16.0.0, SVG Export Plug-In . SVG Version: 6.00 Build 0)  -->
<!DOCTYPE svg PUBLIC "-//W3C//DTD SVG 1.1//EN" "http://www.w3.org/Graphics/SVG/1.1/DTD/svg11.dtd">
<svg version="1.1" id="Camada_1" xmlns="http://www.w3.org/2000/svg" xmlns:xlink="http://www.w3.org/1999/xlink" x="0px" y="0px"
	 width="99.02px" height="99.021px" viewBox="0 0 99.02 99.021" enable-background="new 0 0 99.02 99.021" xml:space="preserve">
<g>
	<path fill="#FFFFFF" d="M32.37,81.627V50.374c0.001-0.928,0.79-1.681,1.765-1.683h48.16c0.974,0.001,1.764,0.754,1.764,1.683
		v31.253"/>
	<path fill="#384663" d="M85.313,81.627h-2.506V50.374c0-0.27-0.23-0.488-0.514-0.488H34.135c-0.282,0.001-0.512,0.218-0.512,0.488
		v31.253h-2.505V50.374c0.001-1.587,1.352-2.875,3.017-2.876h48.159c1.666,0.002,3.015,1.289,3.018,2.876L85.313,81.627
		L85.313,81.627z"/>
	<path fill="#5EB4E7" d="M36.129,52.275h44.173v25.721H36.129V52.275z"/>
	<path fill="#FFFFFF" d="M24.669,81.47v3.024c0,0,2.318,1.652,4.022,1.652h59.044c1.704,0,4.024-1.652,4.024-1.652v-3.023
		L24.669,81.47L24.669,81.47z"/>
	<path fill="#384663" d="M87.736,87.339H28.692c-2.06,0-4.501-1.694-4.772-1.889l-0.503-0.357v-4.816h69.597v4.816l-0.505,0.358
		C92.238,85.645,89.797,87.339,87.736,87.339z M25.922,83.867c0.829,0.509,2.012,1.083,2.77,1.083h59.044
		c0.777,0,1.985-0.606,2.771-1.084v-1.2H25.922V83.867z"/>
</g>
<g>
	<path fill="#FFFFFF" d="M56.645,71.827V32.475c-0.001-1.169-0.994-2.118-2.223-2.12H39.713"/>
	<path fill="#282D33" d="M55.068,71.827h3.155V32.475c-0.003-2-1.702-3.622-3.801-3.624H39.713v3.008h14.709
		c0.355,0.001,0.645,0.277,0.645,0.616L55.068,71.827L55.068,71.827z"/>
	<g>
		<path fill="#F8C44F" d="M62.386,16.634v-5.24c0-2.659,2.26-4.815,5.049-4.815c0.002,0,0.003,0,0.003,0
			c2.792,0,5.052,2.155,5.052,4.814c0,0,0,0.001,0,0.001v5.24H62.386z"/>
		<path fill="#F8C44F" d="M74.068,18.138h-13.26v-6.744c0-3.484,2.975-6.319,6.63-6.319c3.656,0,6.63,2.835,6.63,6.319V18.138z
			 M63.963,15.13h6.95v-3.736c0-1.826-1.56-3.311-3.476-3.311c-1.914,0-3.473,1.485-3.473,3.311v3.736H63.963z"/>
	</g>
	<path fill="#FFFFFF" d="M62.386,11.394v53.856H62.37l0.016,0.806c0,2.469-1.966,4.503-4.479,4.779c-1.376,0-44.78-0.008-47.026,0
		c2.544-0.281,4.464-2.337,4.464-4.779v-1.1h0.019V11.394c-0.001-2.442,1.917-4.499,4.463-4.781c1.375,0,44.778,0.01,47.024,0
		C64.306,6.896,62.386,8.951,62.386,11.394z"/>
	<path fill="#384663" d="M57.998,72.342l-34.232-0.005c-6.812,0-12.129,0-12.878,0.005l-0.188-2.998
		c1.75-0.196,3.07-1.607,3.069-3.287l0.019-54.662c-0.003-3.207,2.518-5.906,5.859-6.275l0.182-0.01l34.139,0.005
		c6.812,0,12.13-0.002,12.879-0.005l0.188,2.998c-1.751,0.194-3.07,1.608-3.07,3.288v55.36h-0.044
		c-0.346,2.926-2.763,5.239-5.832,5.578L57.998,72.342z M23.766,69.33l34.042,0.003c1.718-0.226,2.998-1.624,3.002-3.276
		l-0.046-2.309h0.046V11.394c0-1.193,0.347-2.314,0.956-3.273l-7.799,0l-34.04-0.004c-1.713,0.229-2.987,1.628-2.985,3.277v55.067
		h-0.034c-0.066,1.015-0.39,1.999-0.944,2.868H23.766z"/>
	<g>
		<path fill="#F8C44F" d="M53.059,63.635v2.422c0,2.442,1.92,4.498,4.465,4.779c-2.245-0.008-45.649,0-47.023,0
			c-2.546-0.281-4.465-2.337-4.465-4.779v-2.422H53.059z"/>
		<path fill="#F8C44F" d="M10.501,72.342l-0.183-0.01c-3.342-0.371-5.861-3.068-5.86-6.275v-3.925h50.179v3.925
			c-0.002,1.68,1.318,3.095,3.069,3.287l-0.188,2.998c-0.749-0.005-6.068-0.005-12.879-0.005L10.501,72.342z M7.614,65.138v0.918
			c0,1.652,1.277,3.049,2.986,3.276l34.042-0.003h7.799c-0.629-0.987-0.96-2.12-0.959-3.273v-0.918H7.614z"/>
	</g>
	<path fill="#384663" d="M74.068,18.133h-3.154v-6.738c0-1.826-1.56-3.311-3.476-3.311c-1.914,0-3.473,1.485-3.473,3.311H60.81
		c-0.002-3.484,2.973-6.319,6.628-6.319c3.656,0,6.63,2.835,6.63,6.319V18.133z"/>
	<path fill="#384663" d="M57.815,72.342c-3.373,0-6.333-2.936-6.333-6.285v-3.9h3.155v3.9c0,1.652,1.574,3.276,3.178,3.276V72.342z"
		/>
</g>
<g>
	<path fill="#FFFFFF" d="M78.054,53.054c0,0.188-0.158,0.342-0.356,0.342l0,0H56.008c-0.197,0-0.356-0.153-0.355-0.34v-0.002v-28.66
		c0-0.188,0.158-0.34,0.355-0.34h21.689c0.197,0,0.356,0.152,0.356,0.34V53.054z"/>
	<path fill="#282D33" d="M77.698,54.221H56.008c-0.675,0-1.223-0.522-1.223-1.167v-28.66c0.001-0.644,0.548-1.165,1.223-1.166
		h21.689c0.674,0.001,1.222,0.522,1.222,1.166v28.66C78.919,53.699,78.372,54.221,77.698,54.221z M56.518,52.569h20.67V24.881
		h-20.67V52.569z"/>
	<path fill="#FFFFFF" d="M78.054,27.836v22.792c0,0.189-0.158,0.341-0.356,0.343l0,0H56.008c-0.197,0-0.356-0.153-0.355-0.343l0,0
		V27.836"/>
	<path fill="#282D33" d="M77.698,51.796H56.008c-0.675,0-1.223-0.521-1.223-1.167V27.836h1.732v22.308h20.67V27.836h1.732v22.792
		C78.919,51.274,78.372,51.796,77.698,51.796z"/>
	<path fill="#5EB4E7" d="M58.72,28.407h16.267v3.719H58.72V28.407z"/>
	<path fill="#FFFFFF" d="M58.681,35.516h3.124"/>
	<path fill="#282D33" d="M58.681,34.689h3.124v1.652h-3.124V34.689z"/>
	<path fill="#FFFFFF" d="M63.088,35.516h3.124"/>
	<path fill="#282D33" d="M63.088,34.689h3.124v1.652h-3.124V34.689z"/>
	<path fill="#FFFFFF" d="M67.492,35.516h3.126"/>
	<path fill="#282D33" d="M67.492,34.689h3.126v1.652h-3.126V34.689z"/>
	<path fill="#FFFFFF" d="M71.9,35.516h3.126"/>
	<path fill="#282D33" d="M71.9,34.689h3.126v1.652H71.9V34.689z"/>
	<path fill="#FFFFFF" d="M58.681,38.426h3.124"/>
	<path fill="#282D33" d="M58.681,37.599h3.124v1.652h-3.124V37.599z"/>
	<path fill="#FFFFFF" d="M63.088,38.426h3.124"/>
	<path fill="#282D33" d="M63.088,37.599h3.124v1.652h-3.124V37.599z"/>
	<path fill="#FFFFFF" d="M67.492,38.426h3.126"/>
	<path fill="#282D33" d="M67.492,37.599h3.126v1.652h-3.126V37.599z"/>
	<path fill="#FFFFFF" d="M71.9,38.426h3.126"/>
	<path fill="#282D33" d="M71.9,37.599h3.126v1.652H71.9V37.599z"/>
	<path fill="#FFFFFF" d="M58.681,41.337h3.124"/>
	<path fill="#282D33" d="M58.681,40.51h3.124v1.652h-3.124V40.51z"/>
	<path fill="#FFFFFF" d="M63.088,41.337h3.124"/>
	<path fill="#282D33" d="M63.088,40.51h3.124v1.652h-3.124V40.51z"/>
	<path fill="#FFFFFF" d="M67.492,41.337h3.126"/>
	<path fill="#282D33" d="M67.492,40.51h3.126v1.652h-3.126V40.51z"/>
	<path fill="#FFFFFF" d="M71.9,41.337h3.126"/>
	<path fill="#282D33" d="M71.9,40.51h3.126v1.652H71.9V40.51z"/>
	<path fill="#FFFFFF" d="M58.681,44.247h3.124"/>
	<path fill="#282D33" d="M58.681,43.42h3.124v1.652h-3.124V43.42z"/>
	<path fill="#FFFFFF" d="M63.088,44.247h3.124"/>
	<path fill="#282D33" d="M63.088,43.42h3.124v1.652h-3.124V43.42z"/>
	<path fill="#FFFFFF" d="M67.492,44.247h3.126"/>
	<path fill="#282D33" d="M67.492,43.42h3.126v1.652h-3.126V43.42z"/>
	<path fill="#FFFFFF" d="M71.9,44.247h3.126"/>
	<path fill="#282D33" d="M71.9,43.42h3.126v1.652H71.9V43.42z"/>
	<path fill="#FFFFFF" d="M58.681,47.157h3.124"/>
	<path fill="#282D33" d="M58.681,46.33h3.124v1.652h-3.124V46.33z"/>
	<path fill="#FFFFFF" d="M63.088,47.157h3.124"/>
	<path fill="#282D33" d="M63.088,46.33h3.124v1.652h-3.124V46.33z"/>
	<path fill="#FFFFFF" d="M67.492,47.157h3.126"/>
	<path fill="#282D33" d="M67.492,46.33h3.126v1.652h-3.126V46.33z"/>
	<path fill="#FFFFFF" d="M71.9,47.157h3.126"/>
	<path fill="#282D33" d="M71.9,46.33h3.126v1.652H71.9V46.33z"/>
</g>
<g>
	<ellipse fill="#E9C259" cx="43.199" cy="27.028" rx="7.071" ry="6.741"/>
	<g>
		<path d="M43.036,23.629H43.01l-1.509,0.777l-0.227-0.853l1.896-0.967h1.002v8.273h-1.135V23.629z"/>
	</g>
</g>
<g>
	<path d="M53.027,13.516v2.788h2.764v1.171h-2.764v2.813h-1.295v-2.813h-2.764v-1.171h2.764v-2.788H53.027z"/>
</g>
<g>
	<path d="M49.927,37.126v1.286H46.43v-1.286H49.927z"/>
</g>
<g>
	<path d="M49.928,39.867v1.285H46.43v-1.285H49.928z"/>
</g>
<g>
	<path d="M49.928,42.566v1.285H46.43v-1.285H49.928z"/>
</g>
<g>
	<path d="M49.928,45.306v1.285H46.43v-1.285H49.928z"/>
</g>
</svg>
