<?xml version="1.0" encoding="utf-8"?>
<!-- Generator: Adobe Illustrator 16.0.0, SVG Export Plug-In . SVG Version: 6.00 Build 0)  -->
<!DOCTYPE svg PUBLIC "-//W3C//DTD SVG 1.1//EN" "http://www.w3.org/Graphics/SVG/1.1/DTD/svg11.dtd">
<svg version="1.1" id="Camada_1" xmlns="http://www.w3.org/2000/svg" xmlns:xlink="http://www.w3.org/1999/xlink" x="0px" y="0px"
	 width="99.02px" height="99.021px" viewBox="0 0 99.02 99.021" enable-background="new 0 0 99.02 99.021" xml:space="preserve">
<rect x="33.995" y="78.8" fill="#FFFFFF" width="11.531" height="13.376"/>
<path fill="#3F4862" d="M35.84,80.644h7.841v9.684H35.84V80.644z M32.151,94.02h15.222V76.955H32.151V94.02z"/>
<rect x="63.976" y="78.8" fill="#FFFFFF" width="11.53" height="13.376"/>
<path fill="#3F4862" d="M65.821,80.644h7.841v9.684h-7.841V80.644z M62.131,94.02h15.222V76.955H62.131V94.02z"/>
<g>
	<defs>
		<rect id="SVGID_1_" x="6.321" y="5" width="85.329" height="89.02"/>
	</defs>
	<clipPath id="SVGID_2_">
		<use xlink:href="#SVGID_1_"  overflow="visible"/>
	</clipPath>
	<path clip-path="url(#SVGID_2_)" fill="#FFFFFF" d="M22.234,21.604c-0.078,0-0.154,0.011-0.23,0.012v21.205h11.511
		c1.469-2.171,2.326-4.79,2.326-7.61C35.84,27.697,29.748,21.604,22.234,21.604"/>
	<path clip-path="url(#SVGID_2_)" fill="#3F4862" d="M34.493,44.666H20.158V19.804l1.812-0.032c0.091-0.008,0.176-0.013,0.264-0.013
		c8.52,0,15.452,6.932,15.452,15.451c0,3.098-0.914,6.088-2.643,8.644L34.493,44.666z M23.848,40.976h8.64
		c0.989-1.752,1.508-3.728,1.508-5.766c0-5.938-4.423-10.861-10.147-11.65V40.976z"/>
	<path clip-path="url(#SVGID_2_)" fill="#FFFFFF" d="M62.131,28.984H41.836c-12.391,0-22.879,8.145-26.406,19.372H8.166V64.5h4.771
		l-1.031,4.978h4.959c4.45,9.325,13.95,15.779,24.971,15.779h20.295c15.283,0,27.674-12.394,27.674-27.676v-0.922
		C89.805,41.375,77.414,28.984,62.131,28.984"/>
	<path clip-path="url(#SVGID_2_)" fill="#3F4862" d="M62.132,87.101H41.837c-10.911,0-21.031-6.155-26.109-15.778H9.64l1.029-4.979
		H6.322V46.511h7.788c4.244-11.643,15.22-19.372,27.728-19.372h20.295c16.275,0,29.519,13.242,29.519,29.52v0.922
		C91.651,73.858,78.407,87.101,62.132,87.101 M14.172,67.634h3.857l0.5,1.05c4.271,8.946,13.417,14.729,23.307,14.729h20.295
		c14.241,0,25.829-11.588,25.829-25.831v-0.922c0-14.243-11.588-25.829-25.829-25.829H41.837c-11.345,0-21.25,7.265-24.646,18.079
		l-0.406,1.293h-6.773v12.453h5.19L14.172,67.634z"/>
	<path clip-path="url(#SVGID_2_)" fill="#3F4862" d="M30.767,54.352h-3.69c0-1.271-1.035-2.306-2.307-2.306
		s-2.306,1.034-2.306,2.306h-3.69c0-3.306,2.69-5.996,5.996-5.996C28.076,48.356,30.767,51.047,30.767,54.352"/>
	<path clip-path="url(#SVGID_2_)" fill="#FFFFFF" d="M32.381,21.604c-0.079,0-0.154,0.011-0.23,0.012v21.205h3.229h8.282
		c1.468-2.171,2.326-4.79,2.326-7.61C45.988,27.697,39.895,21.604,32.381,21.604"/>
	<path clip-path="url(#SVGID_2_)" fill="#3F4862" d="M44.641,44.666H30.305V19.804l1.812-0.032c0.091-0.008,0.176-0.013,0.264-0.013
		c8.519,0,15.451,6.932,15.451,15.451c0,3.098-0.914,6.088-2.643,8.644L44.641,44.666z M33.995,40.976h8.639
		c0.99-1.752,1.508-3.728,1.508-5.766c0-5.938-4.423-10.861-10.147-11.65V40.976z"/>
	<path clip-path="url(#SVGID_2_)" fill="#E9C259" d="M81.549,25.403c0,7.937-6.438,14.378-14.38,14.378
		c-7.94,0-14.376-6.441-14.376-14.378s6.436-14.376,14.376-14.376C75.112,11.027,81.549,17.466,81.549,25.403"/>
	<rect x="44.604" y="5" clip-path="url(#SVGID_2_)" fill="#3F4862" width="3.689" height="11.531"/>
	<rect x="40.683" y="8.921" clip-path="url(#SVGID_2_)" fill="#3F4862" width="11.531" height="3.69"/>
	<path clip-path="url(#SVGID_2_)" fill="#3F4862" d="M68.489,27.663l-4.379-1.708c-1.836-1.167-2.223-2.478-2.223-3.373v-1.834
		c0-2.318,1.887-4.203,4.203-4.203h2.164c2.316,0,4.199,1.885,4.199,4.203v0.857h-3.017v-0.857c0-0.654-0.531-1.185-1.183-1.185
		H66.09c-0.653,0-1.185,0.531-1.185,1.185v1.834c0,0.078,0.13,0.36,0.704,0.749l3.957,1.514L68.489,27.663z"/>
	<path clip-path="url(#SVGID_2_)" fill="#3F4862" d="M68.254,34.578H66.09c-2.316,0-4.201-1.885-4.201-4.202v-0.858h3.017v0.858
		c0,0.653,0.531,1.184,1.185,1.184h2.164c0.651,0,1.183-0.531,1.183-1.184v-1.836c0-0.059-0.138-0.377-0.753-0.793l-3.769-1.452
		L66,23.48l4.186,1.643c1.874,1.191,2.268,2.517,2.268,3.418v1.836C72.453,32.693,70.571,34.578,68.254,34.578"/>
	<line clip-path="url(#SVGID_2_)" fill="#3F4862" x1="67.334" y1="14.366" x2="67.334" y2="18.39"/>
	<rect x="65.826" y="14.366" clip-path="url(#SVGID_2_)" fill="#3F4862" width="3.018" height="4.024"/>
	<line clip-path="url(#SVGID_2_)" fill="#3F4862" x1="67.334" y1="32.419" x2="67.334" y2="36.443"/>
	<rect x="65.826" y="32.42" clip-path="url(#SVGID_2_)" fill="#3F4862" width="3.018" height="4.023"/>
</g>
</svg>
