<svg xmlns="http://www.w3.org/2000/svg" width="66.496" height="75.72" viewBox="0 0 66.496 75.72"><path fill="#F8C44F" d="M32.611 23.538l13.919 7.955-14.009 8.086-13.916-7.953z"/><path fill="#384663" d="M32.521 41.579c-.343 0-.685-.088-.992-.264l-13.916-7.953a2 2 0 0 1-.008-3.467l14.006-8.088a2.001 2.001 0 0 1 1.992-.005l13.919 7.955a2 2 0 0 1 .008 3.467l-14.009 8.087a2.005 2.005 0 0 1-1 .268zm-9.901-9.962l9.896 5.655 9.998-5.771-9.898-5.656-9.996 5.772z"/><path fill="#F8C44F" d="M46.349 31.312l.162 16.164-14.008 8.089-.163-16.168z"/><path fill="#384663" d="M32.684 57.747a2 2 0 0 1-2-1.981L30.521 39.6a2.002 2.002 0 0 1 1-1.753l14.009-8.085a2 2 0 0 1 3 1.712l.162 16.164a2.002 2.002 0 0 1-1 1.752l-14.009 8.089a2.001 2.001 0 0 1-.999.268zm1.849-17.019l.116 11.574L44.68 46.51l-.116-11.573-10.031 5.791z"/><path fill="#FFF" d="M32.521 39.579l.163 16.168-13.919-7.955-.16-16.166z"/><path fill="#384663" d="M32.684 57.747c-.343 0-.685-.089-.992-.264l-13.919-7.955a2 2 0 0 1-1.008-1.717l-.159-16.166a2 2 0 0 1 2.992-1.756l13.916 7.953a2 2 0 0 1 1.008 1.716l.159 15.885a2 2 0 0 1-1.979 2.304h-.018zM20.753 46.625l9.896 5.655-.115-11.534-9.894-5.654.113 11.533zM63.67 57.304l-6.151-6.144-6.153 6.144-2.825-2.83 8.978-8.968 8.977 8.968z"/><path fill="#384663" d="M49.879 75.72h-8.798v-4h8.798a5.635 5.635 0 0 0 5.629-5.627V50.711h4v15.382c0 5.307-4.32 9.627-9.629 9.627z"/><g fill="#384663"><path d="M8.978 30.214L0 21.246l2.826-2.83 6.152 6.145 6.151-6.145 2.826 2.83z"/><path d="M10.988 25.009h-4V9.627c0-5.145 4.057-9.359 9.14-9.614V0h.489v4a5.634 5.634 0 0 0-5.629 5.627v15.382z"/></g></svg>