<?xml version="1.0" encoding="utf-8"?>
<!-- Generator: Adobe Illustrator 16.0.0, SVG Export Plug-In . SVG Version: 6.00 Build 0)  -->
<!DOCTYPE svg PUBLIC "-//W3C//DTD SVG 1.1//EN" "http://www.w3.org/Graphics/SVG/1.1/DTD/svg11.dtd">
<svg version="1.1" id="Camada_1" xmlns="http://www.w3.org/2000/svg" xmlns:xlink="http://www.w3.org/1999/xlink" x="0px" y="0px"
	 width="98.705px" height="100.754px" viewBox="0 0 98.705 100.754" enable-background="new 0 0 98.705 100.754"
	 xml:space="preserve">
<g>
	<defs>
		<rect id="SVGID_1_" width="98.705" height="100.754"/>
	</defs>
	<clipPath id="SVGID_2_">
		<use xlink:href="#SVGID_1_"  overflow="visible"/>
	</clipPath>
	<path clip-path="url(#SVGID_2_)" fill="#F8C44F" d="M73.441,15.371V8.404C73.441,4.865,76.308,2,79.847,2
		c3.538,0,6.405,2.865,6.405,6.404v6.967H73.441z"/>
	<path clip-path="url(#SVGID_2_)" fill="#F8C44F" d="M88.252,17.371H71.441V8.404C71.441,3.77,75.212,0,79.847,0
		s8.405,3.77,8.405,8.404V17.371z M75.441,13.371h8.811V8.404C84.252,5.975,82.275,4,79.847,4s-4.405,1.975-4.405,4.404V13.371z"/>
	<path clip-path="url(#SVGID_2_)" fill="#FFFFFF" d="M73.441,8.404v71.614h-0.02l0.02,1.071c0,3.286-2.492,5.989-5.679,6.358
		c-1.744,0-56.772-0.013-59.62,0c3.188-0.369,5.661-3.072,5.661-6.358v-1.46h0.024V8.404c0-3.287,2.471-5.99,5.659-6.358
		c1.742,0,56.77,0.012,59.617,0C75.917,2.414,73.441,5.117,73.441,8.404"/>
	<path clip-path="url(#SVGID_2_)" fill="#282D33" d="M67.878,89.447l-43.4-0.005c-8.636,0-15.378,0.001-16.327,0.005l-0.238-3.986
		c2.218-0.257,3.891-2.137,3.891-4.373l0.024-72.684c0-4.269,3.194-7.857,7.429-8.345l0.23-0.013l43.282,0.005
		c8.636,0,15.377-0.001,16.326-0.005l0.238,3.987c-2.219,0.256-3.892,2.136-3.892,4.371v73.614h-0.055
		c-0.438,3.862-3.47,6.961-7.394,7.416L67.878,89.447z M24.478,85.442l43.159,0.005c2.177-0.305,3.805-2.159,3.805-4.359
		l-0.057-3.07h0.057V8.404c0-1.587,0.441-3.079,1.214-4.354c-2.722,0.001-6.124,0.001-9.887,0.001L19.613,4.046
		c-2.165,0.301-3.785,2.157-3.785,4.358v73.225h-0.041c-0.088,1.385-0.513,2.685-1.198,3.814
		C17.312,85.442,20.715,85.442,24.478,85.442"/>
	<path clip-path="url(#SVGID_2_)" fill="#F8C44F" d="M61.616,77.869v3.22c0,3.286,2.474,5.988,5.661,6.357
		c-2.846-0.012-57.875,0-59.617,0C4.472,87.077,2,84.375,2,81.089v-3.22H61.616z"/>
	<path clip-path="url(#SVGID_2_)" fill="#F8C44F" d="M7.66,89.446l-0.23-0.013C3.194,88.942,0,85.355,0,81.089v-5.22h63.616v5.22
		c0,2.234,1.673,4.114,3.892,4.372l-0.238,3.985c-0.948-0.004-7.692-0.005-16.326-0.005L7.66,89.446z M4,79.869v1.22
		c0,2.2,1.62,4.055,3.786,4.357l43.157-0.005c3.762,0,7.165,0,9.888,0.001c-0.773-1.273-1.215-2.767-1.215-4.354v-1.22H4z"/>
	<path clip-path="url(#SVGID_2_)" fill="#282D33" d="M88.252,17.363h-4V8.404C84.252,5.975,82.275,4,79.847,4
		s-4.405,1.975-4.405,4.404h-4C71.441,3.77,75.212,0,79.847,0s8.405,3.77,8.405,8.404V17.363z"/>
	<path clip-path="url(#SVGID_2_)" fill="#282D33" d="M67.646,89.447c-4.277,0-8.03-3.905-8.03-8.358v-5.186h4v5.186
		c0,2.2,1.996,4.358,4.03,4.358V89.447z"/>
	<rect x="32.771" y="13.412" clip-path="url(#SVGID_2_)" fill="#282D33" width="32.486" height="4"/>
	<rect x="32.771" y="20.843" clip-path="url(#SVGID_2_)" fill="#282D33" width="13.236" height="4"/>
	<rect x="21.606" y="13.436" clip-path="url(#SVGID_2_)" fill="#5EB4E7" width="7.208" height="7.208"/>
	<rect x="32.77" y="33.598" clip-path="url(#SVGID_2_)" fill="#282D33" width="32.84" height="4"/>
	<rect x="32.77" y="41.031" clip-path="url(#SVGID_2_)" fill="#282D33" width="32.84" height="4"/>
	<rect x="21.606" y="33.624" clip-path="url(#SVGID_2_)" fill="#5EB4E7" width="7.208" height="7.208"/>
	<rect x="32.771" y="53.598" clip-path="url(#SVGID_2_)" fill="#282D33" width="13.236" height="4"/>
	<rect x="32.771" y="61.031" clip-path="url(#SVGID_2_)" fill="#282D33" width="13.236" height="4"/>
	<rect x="21.606" y="53.624" clip-path="url(#SVGID_2_)" fill="#5EB4E7" width="7.208" height="7.208"/>
	<polygon clip-path="url(#SVGID_2_)" fill="#282D33" points="68.759,94.946 65.65,94.946 65.65,89.384 64.144,89.384 64.144,94.946 
		61.036,94.946 61.036,86.276 68.759,86.276 	"/>
	<path clip-path="url(#SVGID_2_)" fill="#282D33" d="M64.318,89.009c-5.199,0.001-10.472-1.184-15.421-3.683
		c-1.035-0.521-2.049-1.1-3.012-1.717l1.677-2.618c0.874,0.562,1.795,1.085,2.735,1.562c15.369,7.76,34.187,1.572,41.949-13.79
		c7.762-15.37,1.574-34.19-13.79-41.95c-0.895-0.455-1.837-0.874-2.888-1.282l1.126-2.897c1.147,0.446,2.184,0.906,3.167,1.407
		c16.891,8.531,23.692,29.223,15.159,46.122C88.985,82.108,76.87,89.007,64.318,89.009"/>
	<path clip-path="url(#SVGID_2_)" fill="#282D33" d="M89.623,100.754h-49.45l0.064-1.616c0.127-3.207,2.72-6.78,6.239-6.78h36.843
		c3.52,0,6.113,3.573,6.241,6.78L89.623,100.754z M43.765,97.646h42.267c-0.56-1.183-1.601-2.182-2.713-2.182H46.476
		C45.365,95.465,44.323,96.464,43.765,97.646"/>
	
		<rect x="60.648" y="16.347" transform="matrix(0.8915 0.453 -0.453 0.8915 31.0578 -22.3583)" clip-path="url(#SVGID_2_)" fill="#282D33" width="3.108" height="74.615"/>
	<path clip-path="url(#SVGID_2_)" fill="#FFFFFF" d="M64.856,81.121c-3.684,0-7.271-0.759-10.663-2.252
		c-13.39-5.9-19.484-21.594-13.586-34.979c4.239-9.623,13.785-15.839,24.321-15.839c3.684,0,7.271,0.757,10.661,2.252
		c6.478,2.852,11.459,8.067,14.028,14.682c2.568,6.615,2.412,13.824-0.441,20.3C84.938,74.904,75.393,81.121,64.856,81.121
		L64.856,81.121z"/>
	<path clip-path="url(#SVGID_2_)" fill="#282D33" d="M64.929,29.604c3.358,0,6.77,0.681,10.035,2.121
		c12.606,5.552,18.345,20.33,12.791,32.934c-4.114,9.34-13.291,14.908-22.898,14.908c-3.358,0-6.771-0.68-10.036-2.119
		C42.215,71.893,36.477,57.118,42.03,44.516C46.145,35.175,55.322,29.604,64.929,29.604 M64.929,26.497
		c-11.151,0-21.256,6.581-25.743,16.766c-6.244,14.171,0.207,30.783,14.381,37.029c3.591,1.581,7.39,2.383,11.29,2.383
		c11.151,0,21.256-6.579,25.742-16.764c3.021-6.855,3.187-14.487,0.468-21.49c-2.72-7.002-7.993-12.522-14.85-15.542
		C72.627,27.299,68.829,26.497,64.929,26.497"/>
	<path clip-path="url(#SVGID_2_)" fill="#5EB4E7" d="M89.623,57.785l-3.472,2.704l-6.266,5.273l-0.279-5.117l-4.067,0.735
		l-0.453-4.712l-2.796,1.492l-0.808-0.623l-2.407-2.405l-0.764,3.272l1.839,1.858l-8.056,7.832l-2.191,0.345l-0.01-4.224l1.573-6.39
		l-2.865-1.403l-0.29-2.749l3.63-3.817l2.691,0.5l1.079,1.666l3.979,0.701l-2.998-3.909L63.64,46.8l0.267-1.07l3.989-0.442
		l-0.437-2.676l4.518-1.509l2.913,2.722l6.508,0.73c0,0,2.89-0.218,6.113-0.439C89.456,48.329,90.23,53.063,89.623,57.785"/>
	<path clip-path="url(#SVGID_2_)" fill="#5EB4E7" d="M58.355,30.51l-2.291,1.671l-4.073,3.137c-0.108,0.085-0.165,0.223-0.146,0.358
		l0.471,3.232c0.02,0.132,0.139,0.261,0.229,0.297c0.124,0.051,0.264,0.037,0.371-0.038l2.297-1.611l1.259,4.462l-7.272,2.371
		l-3.078-1.02c-0.142-0.047-0.298-0.005-0.403,0.104l-1.429,1.53c-0.089,0.096-0.123,0.23-0.092,0.357l0.87,3.384l-2.541-2.869
		l-0.422-1.496C45.277,37.293,51.381,32.406,58.355,30.51"/>
	<path clip-path="url(#SVGID_2_)" fill="#5EB4E7" d="M45.416,58.172l-0.294-4.829l4.198-3.827l3.736,8.344l-9.951,8.452v-2.908
		l2.275-5.053C45.409,58.293,45.419,58.233,45.416,58.172"/>
	<path clip-path="url(#SVGID_2_)" fill="#5EB4E7" d="M60.149,38.913l-0.209-6.525c4.56-0.257,7.251,0.418,8.256,0.746l-3.29,4.487
		L60.149,38.913z"/>
	<path clip-path="url(#SVGID_2_)" fill="#F8C44F" d="M50.147,22c-6.238,0-11.29,5.052-11.29,11.287
		c0,6.238,11.29,15.863,11.29,15.863s11.289-9.625,11.289-15.863C61.437,27.051,56.385,22,50.147,22"/>
	<path clip-path="url(#SVGID_2_)" fill="#282D33" d="M50.147,40.445c-3.948,0-7.161-3.211-7.161-7.158
		c0-3.945,3.213-7.156,7.161-7.156c3.944,0,7.154,3.211,7.154,7.156C57.302,37.234,54.092,40.445,50.147,40.445 M50.147,29.239
		c-2.235,0-4.053,1.815-4.053,4.048c0,2.233,1.818,4.051,4.053,4.051c2.231,0,4.047-1.818,4.047-4.051
		C54.194,31.054,52.379,29.239,50.147,29.239"/>
	<path clip-path="url(#SVGID_2_)" fill="#FFFFFF" d="M50.147,38.891c-3.098,0-5.607-2.51-5.607-5.604s2.509-5.602,5.607-5.602
		c3.098,0,5.601,2.508,5.601,5.602S53.245,38.891,50.147,38.891"/>
	<path clip-path="url(#SVGID_2_)" fill="#282D33" d="M50.147,40.445c-3.948,0-7.161-3.211-7.161-7.158
		c0-3.945,3.213-7.156,7.161-7.156c3.944,0,7.154,3.211,7.154,7.156C57.302,37.234,54.092,40.445,50.147,40.445 M50.147,29.239
		c-2.235,0-4.053,1.815-4.053,4.048c0,2.233,1.818,4.051,4.053,4.051c2.231,0,4.047-1.818,4.047-4.051
		C54.194,31.054,52.379,29.239,50.147,29.239"/>
</g>
</svg>
