<?xml version="1.0" encoding="utf-8"?>
<!-- Generator: Adobe Illustrator 16.0.0, SVG Export Plug-In . SVG Version: 6.00 Build 0)  -->
<!DOCTYPE svg PUBLIC "-//W3C//DTD SVG 1.1//EN" "http://www.w3.org/Graphics/SVG/1.1/DTD/svg11.dtd">
<svg version="1.1" id="Camada_1" xmlns="http://www.w3.org/2000/svg" xmlns:xlink="http://www.w3.org/1999/xlink" x="0px" y="0px"
	 width="99.02px" height="99.021px" viewBox="0 0 99.02 99.021" enable-background="new 0 0 99.02 99.021" xml:space="preserve">
<path fill="#384663" d="M79.506,49.538H76.56V31.315c0-15.093-12.28-27.372-27.372-27.372c-15.093,0-27.373,12.279-27.373,27.372
	v18.223h-2.944V31.315C18.871,14.599,32.471,1,49.188,1c16.718,0,30.318,13.599,30.318,30.315V49.538z"/>
<path fill="#F8C44F" d="M81.917,50.942c0,3.455-2.801,6.256-6.255,6.256h-0.521c-3.454,0-6.255-2.801-6.257-6.256v-11.47
	c0-3.455,2.801-6.255,6.255-6.256h0.002h0.521c3.454,0,6.255,2.801,6.255,6.256V50.942z"/>
<path fill="#384663" d="M83.227,98.792h-2.943V87.514c0-4.164-3.911-7.553-8.723-7.553H26.816c-4.812,0-8.725,3.387-8.725,7.553
	v11.277h-2.943V87.514c0-5.787,5.234-10.496,11.668-10.496h44.743c6.435,0,11.668,4.707,11.668,10.496V98.792L83.227,98.792z"/>
<path fill="#FFFFFF" d="M71.966,31.315v18.223c0,12.578-10.197,22.779-22.778,22.779S26.408,62.116,26.408,49.538V31.315"/>
<path fill="#384663" d="M49.188,73.788c-13.372,0-24.251-10.879-24.251-24.25V31.315h2.944v18.223
	c0,11.75,9.558,21.306,21.307,21.306s21.308-9.557,21.308-21.306V31.315h2.943v18.223C73.439,62.909,62.561,73.788,49.188,73.788z"
	/>
<path fill="#5EB4E7" d="M65.142,7.301H41.054c-3.688,0-6.925,1.896-8.811,4.765h-3.62c-0.32,0-0.633,0.024-0.947,0.059
	c-4.03,4.515-6.662,10.296-7.216,16.668v21.134h5.748V32.206c0-3.175,2.573-5.749,5.747-5.75h39.909
	c5.819,0,10.537-4.715,10.537-10.534V7.301H65.142z"/>
<path fill="#384663" d="M27.68,49.927h-2.944V32.206c0-3.982,3.237-7.222,7.219-7.222h39.907c5,0,9.066-4.065,9.066-9.062V7.301
	h2.943v8.622c0,6.62-5.389,12.005-12.01,12.005H31.955c-2.361,0.003-4.273,1.917-4.275,4.278V49.927z"/>
<path fill="#F8C44F" d="M29.012,50.942c0,3.455-2.8,6.256-6.256,6.256h-0.521c-3.456,0-6.257-2.801-6.257-6.256l0,0v-11.47
	c-0.001-3.455,2.8-6.255,6.254-6.256c0.001,0,0.002,0,0.003,0h0.521c3.456,0,6.256,2.801,6.256,6.256V50.942z"/>
<path fill="#384663" d="M21.815,49.538h-2.944V31.315C18.871,14.599,32.471,1,49.188,1v2.944c-15.093,0-27.373,12.279-27.373,27.372
	V49.538z M53.114,86.966h-8.746l-3.949-6.84l2.549-1.473l3.099,5.367h5.349l3.099-5.367l2.549,1.473L53.114,86.966z"/>
<path fill="#384663" d="M53.193,85.135l3.018,13.855l-2.875,0.625l-3.019-13.852L53.193,85.135z M44.282,85.137l2.876,0.627
	l-3.02,13.854l-2.875-0.625L44.282,85.137z M71.966,66.032H54.107v-2.943h17.859c2.536-0.002,4.592-2.059,4.594-4.594h2.946
	C79.506,62.651,76.123,66.032,71.966,66.032z M49.121,40.636h2.943v12.466h-2.943V40.636z"/>
</svg>
