<?xml version="1.0" encoding="utf-8"?>
<!-- Generator: Adobe Illustrator 16.0.0, SVG Export Plug-In . SVG Version: 6.00 Build 0)  -->
<!DOCTYPE svg PUBLIC "-//W3C//DTD SVG 1.1//EN" "http://www.w3.org/Graphics/SVG/1.1/DTD/svg11.dtd">
<svg version="1.1" id="Camada_1" xmlns="http://www.w3.org/2000/svg" xmlns:xlink="http://www.w3.org/1999/xlink" x="0px" y="0px"
	 width="99.02px" height="99.021px" viewBox="0 0 99.02 99.021" enable-background="new 0 0 99.02 99.021" xml:space="preserve">
<path fill="#384663" d="M49.535,77.094h-0.026c-1.434,0-2.872-0.11-4.281-0.329l0.613-3.952c1.207,0.187,2.44,0.281,3.668,0.281
	L49.535,77.094z M53.849,76.754l-0.625-3.95c1.219-0.192,2.42-0.481,3.594-0.863l1.238,3.804
	C56.682,76.189,55.275,76.527,53.849,76.754L53.849,76.754z M41.017,75.762c-1.376-0.446-2.714-0.999-4.002-1.653l1.813-3.565
	c1.101,0.561,2.244,1.033,3.42,1.412L41.017,75.762z M62.052,74.082l-1.819-3.561c1.098-0.563,2.151-1.211,3.148-1.938l2.355,3.232
	C64.57,72.668,63.338,73.426,62.052,74.082L62.052,74.082z M33.323,71.849c-1.168-0.85-2.268-1.788-3.29-2.808l2.825-2.831
	c0.87,0.869,1.815,1.677,2.813,2.4L33.323,71.849z M69.024,69.006l-2.832-2.824c0.873-0.875,1.677-1.816,2.403-2.815l3.234,2.354
	C70.98,66.885,70.042,67.984,69.024,69.006z M27.218,65.76c-0.851-1.166-1.609-2.396-2.27-3.681l3.559-1.828
	c0.564,1.099,1.213,2.151,1.941,3.148L27.218,65.76z M74.096,62.03l-3.564-1.816c0.562-1.1,1.035-2.243,1.416-3.418l3.805,1.233
	C75.306,59.404,74.753,60.742,74.096,62.03z M23.285,58.083c-0.447-1.373-0.787-2.779-1.015-4.206l3.951-0.629
	c0.192,1.216,0.483,2.425,0.865,3.594L23.285,58.083z M76.757,53.82l-3.949-0.619c0.189-1.221,0.285-2.454,0.285-3.689v-0.104h4
	v0.104C77.093,50.953,76.98,52.402,76.757,53.82L76.757,53.82z M21.925,49.563V49.51c0-1.424,0.111-2.854,0.328-4.255l3.953,0.612
	c-0.187,1.205-0.28,2.423-0.281,3.643L21.925,49.563z M72.791,45.728c-0.197-1.219-0.489-2.42-0.875-3.594l3.801-1.248
	c0.45,1.372,0.792,2.777,1.022,4.203L72.791,45.728L72.791,45.728z M27.058,42.272l-3.808-1.229
	c0.443-1.376,0.995-2.714,1.649-4.003l3.565,1.811C27.908,39.953,27.437,41.096,27.058,42.272z M70.49,38.727
	c-0.567-1.097-1.219-2.148-1.948-3.146l3.227-2.365c0.854,1.164,1.615,2.394,2.276,3.678L70.49,38.727z M30.395,35.694l-3.239-2.345
	c0.847-1.17,1.783-2.271,2.801-3.295l2.836,2.82C31.923,33.752,31.121,34.694,30.395,35.694z M66.127,32.778
	c-0.876-0.871-1.819-1.672-2.82-2.396l2.344-3.241c1.169,0.846,2.271,1.782,3.296,2.799L66.127,32.778z M35.601,30.465l-2.362-3.229
	c1.165-0.853,2.396-1.612,3.68-2.271l1.828,3.558C37.649,29.087,36.597,29.736,35.601,30.465z M60.147,28.457
	c-1.103-0.558-2.246-1.027-3.422-1.405l1.223-3.809c1.373,0.441,2.722,0.995,4.006,1.646L60.147,28.457z M42.155,27.097
	l-1.245-3.802c1.373-0.449,2.779-0.791,4.205-1.021l0.633,3.95C44.529,26.421,43.328,26.713,42.155,27.097z M53.127,26.203
	c-1.197-0.184-2.406-0.275-3.618-0.274l-0.076-4h0.076c1.416,0,2.84,0.107,4.229,0.321L53.127,26.203z M56.056,11.609l-5.96-5.954
	l-5.956,5.954L41.311,8.78L50.096,0l8.787,8.78L56.056,11.609z"/>
<path fill="#384663" d="M48.097,4.287h4v12.47h-4V4.287z M18.911,26.508l-4-0.002l0.005-12.42l12.42-0.006l0.002,4l-8.424,0.004
	L18.911,26.508z"/>
<path fill="#384663" d="M19.36,15.702l8.818,8.815l-2.828,2.829l-8.818-8.816L19.36,15.702z M8.776,57.708L0,48.922l8.776-8.784
	l2.83,2.826l-5.952,5.958l5.952,5.959L8.776,57.708z"/>
<path fill="#384663" d="M4.284,46.921h12.471v4H4.284V46.921z M26.504,84.107l-12.42-0.003l-0.006-12.419l4-0.003l0.004,8.423
	l8.423,0.002L26.504,84.107z"/>
<path fill="#384663" d="M24.517,70.84l2.83,2.829l-8.818,8.817l-2.83-2.829L24.517,70.84z"/>
<g>
	<path fill="#384663" d="M71.682,84.939l-0.002-4l8.424-0.001l0.002-8.424l4,0.002l-0.004,12.42L71.682,84.939z"/>
	<path fill="#384663" d="M73.67,71.673l8.82,8.816l-2.829,2.829l-8.819-8.817L73.67,71.673z"/>
</g>
<g>
	<path fill="#384663" d="M90.239,58.885l-2.832-2.826l5.957-5.958l-5.957-5.959l2.832-2.828l8.78,8.787L90.239,58.885z"/>
	<path fill="#384663" d="M82.262,48.101h12.472v4H82.262V48.101z"/>
</g>
<g>
	<path fill="#384663" d="M48.921,99.021l-8.786-8.778l2.826-2.83l5.96,5.954l5.956-5.954l2.829,2.829L48.921,99.021z"/>
	<path fill="#384663" d="M46.92,82.265h4v12.471h-4V82.265z"/>
</g>
<g>
	<path fill="#384663" d="M80.938,27.34l-0.002-8.423l-8.428-0.004l0.004-4l12.423,0.005l0.003,12.42L80.938,27.34z"/>
	<path fill="#384663" d="M80.49,16.534l2.828,2.829L74.5,28.18l-2.828-2.828L80.49,16.534z"/>
</g>
<path fill="#00A7C0" d="M49.883,33.406l13.919,7.955l-14.01,8.085l-13.916-7.952L49.883,33.406z"/>
<path fill="#384663" d="M49.792,51.446c-0.343,0-0.685-0.088-0.992-0.264L34.884,43.23c-0.959-0.549-1.291-1.771-0.743-2.729
	c0.176-0.307,0.429-0.561,0.734-0.737l14.006-8.088c0.616-0.356,1.374-0.357,1.992-0.005l13.919,7.956
	c0.959,0.546,1.293,1.766,0.747,2.725c-0.176,0.309-0.432,0.564-0.738,0.742l-14.01,8.086
	C50.482,51.356,50.136,51.446,49.792,51.446z M39.89,41.485l9.896,5.655l9.998-5.771l-9.897-5.657L39.89,41.485z"/>
<path fill="#F8C44F" d="M63.619,41.18l0.161,16.165l-14.007,8.09L49.61,49.266L63.619,41.18z"/>
<path fill="#384663" d="M49.954,67.614c-1.097,0-1.99-0.883-2-1.98l-0.162-16.166c-0.007-0.722,0.375-1.392,1-1.753l14.01-8.085
	c0.956-0.553,2.18-0.225,2.731,0.731c0.173,0.298,0.265,0.636,0.269,0.98l0.162,16.164c0.007,0.721-0.375,1.391-1,1.752l-14.01,8.09
	C50.65,67.522,50.304,67.614,49.954,67.614z M51.804,50.596l0.115,11.572l10.031-5.791l-0.116-11.573L51.804,50.596z"/>
<path fill="#FFFFFF" d="M49.792,49.446l0.162,16.168l-13.919-7.955l-0.159-16.165L49.792,49.446z"/>
<path fill="#384663" d="M49.954,67.614c-0.343,0-0.685-0.088-0.992-0.264l-13.919-7.955c-0.617-0.352-1.001-1.006-1.008-1.717
	l-0.159-16.166c-0.01-1.104,0.878-2.009,1.983-2.019c0.354-0.004,0.702,0.088,1.009,0.262l13.916,7.954
	c0.616,0.352,1.001,1.006,1.008,1.716l0.159,15.885c0.168,1.092-0.581,2.111-1.673,2.279c-0.101,0.016-0.204,0.023-0.306,0.023
	H49.954z M38.023,56.493l9.896,5.654l-0.115-11.533l-9.894-5.655L38.023,56.493z"/>
</svg>
