<?xml version="1.0" encoding="utf-8"?>
<!-- Generator: Adobe Illustrator 16.0.0, SVG Export Plug-In . SVG Version: 6.00 Build 0)  -->
<!DOCTYPE svg PUBLIC "-//W3C//DTD SVG 1.1//EN" "http://www.w3.org/Graphics/SVG/1.1/DTD/svg11.dtd">
<svg version="1.1" id="Camada_1" xmlns="http://www.w3.org/2000/svg" xmlns:xlink="http://www.w3.org/1999/xlink" x="0px" y="0px"
	 width="97.273px" height="96.84px" viewBox="0 0 97.273 96.84" enable-background="new 0 0 97.273 96.84" xml:space="preserve">
<g>
	<defs>
		<rect id="SVGID_1_" width="97.273" height="96.84"/>
	</defs>
	<clipPath id="SVGID_2_">
		<use xlink:href="#SVGID_1_"  overflow="visible"/>
	</clipPath>
	<path clip-path="url(#SVGID_2_)" fill="#FFFFFF" d="M95.248,40.01l-0.02-0.019v-0.016h-0.022l-11.608-9.903l-8.174-6.973
		c-0.962-0.815-2.219-1.89-3.479-2.967l-10.882-9.277l-8.945-7.632c-1.915-1.63-5.049-1.63-6.96,0l-8.948,7.632l-10.881,9.277
		c-1.26,1.077-2.518,2.152-3.476,2.967l-8.174,6.973L2.067,39.975H2.035v0.027L2.024,40.01h0.011v53.794h93.193V40.01H95.248z"/>
	<path clip-path="url(#SVGID_2_)" fill="#282D33" d="M95.229,95.804H2.035c-1.104,0-2-0.896-2-2V40.168
		C0,39.734,0.107,39.302,0.336,38.94c0.151-0.247,0.354-0.46,0.593-0.622l19.625-16.741c0.96-0.815,2.216-1.889,3.474-2.964
		L43.859,1.701C45.145,0.605,46.842,0,48.636,0c1.794,0,3.49,0.604,4.778,1.7l20.207,17.234c1.129,0.965,2.231,1.907,3.095,2.639
		l19.682,16.791c0.37,0.267,0.646,0.658,0.766,1.11c0.064,0.23,0.087,0.473,0.065,0.713v53.617
		C97.229,94.908,96.333,95.804,95.229,95.804 M4.035,91.804h89.193V40.917L74.126,24.62c-0.861-0.729-1.97-1.676-3.104-2.645
		L50.819,4.744C49.71,3.8,47.564,3.797,46.455,4.745l-19.829,16.91c-1.259,1.076-2.52,2.153-3.48,2.967L4.035,40.925V91.804z"/>
	<rect x="10.235" y="10.104" clip-path="url(#SVGID_2_)" fill="#FFFFFF" width="76.801" height="71.176"/>
	<path clip-path="url(#SVGID_2_)" fill="#282D33" d="M89.036,83.28H8.235V8.104h80.801V83.28z M12.235,79.28h72.801V12.104H12.235
		V79.28z"/>
	<rect x="16.463" y="16.331" clip-path="url(#SVGID_2_)" fill="#5EB4E7" width="64.348" height="58.723"/>
	<path clip-path="url(#SVGID_2_)" fill="#F8C44F" d="M95.149,41.116l-11.591,9.886l-8.174,6.973
		c-0.959,0.814-2.217,1.89-3.479,2.966l-8.139,6.944H33.433l-8.14-6.944c-1.26-1.076-2.518-2.151-3.478-2.966l-8.172-6.973
		L2.05,41.116H2V94.84h93.273V41.116H95.149z"/>
	<path clip-path="url(#SVGID_2_)" fill="#282D33" d="M97.273,96.84H0V39.116h2.737l0.612,0.478l19.763,16.859
		c0.958,0.813,2.218,1.89,3.479,2.967l7.579,6.465h28.86l31.383-26.769h2.86V96.84z M4,92.84h89.273V45.345l-28.769,24.54h-31.81
		l-8.701-7.423c-1.259-1.075-2.515-2.148-3.474-2.962L4,45.406V92.84z"/>
	<path clip-path="url(#SVGID_2_)" fill="#F8C44F" d="M2.813,94.051l10.83-9.229l8.172-7.028c0.96-0.822,2.218-1.907,3.477-2.99
		l8.096-6.958"/>
	<polygon clip-path="url(#SVGID_2_)" fill="#282D33" points="4.109,95.573 1.516,92.528 12.345,83.301 32.084,66.329 34.691,69.362 
		14.946,86.339 	"/>
	<path clip-path="url(#SVGID_2_)" fill="#F8C44F" d="M63.813,67.846l8.094,6.958c1.26,1.083,2.52,2.168,3.479,2.99l8.174,7.03
		L95.213,94.84"/>
	
		<rect x="58.808" y="79.343" transform="matrix(0.7583 0.6519 -0.6519 0.7583 72.2448 -32.1742)" clip-path="url(#SVGID_2_)" fill="#282D33" width="41.409" height="4"/>
	<path clip-path="url(#SVGID_2_)" fill="#FFFFFF" d="M49.013,58.583c-9.299,0-16.865-7.565-16.865-16.864
		c0-9.299,7.566-16.865,16.865-16.865c5.072,0,9.828,2.252,13.048,6.18l-3.094,2.536c-2.457-2.998-6.085-4.716-9.954-4.716
		c-7.094,0-12.865,5.771-12.865,12.865c0,7.093,5.771,12.864,12.865,12.864c2.824,0,5.505-0.898,7.753-2.599l2.413,3.189
		C56.23,57.404,52.716,58.583,49.013,58.583"/>
	<path clip-path="url(#SVGID_2_)" fill="#FFFFFF" d="M46.328,50.313L46.328,50.313c-0.697,0-1.431-0.109-2.181-0.325
		c-2.294-0.659-4.03-2.563-4.641-5.093c-0.809-3.344,0.411-7.04,3.182-9.642c1.922-1.806,4.696-2.76,8.023-2.76
		c1.92,0,3.371,0.325,3.433,0.34l2.095,0.476l-0.627,2.056c-0.109,0.36-2.693,8.838-3.159,10.172
		C51.412,48.526,49.123,50.313,46.328,50.313 M50.711,36.493c-1.598,0-3.811,0.29-5.284,1.675c-2.063,1.937-2.403,4.26-2.033,5.787
		c0.16,0.664,0.615,1.832,1.858,2.188c0.392,0.113,0.753,0.17,1.076,0.17c1.338,0,2.015-1.137,2.347-2.091
		c0.276-0.792,1.464-4.641,2.408-7.725C50.962,36.494,50.838,36.493,50.711,36.493"/>
	<path clip-path="url(#SVGID_2_)" fill="#FFFFFF" d="M55.271,50.168c-1.555,0-2.998-0.539-4.148-1.585
		c-1.246-1.134-2.216-4.282,0.226-12.849l3.847,1.096c-1.064,3.742-1.64,7.813-1.268,8.891c0.639,0.506,1.474,0.588,2.484,0.24
		c1.905-0.654,4.1-2.858,4.608-5.805c0.532-3.08-0.911-6.084-4.175-8.684l2.494-3.129c5.951,4.745,6.077,9.865,5.622,12.495
		c-0.693,4.016-3.675,7.678-7.249,8.906C56.885,50.028,56.063,50.168,55.271,50.168"/>
</g>
</svg>
