<?xml version="1.0" encoding="utf-8"?>
<!-- Generator: Adobe Illustrator 16.0.0, SVG Export Plug-In . SVG Version: 6.00 Build 0)  -->
<!DOCTYPE svg PUBLIC "-//W3C//DTD SVG 1.1//EN" "http://www.w3.org/Graphics/SVG/1.1/DTD/svg11.dtd">
<svg version="1.1" id="Camada_1" xmlns="http://www.w3.org/2000/svg" xmlns:xlink="http://www.w3.org/1999/xlink" x="0px" y="0px"
	 width="99.02px" height="99.021px" viewBox="0 0 99.02 99.021" enable-background="new 0 0 99.02 99.021" xml:space="preserve">
<g>
	<g>
		<defs>
			<rect id="SVGID_1_" x="0" y="9.889" width="99.02" height="77.021"/>
		</defs>
		<clipPath id="SVGID_2_">
			<use xlink:href="#SVGID_1_"  overflow="visible"/>
		</clipPath>
		<path clip-path="url(#SVGID_2_)" fill="#F8C44F" d="M56.375,21.689v-5.348c0-2.716,2.201-4.916,4.918-4.916
			c2.716,0,4.916,2.2,4.916,4.916v5.348H56.375z"/>
	</g>
	<g>
		<defs>
			<rect id="SVGID_3_" x="0" y="9.889" width="99.02" height="77.021"/>
		</defs>
		<clipPath id="SVGID_4_">
			<use xlink:href="#SVGID_3_"  overflow="visible"/>
		</clipPath>
		<path clip-path="url(#SVGID_4_)" fill="#F8C44F" d="M67.744,23.224H54.84v-6.883c0-3.557,2.895-6.451,6.453-6.451
			c3.557,0,6.451,2.894,6.451,6.451V23.224z M57.911,20.154h6.764v-3.813c0-1.864-1.519-3.38-3.382-3.38s-3.381,1.516-3.381,3.38
			L57.911,20.154L57.911,20.154z"/>
	</g>
	<g>
		<defs>
			<rect id="SVGID_5_" x="0" y="9.889" width="99.02" height="77.021"/>
		</defs>
		<clipPath id="SVGID_6_">
			<use xlink:href="#SVGID_5_"  overflow="visible"/>
		</clipPath>
		<path clip-path="url(#SVGID_6_)" fill="#FFFFFF" d="M56.375,16.341v54.973h-0.015l0.015,0.821c0,2.523-1.912,4.598-4.358,4.881
			c-1.339,0-43.58-0.009-45.767,0c2.447-0.283,4.346-2.357,4.346-4.881v-1.121h0.019V16.341c0-2.523,1.896-4.598,4.344-4.88
			c1.337,0,43.578,0.009,45.764,0C58.277,11.743,56.375,13.818,56.375,16.341"/>
	</g>
	<g>
		<defs>
			<rect id="SVGID_7_" x="0" y="9.889" width="99.02" height="77.021"/>
		</defs>
		<clipPath id="SVGID_8_">
			<use xlink:href="#SVGID_7_"  overflow="visible"/>
		</clipPath>
		<path clip-path="url(#SVGID_8_)" fill="#282D33" d="M52.106,78.552L18.79,78.547c-6.629,0-11.805,0.002-12.533,0.005l-0.183-3.06
			c1.703-0.197,2.987-1.641,2.987-3.357L9.08,16.341c0-3.277,2.452-6.031,5.703-6.406l0.176-0.01l33.225,0.004
			c6.629,0,11.803-0.001,12.532-0.004l0.183,3.061c-1.703,0.196-2.987,1.639-2.987,3.355v56.508h-0.043
			c-0.336,2.964-2.664,5.344-5.675,5.692L52.106,78.552z M18.79,75.477l33.13,0.004c1.671-0.233,2.922-1.657,2.922-3.347
			l-0.045-2.355h0.045V16.341c0-1.218,0.338-2.364,0.931-3.343c-2.089,0.001-4.7,0.001-7.589,0.001l-33.129-0.004
			c-1.662,0.232-2.905,1.656-2.905,3.346v56.21h-0.032c-0.067,1.063-0.394,2.062-0.92,2.928
			C13.29,75.477,15.901,75.477,18.79,75.477"/>
	</g>
	<g>
		<defs>
			<rect id="SVGID_9_" x="0" y="9.889" width="99.02" height="77.021"/>
		</defs>
		<clipPath id="SVGID_10_">
			<use xlink:href="#SVGID_9_"  overflow="visible"/>
		</clipPath>
		<path clip-path="url(#SVGID_10_)" fill="#F8C44F" d="M47.299,69.665v2.471c0,2.522,1.898,4.598,4.345,4.881
			c-2.184-0.009-44.426,0-45.764,0c-2.447-0.283-4.344-2.358-4.344-4.881v-2.471H47.299z"/>
	</g>
	<g>
		<defs>
			<rect id="SVGID_11_" x="0" y="9.889" width="99.02" height="77.021"/>
		</defs>
		<clipPath id="SVGID_12_">
			<use xlink:href="#SVGID_11_"  overflow="visible"/>
		</clipPath>
		<path clip-path="url(#SVGID_12_)" fill="#F8C44F" d="M5.88,78.552l-0.176-0.011C2.452,78.165,0,75.411,0,72.135V68.13h48.833
			v4.006c0,1.716,1.284,3.159,2.987,3.356l-0.182,3.06c-0.729-0.003-5.905-0.005-12.534-0.005L5.88,78.552z M3.071,71.2v0.936
			c0,1.689,1.244,3.113,2.906,3.346l33.128-0.004c2.888,0,5.5,0,7.591,0.001c-0.593-0.978-0.933-2.125-0.933-3.343V71.2H3.071z"/>
	</g>
	<g>
		<defs>
			<rect id="SVGID_13_" x="0" y="9.889" width="99.02" height="77.021"/>
		</defs>
		<clipPath id="SVGID_14_">
			<use xlink:href="#SVGID_13_"  overflow="visible"/>
		</clipPath>
		<path clip-path="url(#SVGID_14_)" fill="#282D33" d="M67.744,23.218h-3.069v-6.877c0-1.864-1.519-3.38-3.382-3.38
			c-1.864,0-3.382,1.516-3.382,3.38H54.84c0-3.557,2.895-6.451,6.453-6.451c3.557,0,6.451,2.894,6.451,6.451V23.218z"/>
	</g>
	<g>
		<defs>
			<rect id="SVGID_15_" x="0" y="9.889" width="99.02" height="77.021"/>
		</defs>
		<clipPath id="SVGID_16_">
			<use xlink:href="#SVGID_15_"  overflow="visible"/>
		</clipPath>
		<path clip-path="url(#SVGID_16_)" fill="#282D33" d="M51.926,78.552c-3.282,0-6.163-2.998-6.163-6.416v-3.979h3.07v3.979
			c0,1.689,1.532,3.346,3.092,3.346V78.552z"/>
	</g>
	<g>
		<defs>
			<rect id="SVGID_17_" x="0" y="9.889" width="99.02" height="77.021"/>
		</defs>
		<clipPath id="SVGID_18_">
			<use xlink:href="#SVGID_17_"  overflow="visible"/>
		</clipPath>
		<rect x="25.156" y="20.185" clip-path="url(#SVGID_18_)" fill="#282D33" width="24.937" height="3.07"/>
	</g>
	<g>
		<defs>
			<rect id="SVGID_19_" x="0" y="9.889" width="99.02" height="77.021"/>
		</defs>
		<clipPath id="SVGID_20_">
			<use xlink:href="#SVGID_19_"  overflow="visible"/>
		</clipPath>
		<rect x="25.156" y="25.89" clip-path="url(#SVGID_20_)" fill="#282D33" width="10.16" height="3.07"/>
	</g>
	<g>
		<defs>
			<rect id="SVGID_21_" x="0" y="9.889" width="99.02" height="77.021"/>
		</defs>
		<clipPath id="SVGID_22_">
			<use xlink:href="#SVGID_21_"  overflow="visible"/>
		</clipPath>
		<rect x="16.585" y="20.204" clip-path="url(#SVGID_22_)" fill="#5EB4E7" width="5.533" height="5.533"/>
	</g>
	<g>
		<defs>
			<rect id="SVGID_23_" x="0" y="9.889" width="99.02" height="77.021"/>
		</defs>
		<clipPath id="SVGID_24_">
			<use xlink:href="#SVGID_23_"  overflow="visible"/>
		</clipPath>
		<rect x="25.155" y="35.681" clip-path="url(#SVGID_24_)" fill="#282D33" width="25.209" height="3.07"/>
	</g>
	<g>
		<defs>
			<rect id="SVGID_25_" x="0" y="9.889" width="99.02" height="77.021"/>
		</defs>
		<clipPath id="SVGID_26_">
			<use xlink:href="#SVGID_25_"  overflow="visible"/>
		</clipPath>
		<rect x="16.585" y="35.7" clip-path="url(#SVGID_26_)" fill="#5EB4E7" width="5.533" height="5.533"/>
	</g>
	<g>
		<defs>
			<rect id="SVGID_27_" x="0" y="9.889" width="99.02" height="77.021"/>
		</defs>
		<clipPath id="SVGID_28_">
			<use xlink:href="#SVGID_27_"  overflow="visible"/>
		</clipPath>
		<rect x="16.585" y="51.052" clip-path="url(#SVGID_28_)" fill="#5EB4E7" width="5.533" height="5.533"/>
	</g>
	<g>
		<defs>
			<rect id="SVGID_29_" x="0" y="9.889" width="99.02" height="77.021"/>
		</defs>
		<clipPath id="SVGID_30_">
			<use xlink:href="#SVGID_29_"  overflow="visible"/>
		</clipPath>
		<rect x="23.17" y="37.216" clip-path="url(#SVGID_30_)" fill="#FFFFFF" width="39.129" height="41.336"/>
	</g>
	<g>
		<defs>
			<rect id="SVGID_31_" x="0" y="9.889" width="99.02" height="77.021"/>
		</defs>
		<clipPath id="SVGID_32_">
			<use xlink:href="#SVGID_31_"  overflow="visible"/>
		</clipPath>
		<rect x="29.311" y="41.842" clip-path="url(#SVGID_32_)" fill="#5EB4E7" width="54.131" height="33.059"/>
	</g>
	<g>
		<defs>
			<rect id="SVGID_33_" x="0" y="9.889" width="99.02" height="77.021"/>
		</defs>
		<clipPath id="SVGID_34_">
			<use xlink:href="#SVGID_33_"  overflow="visible"/>
		</clipPath>
		<path clip-path="url(#SVGID_34_)" fill="#FFFFFF" d="M15.269,79.367v3.886c0,0,2.842,2.123,4.931,2.123h26.156h20.042h26.155
			c2.089,0,4.931-2.123,4.931-2.123v-3.886H15.269z"/>
	</g>
	<g>
		<defs>
			<rect id="SVGID_35_" x="0" y="9.889" width="99.02" height="77.021"/>
		</defs>
		<clipPath id="SVGID_36_">
			<use xlink:href="#SVGID_35_"  overflow="visible"/>
		</clipPath>
		<path clip-path="url(#SVGID_36_)" fill="#282D33" d="M92.553,86.909H20.199c-2.525,0-5.518-2.178-5.85-2.427l-0.617-0.46v-6.189
			h85.286v6.189l-0.616,0.46C98.071,84.731,95.079,86.909,92.553,86.909 M16.803,82.447c1.017,0.652,2.467,1.391,3.396,1.391h72.354
			c0.95,0,2.433-0.778,3.395-1.394v-1.542H16.803V82.447z"/>
	</g>
	<g>
		<defs>
			<rect id="SVGID_37_" x="0" y="9.889" width="99.02" height="77.021"/>
		</defs>
		<clipPath id="SVGID_38_">
			<use xlink:href="#SVGID_37_"  overflow="visible"/>
		</clipPath>
		<path clip-path="url(#SVGID_38_)" fill="#FFFFFF" d="M36.905,63.784h6.727H69.12h6.728c1.558,2.901,4.618,4.877,8.141,4.877
			c3.713,0,6.904-2.197,8.369-5.356h-7.864l-2.239-3.877l2.239-3.877h7.864c-1.465-3.16-4.656-5.357-8.369-5.357
			c-3.523,0-6.583,1.975-8.141,4.877l-6.728-0.001L43.632,55.07h-6.727c-1.557-2.901-4.618-4.877-8.14-4.877
			c-3.712,0-6.906,2.196-8.372,5.357h7.866l2.237,3.877l-2.237,3.877h-7.866c1.465,3.159,4.659,5.356,8.371,5.356
			C32.288,68.661,35.348,66.685,36.905,63.784"/>
	</g>
	<g>
		<defs>
			<rect id="SVGID_39_" x="0" y="9.889" width="99.02" height="77.021"/>
		</defs>
		<clipPath id="SVGID_40_">
			<use xlink:href="#SVGID_39_"  overflow="visible"/>
		</clipPath>
		<path clip-path="url(#SVGID_40_)" fill="#282D33" d="M83.989,70.196c-3.658,0-7.032-1.847-9.013-4.877H37.778
			c-1.981,3.03-5.355,4.877-9.013,4.877c-4.172,0-8.003-2.451-9.764-6.246l-1.012-2.181h9.383l1.352-2.342l-1.352-2.343H17.99
			l1.011-2.182c1.76-3.793,5.592-6.245,9.764-6.245c3.657,0,7.031,1.847,9.013,4.876h37.198c1.98-3.028,5.354-4.876,9.013-4.876
			c4.171,0,8.002,2.451,9.763,6.245l1.013,2.182h-9.383l-1.354,2.343l1.354,2.342h9.383l-1.013,2.181
			C91.99,67.745,88.159,70.196,83.989,70.196 M35.987,62.248h40.78l0.433,0.811c1.348,2.509,3.949,4.067,6.789,4.067
			c2.075,0,4.035-0.852,5.46-2.287h-5.841l-3.126-5.411l3.126-5.413h5.841c-1.425-1.435-3.385-2.286-5.46-2.286
			c-2.84,0-5.441,1.558-6.789,4.067l-0.433,0.81h-40.78l-0.435-0.81c-1.345-2.51-3.947-4.067-6.787-4.067
			c-2.077,0-4.037,0.85-5.46,2.286h5.841l3.124,5.413l-3.124,5.411h-5.841c1.423,1.436,3.383,2.287,5.459,2.287
			c2.841,0,5.442-1.559,6.788-4.067L35.987,62.248z"/>
	</g>
	<g>
		<defs>
			<rect id="SVGID_41_" x="0" y="9.889" width="99.02" height="77.021"/>
		</defs>
		<clipPath id="SVGID_42_">
			<use xlink:href="#SVGID_41_"  overflow="visible"/>
		</clipPath>
		<path clip-path="url(#SVGID_42_)" fill="#282D33" d="M89.582,46.497h-3.069V39.4c0-0.346-0.282-0.629-0.63-0.629H26.868
			c-0.346,0-0.628,0.283-0.628,0.629v7.097H23.17V39.4c0-2.04,1.66-3.699,3.699-3.699h59.015c2.039,0,3.699,1.659,3.699,3.699
			V46.497z"/>
	</g>
	<g>
		<defs>
			<rect id="SVGID_43_" x="0" y="9.889" width="99.02" height="77.021"/>
		</defs>
		<clipPath id="SVGID_44_">
			<use xlink:href="#SVGID_43_"  overflow="visible"/>
		</clipPath>
		<rect x="86.513" y="72.021" clip-path="url(#SVGID_44_)" fill="#282D33" width="3.069" height="7.545"/>
	</g>
	<g>
		<defs>
			<rect id="SVGID_45_" x="0" y="9.889" width="99.02" height="77.021"/>
		</defs>
		<clipPath id="SVGID_46_">
			<use xlink:href="#SVGID_45_"  overflow="visible"/>
		</clipPath>
		<rect x="23.17" y="72.021" clip-path="url(#SVGID_46_)" fill="#282D33" width="3.071" height="7.545"/>
	</g>
</g>
</svg>
