<?xml version="1.0" encoding="utf-8"?>
<!-- Generator: Adobe Illustrator 16.0.0, SVG Export Plug-In . SVG Version: 6.00 Build 0)  -->
<!DOCTYPE svg PUBLIC "-//W3C//DTD SVG 1.1//EN" "http://www.w3.org/Graphics/SVG/1.1/DTD/svg11.dtd">
<svg version="1.1" id="Camada_1" xmlns="http://www.w3.org/2000/svg" xmlns:xlink="http://www.w3.org/1999/xlink" x="0px" y="0px"
	 width="102.5px" height="100.508px" viewBox="0 0 102.5 100.508" enable-background="new 0 0 102.5 100.508" xml:space="preserve">
<g>
	<defs>
		<rect id="SVGID_1_" width="102.5" height="98.389"/>
	</defs>
	<clipPath id="SVGID_2_">
		<use xlink:href="#SVGID_1_"  overflow="visible"/>
	</clipPath>
	<path clip-path="url(#SVGID_2_)" fill="#FFFFFF" d="M92.881,1.857H14.866c-7.114,0-12.88,5.767-12.88,12.879v81.795h78.016V46.554"
		/>
	<path clip-path="url(#SVGID_2_)" fill="#FFFFFF" d="M87.809,51.706h12.963V14.737c0-7.113-0.776-12.879-7.89-12.879
		s-12.88,5.766-12.88,12.879v36.968"/>
	<rect x="10.896" y="28.831" clip-path="url(#SVGID_2_)" fill="#7DB1E3" width="30.165" height="23.703"/>
	<rect x="41.799" y="70.334" clip-path="url(#SVGID_2_)" fill="#E9C259" width="30.164" height="17.801"/>
	<path clip-path="url(#SVGID_2_)" fill="#3F4862" d="M92.752,0H14.736C6.611,0,0,6.611,0,14.737v67.898
		c0,1.025,0.832,1.855,1.857,1.855s1.857-0.83,1.857-1.855V14.737c0-6.078,4.944-11.022,11.021-11.022h68.248
		c-3.045,2.701-4.969,6.64-4.969,11.021v79.938H3.715v-5.848c0-1.027-0.832-1.857-1.857-1.857S0,87.799,0,88.827v7.705
		c0,1.025,0.832,1.857,1.857,1.857h78.016c1.026,0,1.857-0.832,1.857-1.857V14.737c0-6.078,4.944-11.022,11.021-11.022
		c6.078,0,6.033,4.944,6.033,11.022V49.85H87.681c-1.027,0-1.857,0.831-1.857,1.856c0,1.027,0.83,1.859,1.857,1.859h12.962
		c1.025,0,1.857-0.832,1.857-1.859V14.737C102.5,6.611,100.879,0,92.752,0"/>
	<path clip-path="url(#SVGID_2_)" fill="#D8DEE8" d="M49.423,36.588h22.413c1.025,0,1.857-0.831,1.857-1.857
		c0-1.026-0.832-1.857-1.857-1.857H49.423c-1.026,0-1.858,0.832-1.858,1.857C47.565,35.757,48.397,36.588,49.423,36.588"/>
	<path clip-path="url(#SVGID_2_)" fill="#D8DEE8" d="M49.423,54.389h22.413c1.025,0,1.857-0.832,1.857-1.857
		s-0.832-1.857-1.857-1.857H49.423c-1.026,0-1.858,0.832-1.858,1.857S48.397,54.389,49.423,54.389"/>
	<path clip-path="url(#SVGID_2_)" fill="#D8DEE8" d="M71.836,41.774h-5.585c-1.025,0-1.856,0.832-1.856,1.857
		c0,1.025,0.831,1.858,1.856,1.858h5.585c1.025,0,1.857-0.833,1.857-1.858C73.693,42.605,72.861,41.774,71.836,41.774"/>
	<path clip-path="url(#SVGID_2_)" fill="#D8DEE8" d="M49.423,45.489h10.637c1.025,0,1.857-0.832,1.857-1.857
		c0-1.026-0.832-1.857-1.857-1.857H49.423c-1.026,0-1.858,0.832-1.858,1.857C47.565,44.657,48.397,45.489,49.423,45.489"/>
	<path clip-path="url(#SVGID_2_)" fill="#D8DEE8" d="M10.767,63.292h9.914c1.027,0,1.857-0.832,1.857-1.857
		c0-1.027-0.831-1.857-1.857-1.857h-9.914c-1.025,0-1.856,0.83-1.856,1.857C8.911,62.459,9.742,63.292,10.767,63.292"/>
	<path clip-path="url(#SVGID_2_)" fill="#D8DEE8" d="M24.768,61.434c0,1.025,0.832,1.857,1.857,1.857h45.211
		c1.025,0,1.857-0.832,1.857-1.857c0-1.027-0.832-1.857-1.857-1.857H26.625C25.599,59.577,24.768,60.407,24.768,61.434"/>
	<path clip-path="url(#SVGID_2_)" fill="#D8DEE8" d="M10.767,72.192h22.414c1.026,0,1.857-0.832,1.857-1.857
		s-0.832-1.857-1.857-1.857H10.767c-1.025,0-1.856,0.832-1.856,1.857S9.742,72.192,10.767,72.192"/>
	<path clip-path="url(#SVGID_2_)" fill="#D8DEE8" d="M10.767,89.995h12.39c1.027,0,1.858-0.832,1.858-1.857
		s-0.832-1.857-1.858-1.857h-12.39c-1.025,0-1.856,0.832-1.856,1.857S9.742,89.995,10.767,89.995"/>
	<path clip-path="url(#SVGID_2_)" fill="#D8DEE8" d="M33.181,86.28h-3.833c-1.026,0-1.857,0.832-1.857,1.857
		s0.832,1.855,1.857,1.855h3.833c1.026,0,1.857-0.83,1.857-1.855S34.207,86.28,33.181,86.28"/>
	<path clip-path="url(#SVGID_2_)" fill="#D8DEE8" d="M10.767,81.092h22.414c1.026,0,1.857-0.83,1.857-1.857
		c0-1.025-0.832-1.857-1.857-1.857H10.767c-1.025,0-1.856,0.832-1.856,1.857C8.911,80.262,9.742,81.092,10.767,81.092"/>
</g>
<g>
	<path fill="#3F4862" d="M31.635,18.218c-0.083-1.565-0.183-3.446-0.167-4.844h-0.05c-0.383,1.315-0.849,2.713-1.415,4.262
		l-1.981,5.444h-1.099l-1.814-5.344c-0.533-1.582-0.982-3.03-1.299-4.362h-0.033c-0.033,1.398-0.117,3.279-0.216,4.961l-0.3,4.811
		H21.88l0.783-11.22h1.848l1.915,5.427c0.466,1.382,0.849,2.614,1.132,3.779h0.05c0.283-1.132,0.683-2.364,1.182-3.779l1.998-5.427
		h1.848l0.699,11.22h-1.415L31.635,18.218z"/>
	<path fill="#3F4862" d="M35.563,12.076c0.882-0.133,1.931-0.233,3.08-0.233c2.081,0,3.563,0.483,4.545,1.398
		c0.999,0.916,1.582,2.214,1.582,4.029c0,1.831-0.566,3.33-1.615,4.361c-1.049,1.049-2.78,1.615-4.961,1.615
		c-1.032,0-1.898-0.05-2.63-0.133V12.076z M37.011,21.998c0.366,0.066,0.899,0.083,1.465,0.083c3.096,0,4.777-1.731,4.777-4.761
		c0.017-2.647-1.481-4.328-4.544-4.328c-0.749,0-1.315,0.066-1.698,0.15V21.998z"/>
	<path fill="#3F4862" d="M46.649,11.926h6.043v1.215h-4.595v3.729h4.246v1.198h-4.246v5.078h-1.448V11.926z"/>
	<path fill="#3F4862" d="M55.521,19.384c0.033,1.981,1.298,2.797,2.764,2.797c1.048,0,1.681-0.183,2.23-0.417l0.249,1.049
		c-0.516,0.233-1.397,0.5-2.68,0.5c-2.48,0-3.962-1.631-3.962-4.062s1.432-4.345,3.778-4.345c2.631,0,3.33,2.314,3.33,3.795
		c0,0.3-0.033,0.533-0.05,0.683H55.521z M59.816,18.335c0.017-0.932-0.383-2.381-2.031-2.381c-1.481,0-2.131,1.365-2.247,2.381
		H59.816z"/>
</g>
<rect y="79.356" fill="#3F4862" width="3.715" height="11.477"/>
</svg>
