<svg xmlns="http://www.w3.org/2000/svg" width="97.871" height="95.522" viewBox="0 0 97.871 95.522"><path fill="#FFF" d="M35.979 93.726l-3.547-3.547 1.773-4.575 1.774-17.433v-20.41l6.167-17.224 9.684-8.663 4.385-7.117-2.75-8.539v-3.75h20.25l1.625 1.625-1.625 7.875.506 6.789 9.852 9.852 8.642 15.837 1 11.058v30.1l2.556 2.557v3.565l-3.056 2z"/><path fill="#384663" d="M92.414 95.479H35.979a5.462 5.462 0 0 1-5.455-5.457v-.287c0-2.001 1.1-3.8 2.77-4.749V56.008a24.462 24.462 0 0 1-.096-2.478c-.004-12.851 8.653-30.791 21.279-37.234L51.428 5.248c-.268-.938-.104-1.934.467-2.789.724-1.086 2.014-1.813 3.539-1.993 1.1-.128 2.135.045 2.994.437.785-.541 1.775-.857 2.848-.896L61.51 0c1.008 0 1.935.252 2.693.683.76-.432 1.687-.681 2.695-.681l.215.004c1.077.044 2.066.361 2.848.896.862-.396 1.897-.57 3.004-.436 1.522.18 2.814.908 3.539 1.999.567.856.729 1.853.453 2.806l-3.037 11.02c12.622 6.439 21.279 24.383 21.277 37.27.01.744-.021 1.542-.094 2.411v29.015a5.475 5.475 0 0 1 2.768 4.749v.287a5.462 5.462 0 0 1-5.457 5.456zM55.393 4.575l3.389 12.286a1.999 1.999 0 0 1-1.15 2.375c-12.665 5.336-20.437 23.587-20.434 34.322-.01.709.02 1.414.088 2.182.006.061.008.119.008.18v30.427a2 2 0 0 1-1.604 1.96 1.46 1.46 0 0 0-1.166 1.429v.287c0 .804.653 1.457 1.455 1.457h56.436c.804 0 1.457-.653 1.457-1.457v-.287a1.46 1.46 0 0 0-1.162-1.429 2 2 0 0 1-1.605-1.96v-30.46c0-.058.003-.115.008-.172a21.45 21.45 0 0 0 .086-2.131c.002-10.767-7.77-29.021-20.43-34.352a1.998 1.998 0 0 1-1.152-2.374L73 4.575a1.698 1.698 0 0 0-.512-.137c-.471-.057-.791.057-.924.13-.259.961-1.189 1.618-2.203 1.474a1.99 1.99 0 0 1-1.73-1.88 1.614 1.614 0 0 0-.67-.16c-.418.003-.666.09-.792.156a2.012 2.012 0 0 1-1.974 1.688h-.003a1.989 1.989 0 0 1-1.976-1.695A1.521 1.521 0 0 0 61.51 4c-.386.014-.626.097-.753.163a2.014 2.014 0 0 1-1.729 1.879 1.988 1.988 0 0 1-2.201-1.474c-.139-.073-.486-.183-.923-.13a1.673 1.673 0 0 0-.511.137z"/><path fill="#384663" d="M74.221 18.757H53.83a2 2 0 0 1 0-4h20.391a2 2 0 0 1 0 4z"/><path fill="#5EB4E7" d="M64.207 67.131c-9.242 0-16.729-7.486-16.729-16.721 0-9.229 7.486-16.71 16.729-16.71 9.236 0 16.709 7.481 16.709 16.71 0 9.235-7.473 16.721-16.709 16.721z"/><path fill="#384663" d="M65.943 52.867l-5.803-2.264c-2.436-1.549-2.947-3.287-2.947-4.473V43.7c0-3.073 2.5-5.572 5.57-5.572h2.869A5.576 5.576 0 0 1 71.2 43.7v1.136h-4V43.7c0-.867-.703-1.572-1.568-1.572h-2.869c-.865 0-1.57.705-1.57 1.572v2.431c0 .105.174.477.936.993l5.244 2.008-1.43 3.735z"/><path fill="#384663" d="M65.633 62.033h-2.869a5.576 5.576 0 0 1-5.57-5.569v-1.138h4v1.138c0 .865.705 1.569 1.57 1.569h2.869a1.57 1.57 0 0 0 1.568-1.569V54.03c0-.079-.182-.5-.996-1.053l-4.998-1.923 1.438-3.734 5.549 2.179c2.486 1.579 3.008 3.335 3.008 4.531v2.434a5.576 5.576 0 0 1-5.569 5.569zM64.414 35.239v5.334m-2-5.334h4v5.334h-4z"/><path d="M64.414 59.171v5.334m-2-5.334h4v5.334h-4zM16.887 51.504H30v4H16.887zm0 7.334H30v4H16.887zm0 7.333H30v4H16.887zm0 7.334H30v4H16.887zm0 7.333H30v4H16.887zM0 66.171h13.113v4H0zm0 7.334h13.113v4H0zm0 7.333h13.113v4H0z" fill="#384663"/><circle fill="#F8C44F" cx="16.204" cy="85.604" r="9.919"/><path fill="#384663" d="M14.205 81.028h4v9.15h-4z"/></svg>