<svg xmlns="http://www.w3.org/2000/svg" width="98.343" height="104.023" viewBox="0 0 98.343 104.023"><path fill="#FFF" d="M2.007 78.663v7.958c0 1.525 1.562 3.226 3.086 3.226h88.842c1.525 0 2.438-1.568 2.438-3.095v-8.089H2.007z"/><path fill="#384663" d="M93.935 91.847H5.093c-2.614 0-5.086-2.54-5.086-5.226v-9.958h98.365v10.089c0 2.504-1.66 5.095-4.437 5.095zM4.007 80.663v5.958c0 .481.722 1.226 1.086 1.226h88.842c.127 0 .438-.474.438-1.095v-6.089H4.007z"/><g fill="#384663"><path d="M38.693 89.909c-.163 1.979.189 6.379-.237 8.529-.39 1.968-.662 2.034-1.707 2.614-.589.323-1.584.774-2.418 1.135"/><path d="M35.124 104.023l-1.586-3.672c.992-.429 1.812-.812 2.249-1.053l.135-.074c.125-.068.233-.122.325-.18.043-.114.126-.382.247-.995.219-1.102.19-3.236.167-4.951-.017-1.276-.033-2.482.039-3.354l3.986.328c-.056.681-.041 1.793-.025 2.973.028 2.098.057 4.269-.243 5.782-.473 2.387-1.056 3.068-2.565 3.9l-.133.074c-.75.413-1.948.943-2.596 1.222z"/></g><g fill="#384663"><path d="M63.947 102.201c-.839-.365-1.851-.823-2.446-1.148-1.042-.58-1.248-.646-1.637-2.614-.426-2.15-.076-6.442-.237-8.421"/><path d="M63.148 104.035c-.809-.352-1.918-.851-2.605-1.227l-.095-.052c-1.635-.908-2.087-1.606-2.546-3.93-.3-1.514-.271-3.651-.243-5.718.015-1.156.029-2.249-.025-2.928l3.986-.324c.071.868.055 2.052.038 3.306-.022 1.686-.051 3.785.168 4.888.122.62.202.904.246 1.032.09.056.195.109.318.177.505.276 1.316.657 2.355 1.109l-1.597 3.667z"/></g><path d="M31.741 102.028h34.906m-34.906-2h34.906v4H31.741z" fill="#384663"/><path fill="#FFF" d="M13.858 20.948H4.583A2.586 2.586 0 0 0 2 23.532v55.187h94.343V23.532a2.588 2.588 0 0 0-2.585-2.584h-9.244"/><path fill="#384663" d="M98.343 80.719H0V23.532a4.588 4.588 0 0 1 4.583-4.584h9.275v4H4.583a.584.584 0 0 0-.583.584v53.187h90.343V23.532a.586.586 0 0 0-.585-.584h-9.244v-4h9.244a4.59 4.59 0 0 1 4.585 4.584v57.187z"/><path d="M9.378 28.444h11.73v42.72H9.378zm67.886 0h11.604v42.72H77.264z" fill="#F8C44F"/><path fill="#384663" d="M76.451 19.282h4v51.882h-4zM22.039 71.164h-4V0h44.135v4H22.039z"/><path fill="#5EB4E7" d="M64.918 15.537h15.416L64.918.118z"/><path fill="#384663" d="M39.344 18.955h28.047v4H39.344zm0 6.255h28.047v4H39.344zm-8.215 3.633l-4.375-2.822 2.168-3.362 1.336.862 3.212-4.026 3.127 2.495zm8.215 8.767h28.047v4H39.344zm0 6.256h28.047v4H39.344zm-8.215 3.633l-4.376-2.823 2.17-3.362 1.335.863 3.212-4.027 3.127 2.495zm8.215 8.767h28.047v4H39.344zm0 6.255h28.047v4H39.344zm-8.215 3.633l-4.376-2.823 2.17-3.361 1.335.862 3.212-4.026 3.127 2.494z"/></svg>