<?xml version="1.0" encoding="utf-8"?>
<!-- Generator: Adobe Illustrator 16.0.0, SVG Export Plug-In . SVG Version: 6.00 Build 0)  -->
<!DOCTYPE svg PUBLIC "-//W3C//DTD SVG 1.1//EN" "http://www.w3.org/Graphics/SVG/1.1/DTD/svg11.dtd">
<svg version="1.1" id="Layer_4" xmlns="http://www.w3.org/2000/svg" xmlns:xlink="http://www.w3.org/1999/xlink" x="0px" y="0px"
	 width="113.959px" height="99.589px" viewBox="-15.708 0 113.959 99.589" enable-background="new -15.708 0 113.959 99.589"
	 xml:space="preserve">
<g>
	<path fill="#F8C44F" d="M81.921,16.958V9.164C81.921,5.205,85.127,2,89.087,2c3.958,0,7.165,3.205,7.165,7.164v7.794H81.921z"/>
	<path fill="#F8C44F" d="M98.252,18.958H79.921V9.164C79.921,4.111,84.033,0,89.087,0c5.055,0,9.165,4.111,9.165,9.164V18.958z
		 M83.921,14.958h10.331V9.164C94.252,6.316,91.937,4,89.087,4s-5.166,2.316-5.166,5.164V14.958z"/>
</g>
<path fill="#FFFFFF" d="M81.921,9.164v80.114h-0.021l0.021,1.198c0,3.676-2.788,6.699-6.354,7.111c-1.95,0-63.51-0.012-66.696,0
	c3.566-0.412,6.334-3.437,6.334-7.111v-1.635h0.026V9.164c0-3.678,2.765-6.701,6.33-7.113c1.949,0,63.508,0.015,66.693,0
	C84.69,2.463,81.921,5.486,81.921,9.164z"/>
<path fill="#384663" d="M75.685,99.589l-48.539-0.006c-9.661,0-17.204,0.002-18.267,0.006l-0.238-3.986
	c2.603-0.303,4.564-2.505,4.564-5.126l0.026-81.313c0-4.654,3.482-8.566,8.101-9.1l0.229-0.014l48.42,0.007
	c9.66,0,17.203-0.001,18.265-0.007l0.237,3.987c-2.602,0.3-4.563,2.504-4.563,5.126v82.114h-0.038
	c-0.387,4.309-3.731,7.793-8.084,8.299L75.685,99.589z M27.146,95.583l48.298,0.006c2.561-0.35,4.478-2.528,4.478-5.112
	l-0.058-3.198h0.058V9.164c0-1.882,0.569-3.643,1.554-5.107c-3.113,0.001-7.082,0.001-11.492,0.001L21.686,4.051
	c-2.547,0.348-4.454,2.526-4.454,5.113v81.679h-0.034c-0.068,1.744-0.627,3.371-1.547,4.74
	C18.765,95.583,22.734,95.583,27.146,95.583z"/>
<g>
	<path fill="#F8C44F" d="M68.692,86.875v3.603c0,3.676,2.768,6.698,6.332,7.112c-3.184-0.014-64.743,0-66.692,0
		C4.767,97.175,2,94.152,2,90.477v-3.603H68.692z"/>
	<path fill="#F8C44F" d="M8.332,99.589l-0.23-0.014C3.482,99.041,0,95.128,0,90.477v-5.603h70.692v5.603
		c0,2.621,1.961,4.823,4.563,5.126l-0.238,3.986c-1.061-0.004-8.604-0.006-18.265-0.006L8.332,99.589z M4,88.875v1.603
		c0,2.585,1.908,4.765,4.457,5.112l48.296-0.006c4.409,0,8.38,0,11.494,0c-0.984-1.465-1.555-3.227-1.555-5.106v-1.603H4z"/>
</g>
<g>
	<path fill="#384663" d="M98.252,19.187h-4V9.164C94.252,6.316,91.937,4,89.087,4s-5.166,2.316-5.166,5.164h-4
		C79.921,4.111,84.033,0,89.087,0c5.055,0,9.165,4.111,9.165,9.164V19.187z"/>
</g>
<g>
	<path fill="#384663" d="M75.438,99.589c-4.66,0-8.746-4.26-8.746-9.112v-5.802h4v5.802c0,2.58,2.351,5.112,4.746,5.112V99.589z"/>
</g>
<rect x="59.46" y="14.461" fill="#384663" width="4.666" height="13.667"/>
<rect x="54.46" y="19.187" fill="#384663" width="14" height="4.274"/>
<rect x="25.126" y="19.187" fill="#384663" width="14.333" height="4.274"/>
<rect x="52.46" y="36.461" fill="#384663" width="8.333" height="4.5"/>
<rect x="-15.708" y="36.461" fill="#384663" width="52.167" height="4.5"/>
<rect x="52.46" y="47.021" fill="#384663" width="8.333" height="4.5"/>
<rect x="-15.708" y="47.021" fill="#384663" width="62.667" height="4.5"/>
<rect x="52.46" y="56.855" fill="#384663" width="8.333" height="4.5"/>
<rect x="-15.708" y="56.855" fill="#384663" width="62.667" height="4.5"/>
<rect x="52.46" y="67.188" fill="#384663" width="8.333" height="4.5"/>
<rect x="-15.708" y="67.188" fill="#384663" width="62.667" height="4.5"/>
</svg>
