<?xml version="1.0" encoding="utf-8"?>
<!-- Generator: Adobe Illustrator 16.0.0, SVG Export Plug-In . SVG Version: 6.00 Build 0)  -->
<!DOCTYPE svg PUBLIC "-//W3C//DTD SVG 1.1//EN" "http://www.w3.org/Graphics/SVG/1.1/DTD/svg11.dtd">
<svg version="1.1" id="Layer_4" xmlns="http://www.w3.org/2000/svg" xmlns:xlink="http://www.w3.org/1999/xlink" x="0px" y="0px"
	 width="98.252px" height="99.589px" viewBox="0 0 98.252 99.589" enable-background="new 0 0 98.252 99.589" xml:space="preserve">
<g>
	<path fill="#F8C44F" d="M81.921,16.958V9.164C81.921,5.205,85.127,2,89.087,2c3.958,0,7.165,3.205,7.165,7.164v7.794H81.921z"/>
	<path fill="#F8C44F" d="M98.252,18.958H79.921V9.164C79.921,4.111,84.033,0,89.087,0s9.165,4.111,9.165,9.164V18.958z
		 M83.921,14.958h10.331V9.164C94.252,6.316,91.936,4,89.087,4s-5.166,2.316-5.166,5.164V14.958z"/>
</g>
<path fill="#FFFFFF" d="M81.921,9.164v80.114h-0.021l0.021,1.198c0,3.676-2.788,6.699-6.353,7.112c-1.951,0-63.511-0.013-66.697,0
	c3.566-0.413,6.334-3.437,6.334-7.112v-1.634h0.026V9.164c0-3.678,2.765-6.701,6.33-7.113c1.949,0,63.508,0.015,66.693,0
	C84.69,2.463,81.921,5.486,81.921,9.164z"/>
<path fill="#384663" d="M75.684,99.589l-48.538-0.006c-9.661,0-17.204,0.002-18.267,0.006l-0.238-3.986
	c2.603-0.302,4.564-2.505,4.564-5.126l0.026-81.313c0-4.654,3.482-8.566,8.101-9.1l0.229-0.014l48.42,0.007
	c9.661,0,17.203-0.001,18.265-0.007l0.238,3.987c-2.602,0.3-4.563,2.504-4.563,5.126v82.114h-0.038
	c-0.387,4.308-3.732,7.793-8.084,8.298L75.684,99.589z M27.146,95.583l48.298,0.006c2.561-0.349,4.478-2.528,4.478-5.112
	l-0.058-3.198h0.058V9.164c0-1.882,0.569-3.643,1.554-5.107c-3.113,0.001-7.083,0.001-11.493,0.001L21.686,4.051
	c-2.547,0.348-4.454,2.526-4.454,5.113v81.679h-0.034c-0.068,1.744-0.627,3.372-1.547,4.741
	C18.765,95.584,22.734,95.583,27.146,95.583z"/>
<g>
	<path fill="#F8C44F" d="M68.692,86.875v3.602c0,3.676,2.768,6.699,6.333,7.112c-3.184-0.013-64.744,0-66.693,0
		C4.767,97.176,2,94.152,2,90.477v-3.602H68.692z"/>
	<path fill="#F8C44F" d="M8.332,99.589l-0.23-0.013C3.482,99.04,0,95.128,0,90.477v-5.602h70.692v5.602
		c0,2.621,1.962,4.824,4.563,5.126l-0.238,3.986c-1.061-0.004-8.605-0.006-18.265-0.006L8.332,99.589z M4,88.875v1.602
		c0,2.585,1.908,4.765,4.457,5.112l48.296-0.006c4.409,0,8.38,0.001,11.494,0.001c-0.985-1.465-1.555-3.227-1.555-5.107v-1.602H4z"
		/>
</g>
<g>
	<path fill="#384663" d="M98.252,19.187h-4V9.164C94.252,6.316,91.936,4,89.087,4s-5.166,2.316-5.166,5.164h-4
		C79.921,4.111,84.033,0,89.087,0s9.165,4.111,9.165,9.164V19.187z"/>
</g>
<g>
	<path fill="#384663" d="M75.438,99.589c-4.659,0-8.746-4.259-8.746-9.112v-5.801h4v5.801c0,2.58,2.351,5.112,4.746,5.112V99.589z"
		/>
</g>
<g>
	<g>
		<rect x="34.254" y="14.506" fill="#5EB4E7" width="25.771" height="4"/>
	</g>
	<g>
		<rect x="25.437" y="24.558" fill="#384663" width="43.405" height="4"/>
	</g>
	<g>
		<rect x="25.437" y="34.448" fill="#384663" width="43.405" height="4"/>
	</g>
	<g>
		<rect x="25.437" y="44.34" fill="#384663" width="43.405" height="4"/>
	</g>
	<g>
		<rect x="25.437" y="54.231" fill="#384663" width="25.801" height="4"/>
	</g>
	<g>
		<rect x="25.437" y="64.121" fill="#5EB4E7" width="17.135" height="4"/>
	</g>
</g>
<g>
	<g>
		<path fill="#384663" d="M65.543,69.471l-4.355-1.711c-1.993-1.266-2.411-2.729-2.411-3.733v-1.785c0-2.55,2.073-4.623,4.622-4.623
			h2.106c2.548,0,4.621,2.073,4.621,4.623v0.835h-4v-0.835c0-0.344-0.278-0.623-0.621-0.623h-2.106
			c-0.343,0-0.622,0.279-0.622,0.623v1.685c0.046,0.06,0.158,0.185,0.404,0.356l3.792,1.452L65.543,69.471z"/>
	</g>
	<g>
		<path fill="#384663" d="M65.505,76.236h-2.106c-2.549,0-4.622-2.073-4.622-4.621v-0.836h4v0.836c0,0.342,0.279,0.621,0.622,0.621
			h2.106c0.343,0,0.621-0.279,0.621-0.621v-1.68c-0.056-0.077-0.192-0.225-0.452-0.408l-3.609-1.39l1.438-3.732l4.168,1.646
			c1.584,1.005,2.456,2.347,2.456,3.776v1.787C70.126,74.163,68.053,76.236,65.505,76.236z"/>
	</g>
	<g>
		<line fill="#384663" x1="64.61" y1="56.027" x2="64.61" y2="59.944"/>
		<rect x="62.61" y="56.027" fill="#384663" width="4" height="3.917"/>
	</g>
	<g>
		<line fill="#384663" x1="64.61" y1="73.604" x2="64.61" y2="77.521"/>
		<rect x="62.61" y="73.604" fill="#384663" width="4" height="3.917"/>
	</g>
</g>
</svg>
