<?xml version="1.0" encoding="utf-8"?>
<!-- Generator: Adobe Illustrator 16.0.0, SVG Export Plug-In . SVG Version: 6.00 Build 0)  -->
<!DOCTYPE svg PUBLIC "-//W3C//DTD SVG 1.1//EN" "http://www.w3.org/Graphics/SVG/1.1/DTD/svg11.dtd">
<svg version="1.1" id="Camada_1" xmlns="http://www.w3.org/2000/svg" xmlns:xlink="http://www.w3.org/1999/xlink" x="0px" y="0px"
	 width="102.5px" height="100.508px" viewBox="0 0 102.5 100.508" enable-background="new 0 0 102.5 100.508" xml:space="preserve">
<g>
	<defs>
		<rect id="SVGID_1_" width="102.5" height="98.389"/>
	</defs>
	<clipPath id="SVGID_2_">
		<use xlink:href="#SVGID_1_"  overflow="visible"/>
	</clipPath>
	<path clip-path="url(#SVGID_2_)" fill="#FFFFFF" d="M92.881,1.857H14.866c-7.114,0-12.88,5.767-12.88,12.879v81.795h78.016V46.554"
		/>
	<path clip-path="url(#SVGID_2_)" fill="#FFFFFF" d="M87.809,51.706h12.963V14.737c0-7.113-0.776-12.879-7.89-12.879
		s-12.88,5.766-12.88,12.879v36.968"/>
	<rect x="10.896" y="28.831" clip-path="url(#SVGID_2_)" fill="#7DB1E3" width="30.165" height="23.703"/>
	<rect x="41.799" y="70.334" clip-path="url(#SVGID_2_)" fill="#E9C259" width="30.164" height="17.801"/>
	<path clip-path="url(#SVGID_2_)" fill="#3F4862" d="M92.752,0H14.736C6.611,0,0,6.611,0,14.737v67.898
		c0,1.025,0.832,1.855,1.857,1.855s1.857-0.83,1.857-1.855V14.737c0-6.078,4.944-11.022,11.021-11.022h68.248
		c-3.045,2.701-4.969,6.64-4.969,11.021v79.938H3.715v-5.848c0-1.027-0.832-1.857-1.857-1.857S0,87.799,0,88.827v7.705
		c0,1.025,0.832,1.857,1.857,1.857h78.016c1.026,0,1.857-0.832,1.857-1.857V14.737c0-6.078,4.944-11.022,11.021-11.022
		c6.078,0,6.033,4.944,6.033,11.022V49.85H87.681c-1.027,0-1.857,0.831-1.857,1.856c0,1.027,0.83,1.859,1.857,1.859h12.962
		c1.025,0,1.857-0.832,1.857-1.859V14.737C102.5,6.611,100.879,0,92.752,0"/>
	<path clip-path="url(#SVGID_2_)" fill="#D8DEE8" d="M49.423,36.588h22.413c1.025,0,1.857-0.831,1.857-1.857
		c0-1.026-0.832-1.857-1.857-1.857H49.423c-1.026,0-1.858,0.832-1.858,1.857C47.565,35.757,48.397,36.588,49.423,36.588"/>
	<path clip-path="url(#SVGID_2_)" fill="#D8DEE8" d="M49.423,54.389h22.413c1.025,0,1.857-0.832,1.857-1.857
		s-0.832-1.857-1.857-1.857H49.423c-1.026,0-1.858,0.832-1.858,1.857S48.397,54.389,49.423,54.389"/>
	<path clip-path="url(#SVGID_2_)" fill="#D8DEE8" d="M71.836,41.774h-5.585c-1.025,0-1.856,0.832-1.856,1.857
		c0,1.025,0.831,1.858,1.856,1.858h5.585c1.025,0,1.857-0.833,1.857-1.858C73.693,42.605,72.861,41.774,71.836,41.774"/>
	<path clip-path="url(#SVGID_2_)" fill="#D8DEE8" d="M49.423,45.489h10.637c1.025,0,1.857-0.832,1.857-1.857
		c0-1.026-0.832-1.857-1.857-1.857H49.423c-1.026,0-1.858,0.832-1.858,1.857C47.565,44.657,48.397,45.489,49.423,45.489"/>
	<path clip-path="url(#SVGID_2_)" fill="#D8DEE8" d="M10.767,63.292h9.914c1.027,0,1.857-0.832,1.857-1.857
		c0-1.027-0.831-1.857-1.857-1.857h-9.914c-1.025,0-1.856,0.83-1.856,1.857C8.911,62.459,9.742,63.292,10.767,63.292"/>
	<path clip-path="url(#SVGID_2_)" fill="#D8DEE8" d="M24.768,61.434c0,1.025,0.832,1.857,1.857,1.857h45.211
		c1.025,0,1.857-0.832,1.857-1.857c0-1.027-0.832-1.857-1.857-1.857H26.625C25.599,59.577,24.768,60.407,24.768,61.434"/>
	<path clip-path="url(#SVGID_2_)" fill="#D8DEE8" d="M10.767,72.192h22.414c1.026,0,1.857-0.832,1.857-1.857
		s-0.832-1.857-1.857-1.857H10.767c-1.025,0-1.856,0.832-1.856,1.857S9.742,72.192,10.767,72.192"/>
	<path clip-path="url(#SVGID_2_)" fill="#D8DEE8" d="M10.767,89.995h12.39c1.027,0,1.858-0.832,1.858-1.857
		s-0.832-1.857-1.858-1.857h-12.39c-1.025,0-1.856,0.832-1.856,1.857S9.742,89.995,10.767,89.995"/>
	<path clip-path="url(#SVGID_2_)" fill="#D8DEE8" d="M33.181,86.28h-3.833c-1.026,0-1.857,0.832-1.857,1.857
		s0.832,1.855,1.857,1.855h3.833c1.026,0,1.857-0.83,1.857-1.855S34.207,86.28,33.181,86.28"/>
	<path clip-path="url(#SVGID_2_)" fill="#D8DEE8" d="M10.767,81.092h22.414c1.026,0,1.857-0.83,1.857-1.857
		c0-1.025-0.832-1.857-1.857-1.857H10.767c-1.025,0-1.856,0.832-1.856,1.857C8.911,80.262,9.742,81.092,10.767,81.092"/>
</g>
<g>
	<path fill="#3F4862" d="M30.18,23.146v-11.22h1.582l3.596,5.677c0.833,1.315,1.482,2.497,2.015,3.646l0.033-0.017
		c-0.133-1.498-0.167-2.863-0.167-4.611v-4.694h1.365v11.22h-1.465l-3.563-5.693c-0.782-1.249-1.531-2.53-2.098-3.746l-0.05,0.017
		c0.083,1.415,0.117,2.764,0.117,4.628v4.794H30.18z"/>
	<path fill="#3F4862" d="M41.132,11.926h6.043v1.215h-4.595v3.729h4.245v1.198h-4.245v5.078h-1.448V11.926z"/>
	<path fill="#3F4862" d="M50.005,19.384c0.034,1.981,1.299,2.797,2.764,2.797c1.049,0,1.681-0.183,2.231-0.417l0.249,1.049
		c-0.517,0.233-1.398,0.5-2.681,0.5c-2.48,0-3.961-1.631-3.961-4.062s1.432-4.345,3.779-4.345c2.63,0,3.329,2.314,3.329,3.795
		c0,0.3-0.033,0.533-0.05,0.683H50.005z M54.301,18.335c0.016-0.932-0.384-2.381-2.031-2.381c-1.482,0-2.131,1.365-2.248,2.381
		H54.301z"/>
</g>
<rect y="79.356" fill="#3F4862" width="3.715" height="11.477"/>
</svg>
