<svg xmlns="http://www.w3.org/2000/svg" width="111.104" height="90.357" viewBox="0 0 111.104 90.357"><path fill="#FFF" d="M14.293 80.792V28.465a2.822 2.822 0 0 1 2.818-2.819h59"/><path fill="#384663" d="M16.293 80.792h-4V28.465a4.823 4.823 0 0 1 4.818-4.819h59v4h-59a.82.82 0 0 0-.818.819v52.327z"/><path fill="#FFF" d="M96.809 80.792V28.465a2.822 2.822 0 0 0-2.818-2.819H75.342"/><path fill="#384663" d="M94.809 80.792h4V28.465a4.825 4.825 0 0 0-4.818-4.819H75.342v4H93.99a.82.82 0 0 1 .818.819v52.327z"/><path fill="#F8C44F" d="M20.293 31.646h70.518v43.065H20.293z"/><path fill="#384663" d="M102.679 90.357H8.422c-3.291 0-7.186-2.839-7.62-3.162L0 86.596v-8.064h111.104v8.064l-.805.6c-.434.324-4.33 3.161-7.62 3.161zM4 84.543c1.322.852 3.211 1.814 4.422 1.814h94.257c1.239 0 3.169-1.014 4.425-1.816v-2.01H4v2.012z"/><path fill="#FFF" d="M85.334 74.734V8.404a6.402 6.402 0 0 1 5.662-6.358c-2.848.013-57.875 0-59.617 0a6.398 6.398 0 0 0-5.659 6.358v66.33h59.614z"/><g fill="#F8C44F"><path d="M85.334 15.371V8.404A6.402 6.402 0 0 1 91.739 2a6.403 6.403 0 0 1 6.405 6.404v6.967h-12.81z"/><path d="M100.145 17.371H83.334V8.404c0-4.633 3.77-8.404 8.405-8.404s8.405 3.771 8.405 8.404v8.967zm-12.811-4h8.811V8.404C96.145 5.976 94.168 4 91.739 4s-4.405 1.976-4.405 4.404v4.967z"/></g><path fill="#384663" d="M100.145 17.363h-4V8.404C96.145 5.976 94.168 4 91.739 4s-4.405 1.976-4.405 4.404h-4c0-4.633 3.77-8.404 8.405-8.404s8.405 3.771 8.405 8.404v8.959zm-50.61-1.321h11.098v4H49.535zm0 7.433h11.098v4H49.535zm-15.224-7.433h11.098v4H34.311zm0 7.433h11.098v4H34.311zm30.412-7.433h11.098v4H64.723zm0 7.433h11.098v4H64.723z"/><path fill="#384663" d="M27.72 74.734V8.404a4.396 4.396 0 0 1 3.785-4.358l43.156.006 9.887-.001a8.381 8.381 0 0 0-1.214 4.354v66.33h4V8.404a4.4 4.4 0 0 1 3.892-4.372L90.988.046c-.949.004-7.69.006-16.326.006L31.379.046l-.23.014a8.395 8.395 0 0 0-7.43 8.345l-.019 66.33h4.02z"/><path fill="#F8C44F" d="M54.993 65.937c-9.035 0-16.354-7.319-16.354-16.348 0-9.022 7.319-16.335 16.354-16.335 9.029 0 16.334 7.313 16.334 16.335 0 9.028-7.305 16.348-16.334 16.348z"/><g fill="#384663"><path d="M56.729 52.589l-5.803-2.263c-2.436-1.549-2.947-3.287-2.947-4.473v-2.431a5.578 5.578 0 0 1 5.57-5.572h2.869c3.07 0 5.568 2.5 5.568 5.572v1.136h-4v-1.136c0-.867-.703-1.572-1.568-1.572H53.55c-.865 0-1.57.705-1.57 1.572v2.431c0 .105.173.477.936.993l5.244 2.007-1.431 3.736z"/><path d="M56.419 61.756H53.55a5.576 5.576 0 0 1-5.57-5.569v-1.138h4v1.138c0 .865.705 1.569 1.57 1.569h2.869a1.57 1.57 0 0 0 1.568-1.569v-2.434c0-.079-.182-.5-.997-1.053l-4.997-1.923 1.438-3.734 5.549 2.179c2.486 1.578 3.008 3.336 3.008 4.531v2.434a5.576 5.576 0 0 1-5.569 5.569zM55.2 34.962v5.334m-2-5.334h4v5.334h-4z"/><path d="M55.2 58.894v5.334m-2-5.334h4v5.334h-4z"/></g></svg>