<?xml version="1.0" encoding="utf-8"?>
<!-- Generator: Adobe Illustrator 16.0.0, SVG Export Plug-In . SVG Version: 6.00 Build 0)  -->
<!DOCTYPE svg PUBLIC "-//W3C//DTD SVG 1.1//EN" "http://www.w3.org/Graphics/SVG/1.1/DTD/svg11.dtd">
<svg version="1.1" id="Camada_1" xmlns="http://www.w3.org/2000/svg" xmlns:xlink="http://www.w3.org/1999/xlink" x="0px" y="0px"
	 width="102.5px" height="100.508px" viewBox="0 0 102.5 100.508" enable-background="new 0 0 102.5 100.508" xml:space="preserve">
<g>
	<defs>
		<rect id="SVGID_1_" y="12.797" width="101.613" height="66.957"/>
	</defs>
	<clipPath id="SVGID_2_">
		<use xlink:href="#SVGID_1_"  overflow="visible"/>
	</clipPath>
	<path clip-path="url(#SVGID_2_)" fill="#FFFFFF" d="M29.145,70.619V31.447c0-1.165,0.949-2.11,2.109-2.11h57.549
		c1.166,0,2.111,0.946,2.111,2.11v39.171"/>
	<path clip-path="url(#SVGID_2_)" fill="#2E3136" d="M92.41,70.619h-2.994V31.447c0-0.338-0.273-0.613-0.613-0.613H31.254
		c-0.337,0-0.613,0.275-0.613,0.613v39.171h-2.994V31.447c0-1.989,1.618-3.607,3.607-3.607h57.549c1.99,0,3.607,1.619,3.607,3.607
		V70.619z"/>
	<rect x="33.636" y="33.828" clip-path="url(#SVGID_2_)" fill="#7DB1E3" width="52.788" height="32.237"/>
	<path clip-path="url(#SVGID_2_)" fill="#FFFFFF" d="M19.942,70.422v3.789c0,0,2.771,2.069,4.807,2.069h25.507h19.544h25.508
		c2.037,0,4.809-2.069,4.809-2.069v-3.789H19.942z"/>
	<path clip-path="url(#SVGID_2_)" fill="#2E3136" d="M95.309,77.778H24.75c-2.463,0-5.38-2.125-5.704-2.366l-0.601-0.449v-6.036
		h83.168v6.036l-0.6,0.449C100.688,75.653,97.771,77.778,95.309,77.778 M21.439,73.425c0.99,0.638,2.403,1.358,3.31,1.358h70.559
		c0.928,0,2.373-0.759,3.313-1.359V71.92H21.439V73.425z"/>
	<path clip-path="url(#SVGID_2_)" fill="#E9C259" d="M54.977,24.304v-5.215c0-2.649,2.146-4.794,4.795-4.794
		s4.795,2.145,4.795,4.794v5.215H54.977z"/>
	<path clip-path="url(#SVGID_2_)" fill="#E9C259" d="M66.064,25.801H53.48v-6.712c0-3.469,2.822-6.292,6.291-6.292
		c3.471,0,6.293,2.823,6.293,6.292V25.801z M56.473,22.807h6.598v-3.718c0-1.818-1.48-3.297-3.299-3.297s-3.299,1.479-3.299,3.297
		V22.807z"/>
	<path clip-path="url(#SVGID_2_)" fill="#FFFFFF" d="M54.977,19.088v53.608h-0.014l0.014,0.802c0,2.46-1.865,4.482-4.25,4.76
		c-1.306,0-42.499-0.009-44.631,0c2.386-0.277,4.237-2.3,4.237-4.76v-1.093h0.019V19.088c0-2.461,1.85-4.484,4.236-4.759
		c1.304,0,42.494,0.008,44.627,0C56.83,14.604,54.977,16.627,54.977,19.088"/>
	<path clip-path="url(#SVGID_2_)" fill="#2E3136" d="M50.811,79.754l-32.488-0.003c-6.464,0-11.511,0-12.222,0.003l-0.179-2.983
		c1.662-0.191,2.913-1.599,2.913-3.274l0.018-54.408c0-3.195,2.391-5.882,5.561-6.247l0.173-0.01l32.4,0.003
		c6.463,0,11.51,0,12.221-0.003l0.178,2.985c-1.66,0.192-2.914,1.599-2.914,3.272v55.106h-0.039c-0.328,2.89-2.598,5.21-5.536,5.551
		L50.811,79.754z M18.323,76.757l32.307,0.004c1.629-0.229,2.85-1.616,2.85-3.265L53.438,71.2h0.043V19.088
		c0-1.188,0.33-2.305,0.906-3.259c-2.035,0-4.583,0-7.399,0l-32.306-0.003c-1.622,0.225-2.833,1.614-2.833,3.262v54.813h-0.031
		c-0.066,1.038-0.385,2.01-0.898,2.855C12.959,76.757,15.507,76.757,18.323,76.757"/>
	<path clip-path="url(#SVGID_2_)" fill="#E9C259" d="M46.125,71.088v2.41c0,2.46,1.852,4.482,4.238,4.76
		c-2.13-0.009-43.324,0-44.628,0c-2.386-0.277-4.237-2.3-4.237-4.76v-2.41H46.125z"/>
	<path clip-path="url(#SVGID_2_)" fill="#E9C259" d="M5.734,79.754l-0.172-0.01C2.391,79.378,0,76.693,0,73.499v-3.907h47.621v3.907
		c0,1.674,1.253,3.081,2.914,3.272l-0.178,2.983c-0.71-0.003-5.758-0.003-12.222-0.003L5.734,79.754z M2.995,72.585v0.913
		c0,1.646,1.213,3.036,2.834,3.263l32.306-0.004c2.815,0,5.362,0,7.402,0c-0.579-0.954-0.909-2.071-0.909-3.259v-0.913H2.995z"/>
	<path clip-path="url(#SVGID_2_)" fill="#2E3136" d="M66.064,25.795H63.07v-6.707c0-1.818-1.482-3.297-3.299-3.297
		c-1.818,0-3.299,1.479-3.299,3.297h-2.994c0-3.469,2.824-6.292,6.293-6.292s6.293,2.823,6.293,6.292V25.795z"/>
	<path clip-path="url(#SVGID_2_)" fill="#2E3136" d="M50.639,79.754c-3.203,0-6.011-2.923-6.011-6.256v-3.882h2.993v3.882
		c0,1.646,1.495,3.263,3.018,3.263V79.754z"/>
	<rect x="24.532" y="22.837" clip-path="url(#SVGID_2_)" fill="#2E3136" width="24.319" height="2.994"/>
	<rect x="24.532" y="28.399" clip-path="url(#SVGID_2_)" fill="#2E3136" width="9.908" height="2.995"/>
	<rect x="16.173" y="22.855" clip-path="url(#SVGID_2_)" fill="#7DB1E3" width="5.397" height="5.396"/>
	<rect x="24.53" y="37.948" clip-path="url(#SVGID_2_)" fill="#2E3136" width="24.583" height="2.994"/>
	<rect x="24.53" y="43.512" clip-path="url(#SVGID_2_)" fill="#2E3136" width="24.583" height="2.994"/>
	<rect x="16.173" y="37.967" clip-path="url(#SVGID_2_)" fill="#7DB1E3" width="5.397" height="5.396"/>
	<rect x="24.532" y="52.919" clip-path="url(#SVGID_2_)" fill="#2E3136" width="9.908" height="2.994"/>
	<rect x="24.532" y="58.483" clip-path="url(#SVGID_2_)" fill="#2E3136" width="9.908" height="2.995"/>
	<rect x="16.173" y="52.939" clip-path="url(#SVGID_2_)" fill="#7DB1E3" width="5.397" height="5.396"/>
</g>
</svg>
