<?xml version="1.0" encoding="utf-8"?>
<!-- Generator: Adobe Illustrator 16.0.0, SVG Export Plug-In . SVG Version: 6.00 Build 0)  -->
<!DOCTYPE svg PUBLIC "-//W3C//DTD SVG 1.1//EN" "http://www.w3.org/Graphics/SVG/1.1/DTD/svg11.dtd">
<svg version="1.1" id="Camada_1" xmlns="http://www.w3.org/2000/svg" xmlns:xlink="http://www.w3.org/1999/xlink" x="0px" y="0px"
	 width="111.104px" height="66.711px" viewBox="0 0 111.104 66.711" enable-background="new 0 0 111.104 66.711"
	 xml:space="preserve">
<path fill="#FFFFFF" d="M14.294,57.146V4.819C14.296,3.263,15.556,2.002,17.112,2h76.88c1.556,0.001,2.817,1.263,2.817,2.819v52.327
	"/>
<path fill="#384663" d="M98.81,57.146h-4V4.819C94.81,4.367,94.443,4,93.991,4h-76.88c-0.451,0.001-0.817,0.367-0.817,0.819v52.327
	h-4V4.819c0.003-2.66,2.158-4.815,4.817-4.819h76.88c2.659,0.003,4.814,2.159,4.817,4.819L98.81,57.146L98.81,57.146z"/>
<path fill="#5EB4E7" d="M20.294,8h70.518v43.066H20.294V8z"/>
<path fill="#FFFFFF" d="M2,56.885v5.063c0,0,3.701,2.766,6.422,2.766h94.257c2.721,0,6.425-2.766,6.425-2.766v-5.062L2,56.885
	L2,56.885z"/>
<path fill="#384663" d="M102.68,66.711H8.422c-3.289,0-7.186-2.838-7.618-3.162L0,62.95v-8.064h111.104v8.064l-0.805,0.6
	C109.867,63.874,105.971,66.711,102.68,66.711z M4,60.897c1.324,0.852,3.212,1.814,4.422,1.814h94.258
	c1.239,0,3.169-1.016,4.425-1.817v-2.009H4V60.897z"/>
<polyline fill="#384663" points="13.937,53.163 27.681,39.618 33.656,44.996 53.773,25.078 62.263,33.394 81.359,14.896 
	74.164,14.896 74.139,11.285 88.928,11.285 88.928,25.577 84.876,25.607 84.895,17.037 62.338,39.22 53.524,30.506 33.607,50.822 
	27.756,45.419 16.776,56.25 14.759,57.146 12.294,55.055 "/>
<rect x="22.302" y="10.689" fill="#FFFFFF" width="22.167" height="4.25"/>
<rect x="22.302" y="22.189" fill="#FFFFFF" width="14.583" height="4.25"/>
<rect x="22.302" y="16.356" fill="#FFFFFF" width="28.309" height="4.25"/>
</svg>
