<?xml version="1.0" encoding="utf-8"?>
<!-- Generator: Adobe Illustrator 16.0.0, SVG Export Plug-In . SVG Version: 6.00 Build 0)  -->
<!DOCTYPE svg PUBLIC "-//W3C//DTD SVG 1.1//EN" "http://www.w3.org/Graphics/SVG/1.1/DTD/svg11.dtd">
<svg version="1.1" id="Camada_1" xmlns="http://www.w3.org/2000/svg" xmlns:xlink="http://www.w3.org/1999/xlink" x="0px" y="0px"
	 width="99.02px" height="99.021px" viewBox="0 0 99.02 99.021" enable-background="new 0 0 99.02 99.021" xml:space="preserve">
<g>
	<g>
		<defs>
			<rect id="SVGID_1_" x="0.177" y="14.897" width="98.843" height="66.123"/>
		</defs>
		<clipPath id="SVGID_2_">
			<use xlink:href="#SVGID_1_"  overflow="visible"/>
		</clipPath>
		<path clip-path="url(#SVGID_2_)" fill="#F8C44F" d="M53.655,26.09v-5.074c0-2.576,2.088-4.663,4.665-4.663
			c2.575,0,4.663,2.086,4.663,4.663v5.074H53.655z"/>
	</g>
	<g>
		<defs>
			<rect id="SVGID_3_" x="0.177" y="14.897" width="98.843" height="66.123"/>
		</defs>
		<clipPath id="SVGID_4_">
			<use xlink:href="#SVGID_3_"  overflow="visible"/>
		</clipPath>
		<path clip-path="url(#SVGID_4_)" fill="#F8C44F" d="M64.44,27.546H52.198v-6.53c0-3.374,2.744-6.119,6.121-6.119
			c3.375,0,6.12,2.745,6.12,6.119V27.546z M55.111,24.634h6.416v-3.618c0-1.769-1.439-3.207-3.207-3.207
			c-1.77,0-3.209,1.438-3.209,3.207V24.634L55.111,24.634z"/>
	</g>
	<g>
		<defs>
			<rect id="SVGID_5_" x="0.177" y="14.897" width="98.843" height="66.123"/>
		</defs>
		<clipPath id="SVGID_6_">
			<use xlink:href="#SVGID_5_"  overflow="visible"/>
		</clipPath>
		<path clip-path="url(#SVGID_6_)" fill="#FFFFFF" d="M53.655,21.016v52.147h-0.016l0.016,0.779c0,2.393-1.814,4.361-4.136,4.63
			c-1.27,0-41.339-0.009-43.413,0c2.322-0.269,4.123-2.237,4.123-4.63v-1.063h0.017V21.016c0-2.393,1.799-4.361,4.121-4.629
			c1.269,0,41.338,0.008,43.412,0C55.456,16.655,53.655,18.623,53.655,21.016"/>
	</g>
	<g>
		<defs>
			<rect id="SVGID_7_" x="0.177" y="14.897" width="98.843" height="66.123"/>
		</defs>
		<clipPath id="SVGID_8_">
			<use xlink:href="#SVGID_7_"  overflow="visible"/>
		</clipPath>
		<path clip-path="url(#SVGID_8_)" fill="#282D33" d="M49.603,80.029L18,80.025c-6.289,0-11.198,0.001-11.889,0.004l-0.172-2.902
			c1.614-0.187,2.833-1.557,2.833-3.185l0.018-52.926c0-3.108,2.325-5.721,5.409-6.076l0.167-0.01l31.517,0.004
			c6.289,0,11.197-0.001,11.888-0.004l0.172,2.904c-1.614,0.187-2.833,1.555-2.833,3.182V74.62h-0.04
			c-0.318,2.812-2.526,5.068-5.383,5.399L49.603,80.029z M18.001,77.113l31.427,0.003c1.585-0.222,2.771-1.571,2.771-3.174
			l-0.042-2.235h0.042V21.016c0-1.155,0.321-2.242,0.885-3.17c-1.983,0-4.459,0-7.199,0l-31.426-0.003
			c-1.577,0.219-2.756,1.571-2.756,3.173v53.32h-0.03c-0.064,1.01-0.374,1.957-0.873,2.778
			C12.783,77.113,15.26,77.113,18.001,77.113"/>
	</g>
	<g>
		<defs>
			<rect id="SVGID_9_" x="0.177" y="14.897" width="98.843" height="66.123"/>
		</defs>
		<clipPath id="SVGID_10_">
			<use xlink:href="#SVGID_9_"  overflow="visible"/>
		</clipPath>
		<path clip-path="url(#SVGID_10_)" fill="#F8C44F" d="M45.044,71.599v2.344c0,2.393,1.801,4.361,4.123,4.63
			c-2.072-0.01-42.143,0-43.411,0c-2.321-0.269-4.122-2.237-4.122-4.63v-2.344H45.044z"/>
	</g>
	<g>
		<defs>
			<rect id="SVGID_11_" x="0.177" y="14.897" width="98.843" height="66.123"/>
		</defs>
		<clipPath id="SVGID_12_">
			<use xlink:href="#SVGID_11_"  overflow="visible"/>
		</clipPath>
		<path clip-path="url(#SVGID_12_)" fill="#F8C44F" d="M5.755,80.029l-0.168-0.011c-3.084-0.357-5.41-2.969-5.41-6.075v-3.8H46.5
			v3.8c0,1.627,1.218,2.997,2.833,3.184l-0.173,2.902c-0.691-0.003-5.602-0.004-11.889-0.004L5.755,80.029z M3.09,73.055v0.888
			c0,1.603,1.18,2.952,2.757,3.173l31.425-0.003c2.74,0,5.217,0,7.2,0.001c-0.562-0.928-0.884-2.017-0.884-3.171v-0.888H3.09z"/>
	</g>
	<g>
		<defs>
			<rect id="SVGID_13_" x="0.177" y="14.897" width="98.843" height="66.123"/>
		</defs>
		<clipPath id="SVGID_14_">
			<use xlink:href="#SVGID_13_"  overflow="visible"/>
		</clipPath>
		<path clip-path="url(#SVGID_14_)" fill="#282D33" d="M64.44,27.54h-2.913v-6.524c0-1.769-1.44-3.207-3.207-3.207
			c-1.77,0-3.209,1.438-3.209,3.207h-2.912c-0.002-3.374,2.744-6.119,6.121-6.119c3.373,0,6.12,2.745,6.12,6.119V27.54z"/>
	</g>
	<g>
		<defs>
			<rect id="SVGID_15_" x="0.177" y="14.897" width="98.843" height="66.123"/>
		</defs>
		<clipPath id="SVGID_16_">
			<use xlink:href="#SVGID_15_"  overflow="visible"/>
		</clipPath>
		<path clip-path="url(#SVGID_16_)" fill="#282D33" d="M49.435,80.029c-3.115,0-5.847-2.843-5.847-6.086v-3.776H46.5v3.776
			c0,1.603,1.453,3.173,2.935,3.173V80.029z"/>
	</g>
	<g>
		<defs>
			<rect id="SVGID_17_" x="0.177" y="14.897" width="98.843" height="66.123"/>
		</defs>
		<clipPath id="SVGID_18_">
			<use xlink:href="#SVGID_17_"  overflow="visible"/>
		</clipPath>
		<rect x="24.04" y="24.663" clip-path="url(#SVGID_18_)" fill="#282D33" width="23.655" height="2.913"/>
	</g>
	<g>
		<defs>
			<rect id="SVGID_19_" x="0.177" y="14.897" width="98.843" height="66.123"/>
		</defs>
		<clipPath id="SVGID_20_">
			<use xlink:href="#SVGID_19_"  overflow="visible"/>
		</clipPath>
		<rect x="24.04" y="30.074" clip-path="url(#SVGID_20_)" fill="#282D33" width="9.638" height="2.913"/>
	</g>
	<g>
		<defs>
			<rect id="SVGID_21_" x="0.177" y="14.897" width="98.843" height="66.123"/>
		</defs>
		<clipPath id="SVGID_22_">
			<use xlink:href="#SVGID_21_"  overflow="visible"/>
		</clipPath>
		<rect x="15.909" y="24.681" clip-path="url(#SVGID_22_)" fill="#5EB4E7" width="5.249" height="5.249"/>
	</g>
	<g>
		<defs>
			<rect id="SVGID_23_" x="0.177" y="14.897" width="98.843" height="66.123"/>
		</defs>
		<clipPath id="SVGID_24_">
			<use xlink:href="#SVGID_23_"  overflow="visible"/>
		</clipPath>
		<rect x="24.039" y="39.362" clip-path="url(#SVGID_24_)" fill="#282D33" width="23.913" height="2.913"/>
	</g>
	<g>
		<defs>
			<rect id="SVGID_25_" x="0.177" y="14.897" width="98.843" height="66.123"/>
		</defs>
		<clipPath id="SVGID_26_">
			<use xlink:href="#SVGID_25_"  overflow="visible"/>
		</clipPath>
		<rect x="24.039" y="44.775" clip-path="url(#SVGID_26_)" fill="#282D33" width="23.913" height="2.912"/>
	</g>
	<g>
		<defs>
			<rect id="SVGID_27_" x="0.177" y="14.897" width="98.843" height="66.123"/>
		</defs>
		<clipPath id="SVGID_28_">
			<use xlink:href="#SVGID_27_"  overflow="visible"/>
		</clipPath>
		<rect x="15.909" y="39.382" clip-path="url(#SVGID_28_)" fill="#5EB4E7" width="5.249" height="5.248"/>
	</g>
	<g>
		<defs>
			<rect id="SVGID_29_" x="0.177" y="14.897" width="98.843" height="66.123"/>
		</defs>
		<clipPath id="SVGID_30_">
			<use xlink:href="#SVGID_29_"  overflow="visible"/>
		</clipPath>
		<rect x="24.04" y="53.926" clip-path="url(#SVGID_30_)" fill="#282D33" width="9.638" height="2.913"/>
	</g>
	<g>
		<defs>
			<rect id="SVGID_31_" x="0.177" y="14.897" width="98.843" height="66.123"/>
		</defs>
		<clipPath id="SVGID_32_">
			<use xlink:href="#SVGID_31_"  overflow="visible"/>
		</clipPath>
		<rect x="24.04" y="59.338" clip-path="url(#SVGID_32_)" fill="#282D33" width="9.638" height="2.913"/>
	</g>
	<g>
		<defs>
			<rect id="SVGID_33_" x="0.177" y="14.897" width="98.843" height="66.123"/>
		</defs>
		<clipPath id="SVGID_34_">
			<use xlink:href="#SVGID_33_"  overflow="visible"/>
		</clipPath>
		<rect x="15.909" y="53.944" clip-path="url(#SVGID_34_)" fill="#5EB4E7" width="5.249" height="5.249"/>
	</g>
	<g>
		<defs>
			<rect id="SVGID_35_" x="0.177" y="14.897" width="98.843" height="66.123"/>
		</defs>
		<clipPath id="SVGID_36_">
			<use xlink:href="#SVGID_35_"  overflow="visible"/>
		</clipPath>
		<path clip-path="url(#SVGID_36_)" fill="#FFFFFF" d="M28.527,74.054V35.951c0-1.134,0.921-2.053,2.052-2.053h55.98
			c1.135,0,2.052,0.919,2.052,2.053v38.103"/>
	</g>
	<g>
		<defs>
			<rect id="SVGID_37_" x="0.177" y="14.897" width="98.843" height="66.123"/>
		</defs>
		<clipPath id="SVGID_38_">
			<use xlink:href="#SVGID_37_"  overflow="visible"/>
		</clipPath>
		<path clip-path="url(#SVGID_38_)" fill="#282D33" d="M90.067,74.054h-2.912V35.951c0-0.33-0.268-0.597-0.596-0.597h-55.98
			c-0.329,0-0.597,0.268-0.597,0.597v38.103H27.07V35.951c0-1.935,1.575-3.51,3.509-3.51h55.98c1.936,0,3.508,1.575,3.508,3.51
			V74.054z"/>
	</g>
	<g>
		<defs>
			<rect id="SVGID_39_" x="0.177" y="14.897" width="98.843" height="66.123"/>
		</defs>
		<clipPath id="SVGID_40_">
			<use xlink:href="#SVGID_39_"  overflow="visible"/>
		</clipPath>
		<rect x="32.896" y="38.267" clip-path="url(#SVGID_40_)" fill="#5EB4E7" width="51.349" height="31.358"/>
	</g>
	<g>
		<defs>
			<rect id="SVGID_41_" x="0.177" y="14.897" width="98.843" height="66.123"/>
		</defs>
		<clipPath id="SVGID_42_">
			<use xlink:href="#SVGID_41_"  overflow="visible"/>
		</clipPath>
		<path clip-path="url(#SVGID_42_)" fill="#FFFFFF" d="M19.575,73.863v3.687c0,0,2.695,2.014,4.676,2.014h24.812h19.01h24.813
			c1.981,0,4.678-2.014,4.678-2.014v-3.687H19.575z"/>
	</g>
	<g>
		<defs>
			<rect id="SVGID_43_" x="0.177" y="14.897" width="98.843" height="66.123"/>
		</defs>
		<clipPath id="SVGID_44_">
			<use xlink:href="#SVGID_43_"  overflow="visible"/>
		</clipPath>
		<path clip-path="url(#SVGID_44_)" fill="#282D33" d="M92.886,81.018H24.252c-2.396,0-5.232-2.066-5.548-2.302l-0.584-0.437v-5.873
			h80.902v5.872l-0.587,0.437C98.119,78.953,95.282,81.018,92.886,81.018 M21.031,76.786c0.963,0.619,2.338,1.318,3.22,1.318h68.636
			c0.901,0,2.307-0.737,3.221-1.32v-1.465H21.031V76.786z"/>
	</g>
</g>
</svg>
