<?xml version="1.0" encoding="utf-8"?>
<!-- Generator: Adobe Illustrator 16.0.0, SVG Export Plug-In . SVG Version: 6.00 Build 0)  -->
<!DOCTYPE svg PUBLIC "-//W3C//DTD SVG 1.1//EN" "http://www.w3.org/Graphics/SVG/1.1/DTD/svg11.dtd">
<svg version="1.1" id="Camada_1" xmlns="http://www.w3.org/2000/svg" xmlns:xlink="http://www.w3.org/1999/xlink" x="0px" y="0px"
	 width="99.02px" height="99.021px" viewBox="0 0 99.02 99.021" enable-background="new 0 0 99.02 99.021" xml:space="preserve">
<path fill="#FFFFFF" d="M16.051,82.949V40.512c0.001-1.261,1.023-2.284,2.285-2.286h62.35c1.262,0,2.284,1.024,2.284,2.286v42.437"
	/>
<path fill="#384663" d="M84.592,82.949h-3.244V40.512c0-0.366-0.298-0.664-0.664-0.664H18.335c-0.365,0.001-0.662,0.298-0.662,0.664
	v42.437h-3.244V40.512c0.002-2.157,1.75-3.905,3.906-3.908h62.349c2.156,0.002,3.903,1.751,3.906,3.908L84.592,82.949L84.592,82.949
	z"/>
<path fill="#5EB4E7" d="M20.916,43.092h57.189v34.926H20.916V43.092z"/>
<path fill="#FFFFFF" d="M55.706,62.51V20.569c0-1.328-1.086-2.415-2.414-2.415H28.736c-1.33,0-2.416,1.087-2.416,2.415V62.51H55.706
	z"/>
<path fill="#FFFFFF" d="M6.08,82.737v4.106c0,0,3.001,2.243,5.208,2.243H87.73c2.206,0,5.21-2.243,5.21-2.243v-4.105L6.08,82.737
	L6.08,82.737z"/>
<path fill="#384663" d="M87.73,90.706H11.288c-2.667,0-5.828-2.302-6.178-2.564l-0.652-0.485v-6.54h90.104v6.54l-0.652,0.486
	C93.559,88.405,90.399,90.706,87.73,90.706z M7.702,85.99c1.074,0.691,2.604,1.472,3.586,1.472H87.73
	c1.006,0,2.57-0.823,3.589-1.473v-1.63H7.702V85.99z"/>
<line fill="#3F4861" x1="42.705" y1="61.51" x2="42.705" y2="53.074"/>
<rect x="41.224" y="53.074" fill="#3F4861" width="2.961" height="8.435"/>
<line fill="#3F4861" x1="48.773" y1="61.51" x2="48.773" y2="46.556"/>
<rect x="47.292" y="46.556" fill="#3F4861" width="2.961" height="14.953"/>
<line fill="#3F4861" x1="42.705" y1="50.948" x2="42.705" y2="42.511"/>
<rect x="41.224" y="42.511" fill="#3F4861" width="2.961" height="8.437"/>
<line fill="#3F4861" x1="42.705" y1="40.385" x2="42.705" y2="31.949"/>
<rect x="41.224" y="31.949" fill="#3F4861" width="2.961" height="8.437"/>
<line fill="#3F4861" x1="42.705" y1="29.823" x2="42.705" y2="21.386"/>
<rect x="41.224" y="21.386" fill="#3F4861" width="2.961" height="8.436"/>
<path fill="#E9C259" d="M37.208,26.014c0,2.045-1.658,3.702-3.703,3.702c-2.044,0-3.701-1.656-3.701-3.702
	c0-2.044,1.657-3.702,3.701-3.702C35.55,22.312,37.208,23.97,37.208,26.014"/>
<path fill="#7DB1E3" d="M37.208,30.95c0,2.045-1.658,3.702-3.703,3.702c-2.044,0-3.701-1.657-3.701-3.702
	c0-2.044,1.657-3.702,3.701-3.702C35.55,27.249,37.208,28.906,37.208,30.95"/>
<rect x="22.01" y="60.555" fill="#3F4861" width="38.25" height="3.455"/>
<path fill="#3F4861" d="M27.801,62.51V20.569c0-0.515,0.42-0.934,0.935-0.934h24.557c0.507,0,0.935,0.429,0.935,0.934V62.51h2.962
	V20.569c0-2.147-1.749-3.896-3.896-3.896H28.736c-2.148,0-3.897,1.748-3.897,3.896V62.51H27.801z"/>
<circle fill="#E9C259" cx="79.02" cy="52.199" r="20"/>
<g>
	<rect x="65.627" y="47.856" fill="none" stroke="#000000" stroke-miterlimit="10" width="3.104" height="7.485"/>
	<path fill="none" stroke="#000000" stroke-miterlimit="10" d="M68.732,54.565h2.875l6.437,5.843l6.944-3.515l-5.256-5.797
		l-2.511,1.644c0,0-1.004,0.73-1.415,0.502c-0.41-0.229-1.141-0.274-1.141-0.913s0.456-1.232,0.456-1.232l3.834-4.564h3.612
		l2.732,1.78l4.108-0.046v6.253l-2.784-0.046l-2.422,1.553"/>
	<line fill="none" stroke="#000000" stroke-miterlimit="10" x1="68.732" y1="48.176" x2="77.844" y2="47.856"/>
	<rect x="89.408" y="47.628" fill="none" stroke="#000000" stroke-miterlimit="10" width="3.104" height="7.485"/>
	<line fill="none" stroke="#000000" stroke-miterlimit="10" x1="77.552" y1="56.859" x2="79.992" y2="59.423"/>
	<line fill="none" stroke="#000000" stroke-miterlimit="10" x1="79.208" y1="56.085" x2="81.649" y2="58.648"/>
	<line fill="none" stroke="#000000" stroke-miterlimit="10" x1="80.949" y1="55.385" x2="83.39" y2="57.947"/>
</g>
</svg>
