<?xml version="1.0" encoding="utf-8"?>
<!-- Generator: Adobe Illustrator 16.0.0, SVG Export Plug-In . SVG Version: 6.00 Build 0)  -->
<!DOCTYPE svg PUBLIC "-//W3C//DTD SVG 1.1//EN" "http://www.w3.org/Graphics/SVG/1.1/DTD/svg11.dtd">
<svg version="1.1" id="Camada_1" xmlns="http://www.w3.org/2000/svg" xmlns:xlink="http://www.w3.org/1999/xlink" x="0px" y="0px"
	 width="111.509px" height="97.289px" viewBox="0 0 111.509 97.289" enable-background="new 0 0 111.509 97.289"
	 xml:space="preserve">
<g>
	<defs>
		<rect id="SVGID_1_" width="111.509" height="97.289"/>
	</defs>
	<clipPath id="SVGID_2_">
		<use xlink:href="#SVGID_1_"  overflow="visible"/>
	</clipPath>
	<path clip-path="url(#SVGID_2_)" fill="#F8C44F" d="M73.441,15.371V8.404C73.441,4.865,76.308,2,79.847,2
		c3.538,0,6.406,2.865,6.406,6.404v6.967H73.441z"/>
	<path clip-path="url(#SVGID_2_)" fill="#F8C44F" d="M88.253,17.371H71.441V8.404C71.441,3.769,75.213,0,79.847,0
		c4.635,0,8.406,3.769,8.406,8.404V17.371z M75.441,13.371h8.812V8.404C84.253,5.975,82.275,4,79.847,4
		c-2.428,0-4.405,1.975-4.405,4.404V13.371z"/>
	<path clip-path="url(#SVGID_2_)" fill="#FFFFFF" d="M73.441,8.404v71.614h-0.02l0.02,1.071c0,3.285-2.492,5.987-5.679,6.357
		c-1.744,0-56.772-0.012-59.62,0c3.188-0.37,5.661-3.072,5.661-6.357v-1.461h0.024V8.404c0-3.287,2.471-5.99,5.659-6.358
		c1.742,0,56.77,0.012,59.617,0C75.918,2.415,73.441,5.118,73.441,8.404"/>
	<path clip-path="url(#SVGID_2_)" fill="#282D33" d="M67.878,89.447l-43.4-0.005c-8.636,0-15.378,0.001-16.327,0.005l-0.238-3.986
		c2.218-0.258,3.891-2.137,3.891-4.372l0.024-72.685c0-4.269,3.194-7.856,7.429-8.345l0.23-0.013l43.282,0.006
		c8.636,0,15.377-0.002,16.326-0.006l0.238,3.986c-2.219,0.257-3.892,2.137-3.892,4.372V82.02h-0.055
		c-0.438,3.861-3.47,6.961-7.393,7.414L67.878,89.447z M24.478,85.442l43.159,0.005c2.177-0.303,3.805-2.159,3.805-4.358
		l-0.057-3.069h0.057V8.404c0-1.587,0.441-3.079,1.214-4.353c-2.722,0-6.124,0.001-9.887,0.001L19.613,4.046
		c-2.165,0.302-3.785,2.157-3.785,4.358v73.225h-0.041c-0.088,1.385-0.513,2.686-1.198,3.814
		C17.312,85.442,20.715,85.442,24.478,85.442"/>
	<path clip-path="url(#SVGID_2_)" fill="#F8C44F" d="M61.616,77.87v3.219c0,3.286,2.474,5.989,5.661,6.359
		c-2.846-0.013-57.875,0-59.617,0C4.472,87.078,2,84.375,2,81.089V77.87H61.616z"/>
	<path clip-path="url(#SVGID_2_)" fill="#F8C44F" d="M7.66,89.448l-0.23-0.015C3.194,88.944,0,85.355,0,81.089V75.87h63.616v5.219
		c0,2.235,1.673,4.114,3.892,4.372l-0.237,3.987c-0.949-0.004-7.693-0.007-16.328-0.007L7.66,89.448z M4,79.87v1.219
		c0,2.2,1.62,4.055,3.786,4.359l43.157-0.007c3.762,0,7.166,0.001,9.888,0.001c-0.773-1.273-1.215-2.767-1.215-4.354V79.87H4z"/>
	<path clip-path="url(#SVGID_2_)" fill="#282D33" d="M88.252,17.363h-4V8.404C84.252,5.976,82.275,4,79.847,4
		s-4.405,1.975-4.405,4.404h-4C71.441,3.77,75.212,0,79.847,0s8.405,3.769,8.405,8.404V17.363z"/>
	<path clip-path="url(#SVGID_2_)" fill="#282D33" d="M67.646,89.447c-4.277,0-8.03-3.906-8.03-8.357v-5.186h4v5.186
		c0,2.198,1.996,4.357,4.03,4.357V89.447z"/>
	<rect x="32.771" y="13.412" clip-path="url(#SVGID_2_)" fill="#282D33" width="32.486" height="4"/>
	<rect x="32.771" y="20.844" clip-path="url(#SVGID_2_)" fill="#282D33" width="13.236" height="4"/>
	<rect x="21.607" y="13.436" clip-path="url(#SVGID_2_)" fill="#5EB4E7" width="7.208" height="7.208"/>
	<rect x="32.77" y="33.598" clip-path="url(#SVGID_2_)" fill="#282D33" width="32.84" height="4"/>
	<rect x="32.77" y="41.031" clip-path="url(#SVGID_2_)" fill="#282D33" width="32.84" height="4"/>
	<rect x="21.607" y="33.624" clip-path="url(#SVGID_2_)" fill="#5EB4E7" width="7.208" height="7.208"/>
	<rect x="32.771" y="53.598" clip-path="url(#SVGID_2_)" fill="#282D33" width="13.236" height="4"/>
	<rect x="32.771" y="61.031" clip-path="url(#SVGID_2_)" fill="#282D33" width="13.236" height="4"/>
	<rect x="21.607" y="53.624" clip-path="url(#SVGID_2_)" fill="#5EB4E7" width="7.208" height="7.208"/>
	<line clip-path="url(#SVGID_2_)" fill="#FFFFFF" x1="87.552" y1="38.879" x2="87.552" y2="49.936"/>
	<rect x="86.11" y="38.879" clip-path="url(#SVGID_2_)" fill="#282D33" width="2.884" height="11.058"/>
	<path clip-path="url(#SVGID_2_)" fill="#FFFFFF" d="M110.067,92.963c0,1.593-1.292,2.884-2.885,2.884H41.802
		c-1.593,0-2.884-1.291-2.884-2.884V61.233c0-1.594,1.291-2.885,2.884-2.885h65.381c1.593,0,2.885,1.291,2.885,2.885V92.963z"/>
	<path clip-path="url(#SVGID_2_)" fill="#282D33" d="M107.183,97.289H41.802c-2.386,0-4.327-1.94-4.327-4.327V61.233
		c0-2.386,1.941-4.327,4.327-4.327h65.381c2.387,0,4.327,1.941,4.327,4.327v31.729C111.51,95.349,109.569,97.289,107.183,97.289
		 M41.802,59.791c-0.795,0-1.442,0.646-1.442,1.442v31.729c0,0.795,0.647,1.442,1.442,1.442h65.381c0.795,0,1.442-0.647,1.442-1.442
		V61.233c0-0.796-0.647-1.442-1.442-1.442H41.802z"/>
	<path clip-path="url(#SVGID_2_)" fill="#FFFFFF" d="M110.067,82.387c0,1.593-1.292,2.884-2.885,2.884H41.802
		c-1.593,0-2.884-1.291-2.884-2.884V50.657c0-1.594,1.291-2.885,2.884-2.885h65.381c1.593,0,2.885,1.291,2.885,2.885V82.387z"/>
	<path clip-path="url(#SVGID_2_)" fill="#282D33" d="M107.183,86.713H41.802c-2.386,0-4.327-1.94-4.327-4.327V50.657
		c0-2.386,1.941-4.326,4.327-4.326h65.381c2.387,0,4.327,1.94,4.327,4.326v31.729C111.51,84.772,109.569,86.713,107.183,86.713
		 M41.802,49.215c-0.795,0-1.442,0.647-1.442,1.442v31.729c0,0.796,0.647,1.443,1.442,1.443h65.381c0.795,0,1.442-0.647,1.442-1.443
		V50.657c0-0.795-0.647-1.442-1.442-1.442H41.802z"/>
	<rect x="70.246" y="52.579" clip-path="url(#SVGID_2_)" fill="#FFFFFF" width="33.652" height="8.894"/>
	<path clip-path="url(#SVGID_2_)" fill="#282D33" d="M105.34,62.916H68.803V51.138h36.537V62.916z M71.688,60.031h30.768v-6.009
		H71.688V60.031z"/>
	<rect x="70.245" y="28.062" clip-path="url(#SVGID_2_)" fill="#FFFFFF" width="33.652" height="14.663"/>
	<path clip-path="url(#SVGID_2_)" fill="#282D33" d="M105.34,44.167H68.803V26.62h36.537V44.167z M71.688,41.282h30.768V29.504
		H71.688V41.282z"/>
	<rect x="74.572" y="32.388" clip-path="url(#SVGID_2_)" fill="#5EB4E7" width="24.999" height="6.009"/>
	<line clip-path="url(#SVGID_2_)" fill="#FFFFFF" x1="69.284" y1="66.762" x2="76.148" y2="66.762"/>
	<rect x="69.284" y="65.319" clip-path="url(#SVGID_2_)" fill="#282D33" width="6.865" height="2.884"/>
	<line clip-path="url(#SVGID_2_)" fill="#FFFFFF" x1="78.774" y1="66.762" x2="85.639" y2="66.762"/>
	<rect x="78.774" y="65.319" clip-path="url(#SVGID_2_)" fill="#282D33" width="6.864" height="2.884"/>
	<line clip-path="url(#SVGID_2_)" fill="#FFFFFF" x1="88.264" y1="66.762" x2="95.13" y2="66.762"/>
	<rect x="88.264" y="65.319" clip-path="url(#SVGID_2_)" fill="#282D33" width="6.866" height="2.884"/>
	<line clip-path="url(#SVGID_2_)" fill="#FFFFFF" x1="97.753" y1="66.762" x2="104.619" y2="66.762"/>
	<rect x="97.753" y="65.319" clip-path="url(#SVGID_2_)" fill="#282D33" width="6.866" height="2.884"/>
	<line clip-path="url(#SVGID_2_)" fill="#FFFFFF" x1="69.284" y1="71.569" x2="76.148" y2="71.569"/>
	<rect x="69.284" y="70.126" clip-path="url(#SVGID_2_)" fill="#282D33" width="6.865" height="2.885"/>
	<line clip-path="url(#SVGID_2_)" fill="#FFFFFF" x1="78.774" y1="71.569" x2="85.639" y2="71.569"/>
	<rect x="78.774" y="70.126" clip-path="url(#SVGID_2_)" fill="#282D33" width="6.864" height="2.885"/>
	<line clip-path="url(#SVGID_2_)" fill="#FFFFFF" x1="88.264" y1="71.569" x2="95.13" y2="71.569"/>
	<rect x="88.264" y="70.126" clip-path="url(#SVGID_2_)" fill="#282D33" width="6.866" height="2.885"/>
	<line clip-path="url(#SVGID_2_)" fill="#FFFFFF" x1="97.753" y1="71.569" x2="104.619" y2="71.569"/>
	<rect x="97.753" y="70.126" clip-path="url(#SVGID_2_)" fill="#282D33" width="6.866" height="2.885"/>
	<line clip-path="url(#SVGID_2_)" fill="#FFFFFF" x1="69.284" y1="76.377" x2="76.148" y2="76.377"/>
	<rect x="69.284" y="74.934" clip-path="url(#SVGID_2_)" fill="#282D33" width="6.865" height="2.886"/>
	<line clip-path="url(#SVGID_2_)" fill="#FFFFFF" x1="78.774" y1="76.377" x2="85.639" y2="76.377"/>
	<rect x="78.774" y="74.934" clip-path="url(#SVGID_2_)" fill="#282D33" width="6.864" height="2.886"/>
	<line clip-path="url(#SVGID_2_)" fill="#FFFFFF" x1="46.448" y1="66.762" x2="53.313" y2="66.762"/>
	<rect x="46.448" y="65.319" clip-path="url(#SVGID_2_)" fill="#282D33" width="6.865" height="2.884"/>
	<line clip-path="url(#SVGID_2_)" fill="#FFFFFF" x1="55.938" y1="66.762" x2="62.803" y2="66.762"/>
	<rect x="55.939" y="65.319" clip-path="url(#SVGID_2_)" fill="#282D33" width="6.864" height="2.884"/>
	<line clip-path="url(#SVGID_2_)" fill="#FFFFFF" x1="46.448" y1="71.569" x2="53.313" y2="71.569"/>
	<rect x="46.448" y="70.126" clip-path="url(#SVGID_2_)" fill="#282D33" width="6.865" height="2.885"/>
	<line clip-path="url(#SVGID_2_)" fill="#FFFFFF" x1="55.938" y1="71.569" x2="62.803" y2="71.569"/>
	<rect x="55.939" y="70.126" clip-path="url(#SVGID_2_)" fill="#282D33" width="6.864" height="2.885"/>
	<line clip-path="url(#SVGID_2_)" fill="#FFFFFF" x1="46.448" y1="76.377" x2="53.313" y2="76.377"/>
	<rect x="46.448" y="74.934" clip-path="url(#SVGID_2_)" fill="#282D33" width="6.865" height="2.886"/>
	<line clip-path="url(#SVGID_2_)" fill="#FFFFFF" x1="55.938" y1="76.377" x2="62.803" y2="76.377"/>
	<rect x="55.939" y="74.934" clip-path="url(#SVGID_2_)" fill="#282D33" width="6.864" height="2.886"/>
	<line clip-path="url(#SVGID_2_)" fill="#FFFFFF" x1="88.264" y1="76.377" x2="95.13" y2="76.377"/>
	<rect x="88.264" y="74.934" clip-path="url(#SVGID_2_)" fill="#282D33" width="6.866" height="2.886"/>
	<line clip-path="url(#SVGID_2_)" fill="#FFFFFF" x1="97.753" y1="76.377" x2="104.619" y2="76.377"/>
	<rect x="97.753" y="74.934" clip-path="url(#SVGID_2_)" fill="#282D33" width="6.866" height="2.886"/>
	<polyline clip-path="url(#SVGID_2_)" fill="#5EB4E7" points="62.465,52.58 65.438,52.58 65.438,61.474 43.564,61.474 43.564,52.58 
		46.749,52.58 	"/>
	<polygon clip-path="url(#SVGID_2_)" fill="#FFFFFF" points="61.984,34.792 60.111,36.689 58.238,34.792 56.367,36.689 
		54.498,34.792 52.628,36.689 50.758,34.792 48.888,36.689 47.019,34.792 47.019,57.405 61.984,57.405 	"/>
	<path clip-path="url(#SVGID_2_)" fill="#282D33" d="M63.426,58.848H45.577V31.274l3.311,3.361l1.87-1.898l1.87,1.898l1.87-1.898
		l1.869,1.898l1.871-1.896l1.873,1.897l3.314-3.357V58.848z M48.461,55.964h12.081V38.306l-0.431,0.437l-1.873-1.897l-1.872,1.899
		l-1.868-1.897l-1.87,1.897l-1.87-1.897l-1.87,1.897l-0.427-0.434V55.964z"/>
	<rect x="72.81" y="89.275" clip-path="url(#SVGID_2_)" fill="#282D33" width="3.365" height="2.885"/>
</g>
</svg>
