<svg xmlns="http://www.w3.org/2000/svg" width="102.5" height="100.509" viewBox="0 0 102.5 100.509"><path fill="#384663" d="M102.5 75.151h-7.819v-4H98.5V15.5H4v55.651h50.677v4H0V11.5h102.5z"/><path fill="#FFF" d="M2 2h98.5v11.5H2z"/><path fill="#384663" d="M102.5 15.5H0V0h102.5v15.5zM4 11.5h94.5V4H4v7.5z"/><path d="M6.5 7.667h3.739m-3.739-2h3.739v4H6.5zm6.474 2h3.738m-3.738-2h3.738v4h-3.738zm6.47 2h3.741m-3.741-2h3.74v4h-3.74z" fill="#384663"/><path fill="#F8C44F" d="M10.653 30.843H44.86v6.732H10.653z"/><path fill="#384663" d="M46.86 39.575H8.653V28.843H46.86v10.732zm-34.207-4H42.86v-2.732H12.653v2.732z"/><path fill="#F8C44F" d="M11.765 37.575h31.984v21.229H11.765z"/><path fill="#384663" d="M45.749 60.804H9.765V35.575h35.984v25.229zm-31.984-4h27.984V39.575H13.765v17.229zM54.22 37.396h36.115m-36.115-2h36.115v4H54.22zm0 8.244h31.324m-31.324-2h31.324v4H54.22z"/><path fill="#FFF" d="M55.79 51.237h18.666v6.333H55.79z"/><path fill="#384663" d="M76.456 59.57H53.79V49.237h22.666V59.57zm-18.666-4h14.666v-2.333H57.79v2.333z"/><path fill="#5EB4E7" d="M54.22 25.571h38.165v6.334H54.22z"/><path fill="#FFF" d="M86.021 75.884l-14.174-4.81-14.176-4.806 4.809 14.175 4.806 14.174 3.422-8.939 9.578 9.579 6.375-6.373-9.58-9.581z"/><path fill="#384663" d="M67.172 100.509L54.475 63.072l37.438 12.699-11.237 4.298 8.813 8.815-9.203 9.201-8.813-8.813-4.301 11.237zm2.77-18.426l10.344 10.345 3.547-3.545-10.347-10.347 6.642-2.54-19.261-6.533L67.4 88.725l2.542-6.642z"/></svg>