<?xml version="1.0" encoding="utf-8"?>
<!-- Generator: Adobe Illustrator 16.0.0, SVG Export Plug-In . SVG Version: 6.00 Build 0)  -->
<!DOCTYPE svg PUBLIC "-//W3C//DTD SVG 1.1//EN" "http://www.w3.org/Graphics/SVG/1.1/DTD/svg11.dtd">
<svg version="1.1" id="Camada_1" xmlns="http://www.w3.org/2000/svg" xmlns:xlink="http://www.w3.org/1999/xlink" x="0px" y="0px"
	 width="102.5px" height="100.508px" viewBox="0 0 102.5 100.508" enable-background="new 0 0 102.5 100.508" xml:space="preserve">
<polygon fill="#3F4862" points="-0.509,11.5 -0.509,75.151 54.167,75.151 54.167,71.151 3.492,71.151 3.492,15.5 97.992,15.5 
	97.992,71.151 94.171,71.151 94.171,75.151 101.991,75.151 101.991,11.5 "/>
<rect x="1.491" y="2" fill="#FFFFFF" width="98.5" height="11.5"/>
<path fill="#3F4862" d="M3.492,3.999h94.5V11.5h-94.5V3.999z M-0.509,15.499h102.5v-15.5h-102.5V15.499z"/>
<path fill="#FFFFFF" d="M5.991,7.667H9.73H5.991z"/>
<rect x="5.991" y="5.667" fill="#3F4862" width="3.738" height="4"/>
<path fill="#FFFFFF" d="M12.464,7.667h3.739H12.464z"/>
<rect x="12.464" y="5.667" fill="#3F4862" width="3.738" height="4"/>
<path fill="#FFFFFF" d="M18.935,7.667h3.74H18.935z"/>
<rect x="18.935" y="5.667" fill="#3F4862" width="3.74" height="4"/>
<path fill="#FFFFFF" d="M10.589,37.396h76.919H10.589z"/>
<rect x="10.589" y="35.396" fill="#3F4862" width="76.918" height="4"/>
<path fill="#FFFFFF" d="M10.589,43.639h66.714H10.589z"/>
<rect x="10.589" y="41.639" fill="#3F4862" width="66.715" height="4"/>
<path fill="#3F4862" d="M75.946,59.569H10.589V49.237h65.357V59.569z M14.333,55.569h57.613v-2.332H14.333V55.569z"/>
<rect x="10.589" y="25.571" fill="#7DB1E3" width="81.287" height="6.334"/>
<polygon fill="#FFFFFF" points="85.511,75.883 71.337,71.073 57.161,66.268 61.97,80.444 66.776,94.616 70.198,85.678 
	79.776,95.256 86.151,88.883 76.572,79.303 "/>
<path fill="#3F4862" d="M60.356,69.463l19.262,6.533l-6.643,2.539l10.349,10.348l-3.548,3.545L69.433,82.083l-2.542,6.641
	L60.356,69.463z M66.662,100.508l4.302-11.236l8.813,8.813l9.202-9.201l-8.813-8.814l11.237-4.297L53.965,63.073L66.662,100.508z"/>
</svg>
