<?xml version="1.0" encoding="utf-8"?>
<!-- Generator: Adobe Illustrator 16.0.0, SVG Export Plug-In . SVG Version: 6.00 Build 0)  -->
<!DOCTYPE svg PUBLIC "-//W3C//DTD SVG 1.1//EN" "http://www.w3.org/Graphics/SVG/1.1/DTD/svg11.dtd">
<svg version="1.1" id="Camada_1" xmlns="http://www.w3.org/2000/svg" xmlns:xlink="http://www.w3.org/1999/xlink" x="0px" y="0px"
	 width="99.02px" height="99.021px" viewBox="0 0 99.02 99.021" enable-background="new 0 0 99.02 99.021" xml:space="preserve">
<g>
	<defs>
		<rect id="SVGID_1_" x="6.356" y="7.482" width="87.808" height="88.099"/>
	</defs>
	<clipPath id="SVGID_2_">
		<use xlink:href="#SVGID_1_"  overflow="visible"/>
	</clipPath>
	<path clip-path="url(#SVGID_2_)" fill="#FFFFFF" d="M17.652,70.642V29.287c0-1.229,1-2.228,2.227-2.228h60.76
		c1.229,0,2.227,0.999,2.227,2.228v41.355"/>
	<path clip-path="url(#SVGID_2_)" fill="#3F4861" d="M84.447,70.642h-3.161V29.287c0-0.357-0.291-0.647-0.647-0.647H19.879
		c-0.357,0-0.647,0.291-0.647,0.647v41.355h-3.161V29.287c0-2.1,1.708-3.809,3.808-3.809h60.759c2.101,0,3.809,1.709,3.809,3.809
		V70.642z"/>
	<rect x="22.394" y="31.801" clip-path="url(#SVGID_2_)" fill="#7DB1E3" width="55.731" height="34.036"/>
	<path clip-path="url(#SVGID_2_)" fill="#FFFFFF" d="M7.937,70.436v4.001c0,0,2.925,2.185,5.075,2.185h26.93h20.635h26.93
		c2.149,0,5.077-2.185,5.077-2.185v-4.001H7.937z"/>
	<path clip-path="url(#SVGID_2_)" fill="#3F4861" d="M87.506,78.202H13.011c-2.6,0-5.679-2.243-6.021-2.498l-0.635-0.475v-6.373
		h87.809v6.373l-0.637,0.475C93.186,75.959,90.106,78.202,87.506,78.202 M9.517,73.607c1.045,0.674,2.538,1.435,3.494,1.435h74.495
		c0.979,0,2.504-0.802,3.496-1.437v-1.588H9.517V73.607z"/>
	<rect x="26.228" y="54.833" clip-path="url(#SVGID_2_)" fill="#3F4861" width="48.569" height="2.135"/>
	<rect x="26.228" y="59.636" clip-path="url(#SVGID_2_)" fill="#3F4861" width="48.569" height="2.135"/>
	<path clip-path="url(#SVGID_2_)" fill="none" stroke="#3F4861" stroke-width="4" stroke-miterlimit="10" d="M68.927,21.209
		c0,0-8.54-15.478-36.828-7.472"/>
	<path clip-path="url(#SVGID_2_)" fill="none" stroke="#3F4861" stroke-width="4" stroke-miterlimit="10" d="M30.194,82.128
		c0,0,7.886,12.283,36.463,7.702"/>
	<polyline clip-path="url(#SVGID_2_)" fill="none" stroke="#3F4861" stroke-width="4" stroke-miterlimit="10" points="34.768,7.865 
		32.099,14.804 39.038,16.405 	"/>
	<polyline clip-path="url(#SVGID_2_)" fill="none" stroke="#3F4861" stroke-width="4" stroke-miterlimit="10" points="63.11,94.873 
		68.04,89.309 62.102,85.379 	"/>
</g>
<g>
	<path fill="#3F4861" d="M34.234,45.653c0.315,0.162,0.8,0.323,1.3,0.323c0.538,0,0.823-0.223,0.823-0.562
		c0-0.323-0.246-0.508-0.869-0.73c-0.861-0.3-1.423-0.777-1.423-1.53c0-0.885,0.738-1.562,1.961-1.562
		c0.584,0,1.015,0.123,1.323,0.262L37.087,42.8c-0.208-0.1-0.577-0.246-1.084-0.246c-0.508,0-0.754,0.231-0.754,0.5
		c0,0.331,0.292,0.477,0.961,0.73c0.915,0.338,1.346,0.815,1.346,1.546c0,0.869-0.669,1.607-2.092,1.607
		c-0.592,0-1.177-0.153-1.469-0.315L34.234,45.653z"/>
	<path fill="#3F4861" d="M41.433,44.669h-1.907v1.23h2.13v0.961h-3.307v-5.183h3.199v0.961h-2.022v1.077h1.907V44.669z"/>
	<path fill="#3F4861" d="M42.456,41.746c0.377-0.062,0.938-0.107,1.562-0.107c0.769,0,1.307,0.115,1.676,0.408
		c0.308,0.246,0.477,0.607,0.477,1.084c0,0.662-0.469,1.115-0.915,1.277v0.023c0.361,0.146,0.561,0.492,0.692,0.969
		c0.162,0.585,0.323,1.262,0.423,1.461h-1.2c-0.084-0.146-0.208-0.569-0.361-1.208c-0.139-0.646-0.361-0.823-0.838-0.831h-0.354
		v2.038h-1.162V41.746z M43.618,43.977h0.461c0.584,0,0.931-0.292,0.931-0.746c0-0.477-0.323-0.715-0.861-0.723
		c-0.285,0-0.446,0.023-0.531,0.039V43.977z"/>
	<path fill="#3F4861" d="M48.202,46.861l-1.661-5.183h1.284l0.631,2.191c0.177,0.615,0.338,1.208,0.461,1.854h0.023
		c0.131-0.623,0.292-1.238,0.469-1.83l0.661-2.215h1.246l-1.746,5.183H48.202z"/>
	<path fill="#3F4861" d="M53.048,41.677v5.183h-1.177v-5.183H53.048z"/>
	<path fill="#3F4861" d="M57.87,46.715c-0.2,0.1-0.646,0.215-1.223,0.223l-0.146,0.262c0.3,0.069,0.562,0.269,0.562,0.631
		c0,0.53-0.477,0.707-0.915,0.707c-0.23,0-0.484-0.046-0.661-0.146l0.153-0.477c0.115,0.069,0.292,0.107,0.431,0.107
		c0.154,0,0.277-0.054,0.277-0.192c0-0.154-0.178-0.239-0.607-0.285l0.3-0.638c-1.462-0.192-2.215-1.223-2.215-2.561
		c0-1.769,1.261-2.753,2.83-2.753c0.607,0,1.068,0.123,1.276,0.231l-0.238,0.93c-0.238-0.1-0.569-0.192-0.984-0.192
		c-0.931,0-1.653,0.561-1.653,1.715c0,1.038,0.615,1.692,1.661,1.692c0.354,0,0.746-0.077,0.977-0.169L57.87,46.715z"/>
	<path fill="#3F4861" d="M63.178,44.215c0,1.7-1.031,2.73-2.546,2.73c-1.538,0-2.438-1.161-2.438-2.638
		c0-1.554,0.991-2.715,2.522-2.715C62.309,41.593,63.178,42.785,63.178,44.215z M59.432,44.284c0,1.015,0.478,1.73,1.262,1.73
		c0.792,0,1.246-0.753,1.246-1.761c0-0.931-0.446-1.73-1.254-1.73C59.894,42.523,59.432,43.277,59.432,44.284z"/>
	<path fill="#3F4861" d="M63.986,45.653c0.315,0.162,0.8,0.323,1.3,0.323c0.538,0,0.823-0.223,0.823-0.562
		c0-0.323-0.246-0.508-0.869-0.73c-0.861-0.3-1.423-0.777-1.423-1.53c0-0.885,0.738-1.562,1.961-1.562
		c0.584,0,1.016,0.123,1.322,0.262L66.839,42.8c-0.208-0.1-0.577-0.246-1.085-0.246c-0.507,0-0.753,0.231-0.753,0.5
		c0,0.331,0.292,0.477,0.961,0.73c0.915,0.338,1.346,0.815,1.346,1.546c0,0.869-0.669,1.607-2.092,1.607
		c-0.592,0-1.177-0.153-1.469-0.315L63.986,45.653z"/>
</g>
</svg>
