<?xml version="1.0" encoding="utf-8"?>
<!-- Generator: Adobe Illustrator 16.0.0, SVG Export Plug-In . SVG Version: 6.00 Build 0)  -->
<!DOCTYPE svg PUBLIC "-//W3C//DTD SVG 1.1//EN" "http://www.w3.org/Graphics/SVG/1.1/DTD/svg11.dtd">
<svg version="1.1" id="Camada_1" xmlns="http://www.w3.org/2000/svg" xmlns:xlink="http://www.w3.org/1999/xlink" x="0px" y="0px"
	 width="99.02px" height="99.021px" viewBox="0 0 99.02 99.021" enable-background="new 0 0 99.02 99.021" xml:space="preserve">
<g>
	<g>
		<g>
			<g>
				<defs>
					<rect id="SVGID_1_" x="0.231" y="11.482" width="98.557" height="76.057"/>
				</defs>
				<clipPath id="SVGID_2_">
					<use xlink:href="#SVGID_1_"  overflow="visible"/>
				</clipPath>
				<path clip-path="url(#SVGID_2_)" fill="#69BCEA" d="M98.788,61.973c0,13.883-11.256,25.143-25.142,25.143
					c-13.887,0-25.144-11.257-25.144-25.143c0-13.887,11.257-25.144,25.144-25.144C87.532,36.83,98.788,48.088,98.788,61.973"/>
			</g>
		</g>
	</g>
	<g>
		<g>
			<g>
				<defs>
					<rect id="SVGID_3_" x="0.231" y="11.482" width="98.557" height="76.057"/>
				</defs>
				<clipPath id="SVGID_4_">
					<use xlink:href="#SVGID_3_"  overflow="visible"/>
				</clipPath>
				<path clip-path="url(#SVGID_4_)" fill="#FFFFFF" d="M65.845,66.736c0,1.167,0.44,2.051,1.326,2.652
					c0.884,0.607,1.908,0.906,3.074,0.906c0.804,0,1.638-0.158,2.502-0.483c0.865-0.321,1.619-0.862,2.262-1.628l5.668,4.583
					c-0.805,1.125-1.669,2.04-2.59,2.743c-0.929,0.704-1.87,1.257-2.834,1.657c-0.967,0.405-1.939,0.677-2.925,0.817
					c-0.986,0.141-1.918,0.212-2.802,0.212c-1.608,0-3.186-0.232-4.732-0.693c-1.548-0.463-2.935-1.18-4.16-2.142
					c-1.228-0.965-2.212-2.16-2.956-3.587c-0.744-1.426-1.115-3.105-1.115-5.035v-9.771c0-1.927,0.371-3.606,1.115-5.034
					c0.744-1.425,1.719-2.591,2.925-3.497c1.205-0.905,2.573-1.576,4.099-2.02c1.529-0.442,3.095-0.664,4.703-0.664
					c1.565,0,3.074,0.231,4.521,0.691c1.45,0.465,2.745,1.157,3.89,2.081c1.146,0.927,2.061,2.111,2.743,3.559
					c0.684,1.447,1.024,3.136,1.024,5.065v8.438H65.845V66.736z M72.778,56.668c0-0.925-0.352-1.606-1.054-2.051
					c-0.705-0.441-1.479-0.663-2.321-0.663c-0.886,0-1.679,0.242-2.382,0.722c-0.704,0.482-1.056,1.209-1.056,2.171v2.05h6.813
					V56.668z"/>
			</g>
		</g>
	</g>
	<g>
		<g>
			<g>
				<defs>
					<rect id="SVGID_5_" x="0.231" y="11.482" width="98.557" height="76.057"/>
				</defs>
				<clipPath id="SVGID_6_">
					<use xlink:href="#SVGID_5_"  overflow="visible"/>
				</clipPath>
				<circle clip-path="url(#SVGID_6_)" fill="none" stroke="#384663" stroke-miterlimit="10" cx="69.07" cy="61.973" r="25.143"/>
			</g>
		</g>
	</g>
</g>
<g>
	<path fill="#384663" d="M2.669,38.929V15.539h5.433l4.274,8.572c1.222,2.463,2.442,5.38,3.358,8.016h0.092
		c-0.305-3.088-0.396-6.246-0.396-9.752v-6.836h4.274v23.391H14.82l-4.397-9.023c-1.221-2.498-2.565-5.517-3.571-8.259L6.76,21.681
		c0.123,3.088,0.184,6.386,0.184,10.203v7.045H2.669z"/>
	<path fill="#384663" d="M23.737,15.539h12.578v4.338h-7.907v5.344h7.388v4.305h-7.388v9.404h-4.671V15.539z"/>
	<path fill="#384663" d="M54.94,38.27c-0.854,0.485-2.777,1.007-5.281,1.007c-7.113,0-10.777-5.032-10.777-11.696
		c0-7.981,5.007-12.424,11.235-12.424c2.41,0,4.243,0.556,5.067,1.042l-0.946,4.199c-0.947-0.451-2.259-0.867-3.907-0.867
		c-3.694,0-6.563,2.533-6.563,7.738c0,4.686,2.442,7.635,6.595,7.635c1.404,0,2.96-0.347,3.877-0.763L54.94,38.27z"/>
</g>
</svg>
