<?xml version="1.0" encoding="utf-8"?>
<!-- Generator: Adobe Illustrator 16.0.0, SVG Export Plug-In . SVG Version: 6.00 Build 0)  -->
<!DOCTYPE svg PUBLIC "-//W3C//DTD SVG 1.1//EN" "http://www.w3.org/Graphics/SVG/1.1/DTD/svg11.dtd">
<svg version="1.1" id="Camada_1" xmlns="http://www.w3.org/2000/svg" xmlns:xlink="http://www.w3.org/1999/xlink" x="0px" y="0px"
	 width="99.02px" height="99.021px" viewBox="0 0 99.02 99.021" enable-background="new 0 0 99.02 99.021" xml:space="preserve">
<g>
	<g>
		<g>
			<g>
				<defs>
					<rect id="SVGID_1_" x="0.439" y="9.926" width="98.581" height="76.074"/>
				</defs>
				<clipPath id="SVGID_2_">
					<use xlink:href="#SVGID_1_"  overflow="visible"/>
				</clipPath>
				<path clip-path="url(#SVGID_2_)" fill="#69BCEA" d="M99.02,60.429c0,13.886-11.259,25.147-25.147,25.147
					c-13.891,0-25.15-11.26-25.15-25.147c0-13.89,11.259-25.149,25.15-25.149C87.761,35.28,99.02,46.54,99.02,60.429"/>
			</g>
		</g>
	</g>
	<g>
		<g>
			<g>
				<defs>
					<rect id="SVGID_3_" x="0.439" y="9.926" width="98.581" height="76.074"/>
				</defs>
				<clipPath id="SVGID_4_">
					<use xlink:href="#SVGID_3_"  overflow="visible"/>
				</clipPath>
				<path clip-path="url(#SVGID_4_)" fill="#FFFFFF" d="M66.069,65.193c0,1.167,0.44,2.052,1.326,2.653
					c0.884,0.606,1.91,0.907,3.076,0.907c0.803,0,1.638-0.159,2.502-0.485c0.865-0.321,1.619-0.861,2.262-1.628l5.67,4.583
					c-0.806,1.127-1.671,2.042-2.591,2.745c-0.929,0.705-1.871,1.258-2.835,1.658c-0.966,0.404-1.939,0.676-2.925,0.817
					c-0.987,0.14-1.92,0.212-2.804,0.212c-1.607,0-3.185-0.232-4.733-0.694c-1.547-0.462-2.935-1.18-4.16-2.141
					c-1.229-0.966-2.213-2.162-2.956-3.589c-0.744-1.426-1.116-3.106-1.116-5.037v-9.773c0-1.927,0.372-3.607,1.116-5.035
					c0.743-1.425,1.718-2.591,2.924-3.498c1.208-0.906,2.574-1.577,4.101-2.02c1.53-0.443,3.095-0.664,4.704-0.664
					c1.565,0,3.075,0.231,4.521,0.691c1.451,0.465,2.746,1.157,3.892,2.081c1.144,0.928,2.06,2.111,2.743,3.561
					c0.684,1.446,1.023,3.136,1.023,5.067v8.438h-15.74V65.193z M73.003,55.122c0-0.925-0.352-1.607-1.054-2.05
					c-0.704-0.443-1.479-0.664-2.322-0.664c-0.887,0-1.679,0.242-2.383,0.721c-0.704,0.483-1.056,1.209-1.056,2.173v2.049h6.814
					V55.122z"/>
			</g>
		</g>
	</g>
	<g>
		<g>
			<g>
				<defs>
					<rect id="SVGID_5_" x="0.439" y="9.926" width="98.581" height="76.074"/>
				</defs>
				<clipPath id="SVGID_6_">
					<use xlink:href="#SVGID_5_"  overflow="visible"/>
				</clipPath>
				<circle clip-path="url(#SVGID_6_)" fill="none" stroke="#384663" stroke-miterlimit="10" cx="69.294" cy="60.428" r="25.148"/>
			</g>
		</g>
	</g>
</g>
<g>
	<path fill="#384663" d="M3.44,39.492V16.096h5.436l4.276,8.574c1.221,2.464,2.442,5.38,3.359,8.018h0.092
		c-0.306-3.089-0.396-6.248-0.396-9.754v-6.837h4.274v23.396h-4.885l-4.397-9.025c-1.222-2.499-2.565-5.519-3.572-8.261L7.533,22.24
		c0.123,3.088,0.184,6.386,0.184,10.205v7.047H3.44z"/>
	<path fill="#384663" d="M24.513,16.096h12.581v4.338h-7.909v5.345h7.39v4.306h-7.39v9.407h-4.672V16.096z"/>
	<path fill="#384663" d="M40.761,34.043c1.252,0.729,3.176,1.458,5.161,1.458c2.137,0,3.268-1.006,3.268-2.534
		c0-1.458-0.977-2.291-3.451-3.298c-3.419-1.354-5.648-3.506-5.648-6.907c0-3.993,2.931-7.047,7.786-7.047
		c2.321,0,4.03,0.555,5.252,1.18l-1.039,4.271c-0.823-0.452-2.289-1.11-4.305-1.11c-2.015,0-2.991,1.041-2.991,2.256
		c0,1.492,1.16,2.151,3.817,3.298c3.632,1.528,5.344,3.679,5.344,6.977c0,3.923-2.659,7.255-8.307,7.255
		c-2.351,0-4.672-0.695-5.832-1.424L40.761,34.043z"/>
</g>
</svg>
