<?xml version="1.0" encoding="utf-8"?>
<!-- Generator: Adobe Illustrator 16.0.0, SVG Export Plug-In . SVG Version: 6.00 Build 0)  -->
<!DOCTYPE svg PUBLIC "-//W3C//DTD SVG 1.1//EN" "http://www.w3.org/Graphics/SVG/1.1/DTD/svg11.dtd">
<svg version="1.1" id="Camada_1" xmlns="http://www.w3.org/2000/svg" xmlns:xlink="http://www.w3.org/1999/xlink" x="0px" y="0px"
	 width="99.02px" height="99.021px" viewBox="0 0 99.02 99.021" enable-background="new 0 0 99.02 99.021" xml:space="preserve">
<g>
	<g>
		<defs>
			<rect id="SVGID_1_" x="0.046" y="9.491" width="98.34" height="75.889"/>
		</defs>
		<clipPath id="SVGID_2_">
			<use xlink:href="#SVGID_1_"  overflow="visible"/>
		</clipPath>
		<path clip-path="url(#SVGID_2_)" fill="#69BCEA" d="M98.386,59.871c0,13.853-11.231,25.088-25.086,25.088
			c-13.856,0-25.089-11.232-25.089-25.088c0-13.855,11.232-25.087,25.089-25.087C87.155,34.783,98.386,46.016,98.386,59.871"/>
	</g>
</g>
<g>
	<g>
		<defs>
			<rect id="SVGID_3_" x="0.046" y="9.491" width="98.34" height="75.889"/>
		</defs>
		<clipPath id="SVGID_4_">
			<use xlink:href="#SVGID_3_"  overflow="visible"/>
		</clipPath>
		<path clip-path="url(#SVGID_4_)" fill="#FFFFFF" d="M65.516,64.624c0,1.165,0.438,2.047,1.322,2.646
			c0.882,0.605,1.905,0.904,3.068,0.904c0.802,0,1.635-0.158,2.497-0.483c0.861-0.319,1.614-0.859,2.256-1.623l5.655,4.572
			c-0.803,1.123-1.666,2.036-2.584,2.737c-0.927,0.702-1.865,1.254-2.827,1.653c-0.965,0.404-1.936,0.676-2.918,0.816
			c-0.984,0.141-1.914,0.211-2.796,0.211c-1.605,0-3.18-0.231-4.723-0.691c-1.544-0.462-2.928-1.178-4.15-2.137
			c-1.226-0.964-2.208-2.155-2.95-3.58c-0.742-1.422-1.112-3.098-1.112-5.024v-9.749c0-1.923,0.37-3.599,1.112-5.022
			c0.742-1.422,1.715-2.585,2.918-3.49c1.204-0.903,2.568-1.574,4.09-2.015c1.526-0.441,3.088-0.663,4.693-0.663
			c1.562,0,3.067,0.23,4.511,0.69c1.446,0.463,2.738,1.154,3.881,2.076c1.143,0.925,2.056,2.106,2.737,3.551
			s1.022,3.128,1.022,5.055v8.419H65.516V64.624z M72.433,54.578c0-0.923-0.351-1.604-1.052-2.047
			c-0.702-0.44-1.475-0.661-2.315-0.661c-0.884,0-1.676,0.241-2.377,0.719c-0.703,0.482-1.053,1.207-1.053,2.167v2.046h6.797V54.578
			z"/>
	</g>
</g>
<g>
	<g>
		<defs>
			<rect id="SVGID_5_" x="0.046" y="9.491" width="98.34" height="75.889"/>
		</defs>
		<clipPath id="SVGID_6_">
			<use xlink:href="#SVGID_5_"  overflow="visible"/>
		</clipPath>
		<circle clip-path="url(#SVGID_6_)" fill="none" stroke="#384663" stroke-miterlimit="10" cx="68.733" cy="59.871" r="25.088"/>
	</g>
</g>
<path fill="#384663" d="M8.799,41.654V18.315h5.422l4.265,8.552c1.219,2.458,2.437,5.368,3.351,7.999h0.091
	c-0.304-3.081-0.395-6.232-0.395-9.73v-6.821h4.265v23.339h-4.874l-4.387-9.004c-1.218-2.493-2.559-5.504-3.563-8.241l-0.091,0.035
	c0.122,3.081,0.183,6.371,0.183,10.18v7.03L8.799,41.654L8.799,41.654z"/>
<path fill="#384663" d="M29.821,18.315h12.55v4.327h-7.889v5.333h7.372v4.295h-7.372v9.384h-4.661V18.315z"/>
</svg>
