<?xml version="1.0" encoding="utf-8"?>
<!-- Generator: Adobe Illustrator 16.0.0, SVG Export Plug-In . SVG Version: 6.00 Build 0)  -->
<!DOCTYPE svg PUBLIC "-//W3C//DTD SVG 1.1//EN" "http://www.w3.org/Graphics/SVG/1.1/DTD/svg11.dtd">
<svg version="1.1" id="Camada_1" xmlns="http://www.w3.org/2000/svg" xmlns:xlink="http://www.w3.org/1999/xlink" x="0px" y="0px"
	 width="99.02px" height="99.021px" viewBox="0 0 99.02 99.021" enable-background="new 0 0 99.02 99.021" xml:space="preserve">
<g>
	<g>
		<g>
			<g>
				<defs>
					<rect id="SVGID_1_" x="0" y="9.948" width="99.02" height="76.412"/>
				</defs>
				<clipPath id="SVGID_2_">
					<use xlink:href="#SVGID_1_"  overflow="visible"/>
				</clipPath>
				<path clip-path="url(#SVGID_2_)" fill="#69BCEA" d="M99.02,60.677c0,13.947-11.309,25.26-25.26,25.26
					c-13.952,0-25.262-11.311-25.262-25.26c0-13.952,11.31-25.262,25.262-25.262C87.711,35.415,99.02,46.725,99.02,60.677"/>
			</g>
		</g>
	</g>
	<g>
		<g>
			<g>
				<defs>
					<rect id="SVGID_3_" x="0" y="9.948" width="99.02" height="76.412"/>
				</defs>
				<clipPath id="SVGID_4_">
					<use xlink:href="#SVGID_3_"  overflow="visible"/>
				</clipPath>
				<path clip-path="url(#SVGID_4_)" fill="#FFFFFF" d="M65.922,65.46c0,1.174,0.442,2.063,1.332,2.666
					c0.888,0.609,1.917,0.91,3.089,0.91c0.808,0,1.646-0.158,2.514-0.486c0.869-0.322,1.626-0.865,2.272-1.635l5.694,4.604
					c-0.809,1.131-1.677,2.051-2.602,2.758c-0.934,0.707-1.88,1.262-2.848,1.664c-0.971,0.406-1.948,0.68-2.938,0.82
					c-0.99,0.143-1.927,0.213-2.815,0.213c-1.615,0-3.2-0.232-4.755-0.695c-1.554-0.465-2.947-1.186-4.179-2.152
					c-1.233-0.969-2.223-2.17-2.97-3.604c-0.748-1.432-1.121-3.121-1.121-5.059v-9.816c0-1.936,0.373-3.623,1.121-5.059
					c0.747-1.431,1.727-2.603,2.938-3.513c1.212-0.91,2.586-1.584,4.118-2.029c1.537-0.444,3.109-0.667,4.726-0.667
					c1.572,0,3.089,0.232,4.542,0.694c1.457,0.467,2.758,1.163,3.908,2.09c1.149,0.932,2.069,2.122,2.756,3.576
					c0.686,1.454,1.029,3.149,1.029,5.089v8.479H65.922V65.46z M72.887,55.344c0-0.928-0.353-1.613-1.059-2.059
					c-0.708-0.444-1.485-0.666-2.332-0.666c-0.89,0-1.688,0.242-2.394,0.724c-0.707,0.485-1.061,1.214-1.061,2.181v2.061h6.845
					V55.344z"/>
			</g>
		</g>
	</g>
	<g>
		<g>
			<g>
				<defs>
					<rect id="SVGID_5_" x="0" y="9.948" width="99.02" height="76.412"/>
				</defs>
				<clipPath id="SVGID_6_">
					<use xlink:href="#SVGID_5_"  overflow="visible"/>
				</clipPath>
				<circle clip-path="url(#SVGID_6_)" fill="none" stroke="#384663" stroke-miterlimit="10" cx="69.161" cy="60.676" r="25.261"/>
			</g>
		</g>
	</g>
</g>
<g>
	<path fill="#384663" d="M19.932,26.407c-0.092-2.825-0.185-6.24-0.185-9.658h-0.091c-0.645,2.999-1.503,6.346-2.3,9.101
		l-2.515,9.169h-3.65l-2.208-9.1c-0.675-2.754-1.38-6.102-1.871-9.17H7.05c-0.123,3.174-0.214,6.799-0.368,9.728l-0.368,8.926H1.99
		l1.318-23.5h6.226l2.025,7.845c0.644,2.72,1.289,5.649,1.749,8.403h0.092c0.583-2.72,1.289-5.824,1.962-8.438l2.208-7.811h6.104
		l1.135,23.5h-4.57L19.932,26.407z"/>
	<path fill="#384663" d="M28.402,12.217c1.717-0.314,3.957-0.488,6.319-0.488c3.926,0,6.472,0.802,8.465,2.51
		c2.147,1.813,3.497,4.707,3.497,8.857c0,4.498-1.442,7.601-3.436,9.519c-2.178,2.057-5.49,3.034-9.539,3.034
		c-2.422,0-4.141-0.175-5.306-0.349L28.402,12.217L28.402,12.217z M33.094,31.393c0.399,0.104,1.042,0.104,1.625,0.104
		c4.232,0.036,6.994-2.615,6.994-8.228c0.03-4.881-2.485-7.461-6.503-7.461c-1.043,0-1.717,0.105-2.116,0.209V31.393z"/>
	<path fill="#384663" d="M49.753,11.903H62.39v4.358h-7.944v5.369h7.423v4.325h-7.423v9.449h-4.691L49.753,11.903L49.753,11.903z"/>
</g>
</svg>
