<?xml version="1.0" encoding="utf-8"?>
<!-- Generator: Adobe Illustrator 16.0.0, SVG Export Plug-In . SVG Version: 6.00 Build 0)  -->
<!DOCTYPE svg PUBLIC "-//W3C//DTD SVG 1.1//EN" "http://www.w3.org/Graphics/SVG/1.1/DTD/svg11.dtd">
<svg version="1.1" id="Camada_1" xmlns="http://www.w3.org/2000/svg" xmlns:xlink="http://www.w3.org/1999/xlink" x="0px" y="0px"
	 width="99.02px" height="99.021px" viewBox="0 0 99.02 99.021" enable-background="new 0 0 99.02 99.021" xml:space="preserve">
<g>
	<g>
		<g>
			<g>
				<defs>
					<rect id="SVGID_1_" x="0" y="6.334" width="99.02" height="76.413"/>
				</defs>
				<clipPath id="SVGID_2_">
					<use xlink:href="#SVGID_1_"  overflow="visible"/>
				</clipPath>
				<path clip-path="url(#SVGID_2_)" fill="#69BCEA" d="M99.02,57.061c0,13.948-11.309,25.261-25.26,25.261
					c-13.952,0-25.262-11.31-25.262-25.261s11.31-25.261,25.262-25.261C87.711,31.801,99.02,43.111,99.02,57.061"/>
			</g>
		</g>
	</g>
	<g>
		<g>
			<g>
				<defs>
					<rect id="SVGID_3_" x="0" y="6.334" width="99.02" height="76.413"/>
				</defs>
				<clipPath id="SVGID_4_">
					<use xlink:href="#SVGID_3_"  overflow="visible"/>
				</clipPath>
				<path clip-path="url(#SVGID_4_)" fill="#FFFFFF" d="M65.922,61.846c0,1.173,0.442,2.062,1.332,2.665
					c0.888,0.61,1.917,0.911,3.089,0.911c0.808,0,1.646-0.159,2.514-0.486c0.869-0.322,1.626-0.866,2.272-1.635l5.694,4.604
					c-0.809,1.131-1.677,2.05-2.602,2.757c-0.934,0.707-1.88,1.262-2.848,1.664c-0.971,0.407-1.948,0.68-2.938,0.821
					s-1.927,0.213-2.815,0.213c-1.615,0-3.2-0.233-4.755-0.696c-1.554-0.465-2.947-1.186-4.179-2.151
					c-1.233-0.97-2.223-2.17-2.97-3.604c-0.748-1.432-1.121-3.12-1.121-5.059v-9.816c0-1.936,0.373-3.624,1.121-5.059
					c0.747-1.432,1.727-2.604,2.938-3.513c1.212-0.91,2.586-1.584,4.118-2.029c1.537-0.444,3.109-0.667,4.726-0.667
					c1.572,0,3.089,0.232,4.542,0.694c1.457,0.467,2.758,1.163,3.908,2.09c1.149,0.931,2.069,2.122,2.756,3.576
					c0.686,1.454,1.029,3.15,1.029,5.089v8.478H65.922V61.846z M72.887,51.731c0-0.929-0.353-1.614-1.059-2.06
					c-0.708-0.444-1.485-0.667-2.332-0.667c-0.89,0-1.688,0.243-2.394,0.725c-0.707,0.484-1.061,1.215-1.061,2.182v2.06h6.845
					V51.731z"/>
			</g>
		</g>
	</g>
	<g>
		<g>
			<g>
				<defs>
					<rect id="SVGID_5_" x="0" y="6.334" width="99.02" height="76.413"/>
				</defs>
				<clipPath id="SVGID_6_">
					<use xlink:href="#SVGID_5_"  overflow="visible"/>
				</clipPath>
				<circle clip-path="url(#SVGID_6_)" fill="none" stroke="#384663" stroke-miterlimit="10" cx="69.161" cy="57.061" r="25.261"/>
			</g>
		</g>
	</g>
</g>
<g enable-background="new    ">
	<path fill="#384663" d="M23.995,37.773c-0.859,0.488-2.791,1.011-5.307,1.011c-7.146,0-10.827-5.056-10.827-11.75
		c0-8.02,5.03-12.482,11.288-12.482c2.423,0,4.263,0.558,5.091,1.046l-0.951,4.219c-0.951-0.453-2.27-0.872-3.926-0.872
		c-3.711,0-6.594,2.545-6.594,7.775c0,4.707,2.454,7.671,6.625,7.671c1.411,0,2.975-0.349,3.896-0.768L23.995,37.773z"/>
	<path fill="#384663" d="M31.482,19.398H25.93v-4.463h15.889v4.463h-5.644v19.037h-4.693V19.398z"/>
</g>
</svg>
