<?xml version="1.0" encoding="utf-8"?>
<!-- Generator: Adobe Illustrator 16.0.0, SVG Export Plug-In . SVG Version: 6.00 Build 0)  -->
<!DOCTYPE svg PUBLIC "-//W3C//DTD SVG 1.1//EN" "http://www.w3.org/Graphics/SVG/1.1/DTD/svg11.dtd">
<svg version="1.1" id="Camada_1" xmlns="http://www.w3.org/2000/svg" xmlns:xlink="http://www.w3.org/1999/xlink" x="0px" y="0px"
	 width="99.02px" height="99.021px" viewBox="0 0 99.02 99.021" enable-background="new 0 0 99.02 99.021" xml:space="preserve">
<g>
	<g>
		<defs>
			<rect id="SVGID_1_" x="5.133" y="1" width="89.146" height="96.511"/>
		</defs>
		<clipPath id="SVGID_2_">
			<use xlink:href="#SVGID_1_"  overflow="visible"/>
		</clipPath>
		<path clip-path="url(#SVGID_2_)" fill="#FFFFFF" d="M53.932,85.35H21.718c-1.757,0-3.182-1.424-3.182-3.182V6.116
			c0-1.758,1.425-3.184,3.182-3.184h53.5c1.758,0,3.183,1.425,3.183,3.184v45.076"/>
	</g>
	<g>
		<defs>
			<rect id="SVGID_3_" x="5.133" y="1" width="89.146" height="96.511"/>
		</defs>
		<clipPath id="SVGID_4_">
			<use xlink:href="#SVGID_3_"  overflow="visible"/>
		</clipPath>
		<path clip-path="url(#SVGID_4_)" fill="#282D33" d="M53.932,87.283H21.718c-2.82,0-5.114-2.294-5.114-5.114V6.116
			c0-2.821,2.294-5.116,5.114-5.116h53.5c2.82,0,5.115,2.295,5.115,5.116v45.076h-3.864V6.116c0-0.69-0.561-1.251-1.251-1.251h-53.5
			c-0.688,0-1.25,0.561-1.25,1.251v76.052c0,0.689,0.561,1.25,1.25,1.25h32.213L53.932,87.283L53.932,87.283z"/>
	</g>
	<g>
		<defs>
			<rect id="SVGID_5_" x="5.133" y="1" width="89.146" height="96.511"/>
		</defs>
		<clipPath id="SVGID_6_">
			<use xlink:href="#SVGID_5_"  overflow="visible"/>
		</clipPath>
		<rect x="23.087" y="12.305" clip-path="url(#SVGID_6_)" fill="#5EB4E7" width="50.765" height="66.113"/>
	</g>
	<g>
		<defs>
			<rect id="SVGID_7_" x="5.133" y="1" width="89.146" height="96.511"/>
		</defs>
		<clipPath id="SVGID_8_">
			<use xlink:href="#SVGID_7_"  overflow="visible"/>
		</clipPath>
		<line clip-path="url(#SVGID_8_)" fill="none" x1="50.877" y1="8.379" x2="46.063" y2="8.379"/>
	</g>
	<g>
		<defs>
			<rect id="SVGID_9_" x="5.133" y="1" width="89.146" height="96.511"/>
		</defs>
		<clipPath id="SVGID_10_">
			<use xlink:href="#SVGID_9_"  overflow="visible"/>
		</clipPath>
		<rect x="46.063" y="6.447" clip-path="url(#SVGID_10_)" fill="#282D33" width="4.813" height="3.864"/>
	</g>
	<g>
		<defs>
			<rect id="SVGID_11_" x="5.133" y="1" width="89.146" height="96.511"/>
		</defs>
		<clipPath id="SVGID_12_">
			<use xlink:href="#SVGID_11_"  overflow="visible"/>
		</clipPath>
		<path clip-path="url(#SVGID_12_)" fill="#FFFFFF" d="M88.271,97.51v-4.895c2.474-1.85,4.078-4.791,4.078-8.114V66.901
			l-0.189-3.886c0-2.082-1.687-3.772-3.77-3.772s-3.771,0.747-3.771,2.829V61.13c0-2.085-1.688-3.771-3.771-3.771
			c-2.081,0-3.77,1.687-3.77,3.771v-1.887c0-2.082-1.688-3.768-3.771-3.768c-2.084,0-3.771,1.686-3.771,3.768v2.122
			c0-5.104-0.033-21.725-0.033-21.725c0-2.15-1.75-3.901-3.902-3.901c-2.155,0-3.899,1.751-3.899,3.901l-0.025,38.115l-0.077-1.855
			v-7.792c0-3.184-2.575-5.761-5.763-5.761h-1.918c-0.083,0,0.08,0.007,0,0.013v7.212c0.012,0-0.015,0.003,0,0.005v9.567
			l10.921,12.978c0,0,2.829,1.796,4.571,2.221v3.17"/>
	</g>
	<g>
		<defs>
			<rect id="SVGID_13_" x="5.133" y="1" width="89.146" height="96.511"/>
		</defs>
		<clipPath id="SVGID_14_">
			<use xlink:href="#SVGID_13_"  overflow="visible"/>
		</clipPath>
		<path clip-path="url(#SVGID_14_)" fill="#282D33" d="M90.203,97.51h-3.864v-5.862l0.774-0.579
			c2.099-1.569,3.303-3.965,3.303-6.568v-17.6l-0.186-3.792c-0.003-1.109-0.827-1.935-1.841-1.935c-1.834,0-1.84,0.58-1.84,0.893
			v0.005h-3.864v-0.943c0-1.014-0.825-1.84-1.838-1.84c-1.014,0-1.838,0.826-1.838,1.84h-3.863v-1.886
			c0-1.012-0.826-1.836-1.84-1.836s-1.838,0.825-1.838,1.836v2.112v0.011h-3.864c0-5.104-0.034-21.721-0.034-21.721
			c0-1.089-0.884-1.974-1.97-1.974c-1.084,0-1.967,0.884-1.967,1.969l-0.026,38.115l-3.861,0.081l-0.079-1.857l-0.002-7.872
			c0-2.107-1.71-3.821-3.814-3.829v5.125l0.236,1.497l-0.236,0.076v7.461l10.27,12.206c1.043,0.639,2.789,1.587,3.747,1.818
			l1.475,0.36v4.689h-3.863v-1.801c-1.695-0.715-3.432-1.802-3.675-1.956l-0.252-0.159L51.987,79.847V69.711l-0.119-1.509
			l0.119-0.038v-4.089l-0.104-0.012l0.104-2.205v-1.3l0.072-0.005l0.009-0.141l3.769-0.001c1.429,0,2.77,0.393,3.918,1.074
			l0.013-21.848c0-3.216,2.616-5.833,5.831-5.833c3.218,0,5.834,2.617,5.834,5.833c0,0,0.016,7.684,0.025,14.208
			c0.58-0.199,1.2-0.307,1.847-0.307c2.001,0,3.765,1.035,4.783,2.598c0.817-0.454,1.758-0.713,2.759-0.713
			c1.912,0,3.607,0.947,4.644,2.396c0.775-0.321,1.733-0.512,2.898-0.512c3.145,0,5.702,2.561,5.702,5.705l0.186,3.794l0.003,17.691
			c0,3.502-1.474,6.742-4.077,9.033v3.979H90.203z"/>
	</g>
	<g>
		<defs>
			<rect id="SVGID_15_" x="5.133" y="1" width="89.146" height="96.511"/>
		</defs>
		<clipPath id="SVGID_16_">
			<use xlink:href="#SVGID_15_"  overflow="visible"/>
		</clipPath>
		<path clip-path="url(#SVGID_16_)" fill="#FFFFFF" d="M15.522,47.026l0.044-0.097l12.822,0.194c0.004,0.091,0.015,0.177,0.012,0.27
			l-0.034,2.133c-0.057,3.537-2.971,6.358-6.506,6.299l-1.405-0.045l-1.982,5.953c4.027,2.97,6.749,8.64,6.749,15.147
			c0,5-1.607,9.503-4.176,12.67H9.844V59.875L15.522,47.026z"/>
	</g>
	<g>
		<defs>
			<rect id="SVGID_17_" x="5.133" y="1" width="89.146" height="96.511"/>
		</defs>
		<clipPath id="SVGID_18_">
			<use xlink:href="#SVGID_17_"  overflow="visible"/>
		</clipPath>
		<path clip-path="url(#SVGID_18_)" fill="#282D33" d="M21.967,91.484H7.912V59.467l6.429-14.488l15.883,0.239l0.093,1.806
			c0.012,0.17,0.019,0.296,0.015,0.428l-0.034,2.106c-0.071,4.521-3.809,8.201-8.331,8.201l-0.132-0.002l-1.106,3.323
			c3.995,3.58,6.427,9.489,6.427,15.8c0,5.294-1.636,10.226-4.607,13.887L21.967,91.484z M11.777,87.62h8.312
			c2.045-2.876,3.202-6.734,3.202-10.738c0-5.671-2.285-10.881-5.964-13.592l-1.13-0.833l2.883-8.651l2.841,0.092
			c2.472,0,4.476-1.975,4.514-4.4l0.009-0.469l-9.63-0.145l-5.037,11.399V87.62z"/>
	</g>
	<g>
		<defs>
			<rect id="SVGID_19_" x="5.133" y="1" width="89.146" height="96.511"/>
		</defs>
		<clipPath id="SVGID_20_">
			<use xlink:href="#SVGID_19_"  overflow="visible"/>
		</clipPath>
		<polyline clip-path="url(#SVGID_20_)" fill="#F8C44F" points="34.98,97.51 34.98,87.362 5.133,87.362 5.133,97.51 		"/>
	</g>
	<g>
		<defs>
			<rect id="SVGID_21_" x="5.133" y="1" width="89.146" height="96.511"/>
		</defs>
		<clipPath id="SVGID_22_">
			<use xlink:href="#SVGID_21_"  overflow="visible"/>
		</clipPath>
		<path clip-path="url(#SVGID_22_)" fill="#282D33" d="M46.043,33.481H26.722V16.093h19.321V33.481z M30.587,29.617h11.592v-9.661
			H30.587V29.617z"/>
	</g>
	<g>
		<defs>
			<rect id="SVGID_23_" x="5.133" y="1" width="89.146" height="96.511"/>
		</defs>
		<clipPath id="SVGID_24_">
			<use xlink:href="#SVGID_23_"  overflow="visible"/>
		</clipPath>
		<rect x="26.481" y="37.345" clip-path="url(#SVGID_24_)" fill="#282D33" width="29.384" height="3.864"/>
	</g>
	<g>
		<defs>
			<rect id="SVGID_25_" x="5.133" y="1" width="89.146" height="96.511"/>
		</defs>
		<clipPath id="SVGID_26_">
			<use xlink:href="#SVGID_25_"  overflow="visible"/>
		</clipPath>
		<rect x="33.243" y="45.074" clip-path="url(#SVGID_26_)" fill="#282D33" width="22.622" height="3.864"/>
	</g>
	<g>
		<defs>
			<rect id="SVGID_27_" x="5.133" y="1" width="89.146" height="96.511"/>
		</defs>
		<clipPath id="SVGID_28_">
			<use xlink:href="#SVGID_27_"  overflow="visible"/>
		</clipPath>
		<rect x="33.243" y="52.802" clip-path="url(#SVGID_28_)" fill="#282D33" width="22.622" height="3.865"/>
	</g>
	<g>
		<defs>
			<rect id="SVGID_29_" x="5.133" y="1" width="89.146" height="96.511"/>
		</defs>
		<clipPath id="SVGID_30_">
			<use xlink:href="#SVGID_29_"  overflow="visible"/>
		</clipPath>
		<rect x="26.481" y="60.53" clip-path="url(#SVGID_30_)" fill="#282D33" width="21.897" height="3.865"/>
	</g>
</g>
</svg>
