<?xml version="1.0" encoding="utf-8"?>
<!-- Generator: Adobe Illustrator 16.0.0, SVG Export Plug-In . SVG Version: 6.00 Build 0)  -->
<!DOCTYPE svg PUBLIC "-//W3C//DTD SVG 1.1//EN" "http://www.w3.org/Graphics/SVG/1.1/DTD/svg11.dtd">
<svg version="1.1" id="Camada_1" xmlns="http://www.w3.org/2000/svg" xmlns:xlink="http://www.w3.org/1999/xlink" x="0px" y="0px"
	 width="118.45px" height="100.035px" viewBox="0 0 118.45 100.035" enable-background="new 0 0 118.45 100.035"
	 xml:space="preserve">
<g>
	<defs>
		<rect id="SVGID_1_" width="118.45" height="100.035"/>
	</defs>
	<clipPath id="SVGID_2_">
		<use xlink:href="#SVGID_1_"  overflow="visible"/>
	</clipPath>
	<path clip-path="url(#SVGID_2_)" fill="#F8C44F" d="M73.441,15.372V8.404C73.441,4.865,76.308,2,79.847,2
		c3.538,0,6.405,2.865,6.405,6.404v6.967H73.441z"/>
	<path clip-path="url(#SVGID_2_)" fill="#F8C44F" d="M88.252,17.372H71.441V8.404C71.441,3.771,75.212,0,79.847,0
		s8.405,3.77,8.405,8.404V17.372z M75.441,13.372h8.811V8.404C84.252,5.976,82.275,4,79.847,4s-4.405,1.975-4.405,4.404V13.372z"/>
	<path clip-path="url(#SVGID_2_)" fill="#FFFFFF" d="M73.441,8.405v71.614h-0.02l0.02,1.071c0,3.286-2.492,5.989-5.679,6.357
		c-1.744,0-56.772-0.012-59.62,0c3.188-0.368,5.661-3.071,5.661-6.357v-1.46h0.024V8.405c0-3.287,2.471-5.99,5.659-6.358
		c1.742,0,56.77,0.012,59.617,0C75.917,2.415,73.441,5.118,73.441,8.405"/>
	<path clip-path="url(#SVGID_2_)" fill="#282D33" d="M67.878,89.448l-43.4-0.006c-8.636,0-15.378,0.002-16.327,0.006l-0.238-3.986
		c2.218-0.257,3.891-2.137,3.891-4.373l0.024-72.684c0-4.269,3.194-7.857,7.429-8.345l0.23-0.013l43.282,0.005
		c8.636,0,15.377-0.001,16.326-0.005l0.238,3.987c-2.219,0.256-3.892,2.136-3.892,4.371v73.614h-0.055
		c-0.438,3.862-3.47,6.961-7.394,7.416L67.878,89.448z M24.478,85.442l43.159,0.006c2.177-0.305,3.805-2.159,3.805-4.359
		l-0.057-3.07h0.057V8.405c0-1.587,0.441-3.079,1.214-4.354c-2.722,0.001-6.124,0.001-9.887,0.001L19.613,4.047
		c-2.165,0.301-3.785,2.157-3.785,4.358V81.63h-0.041c-0.088,1.385-0.513,2.685-1.198,3.814
		C17.312,85.442,20.715,85.442,24.478,85.442"/>
	<path clip-path="url(#SVGID_2_)" fill="#F8C44F" d="M61.616,77.87v3.22c0,3.286,2.474,5.988,5.661,6.357
		c-2.846-0.012-57.875,0-59.617,0C4.472,87.078,2,84.376,2,81.09v-3.22H61.616z"/>
	<path clip-path="url(#SVGID_2_)" fill="#F8C44F" d="M7.66,89.447l-0.23-0.013C3.194,88.943,0,85.356,0,81.09v-5.22h63.616v5.22
		c0,2.234,1.673,4.114,3.892,4.372l-0.238,3.985c-0.948-0.004-7.692-0.005-16.327-0.005L7.66,89.447z M4,79.87v1.22
		c0,2.2,1.62,4.055,3.786,4.357l43.157-0.005c3.762,0,7.165,0,9.888,0.001c-0.773-1.273-1.215-2.767-1.215-4.354v-1.22H4z"/>
	<path clip-path="url(#SVGID_2_)" fill="#282D33" d="M88.252,17.364h-4V8.405C84.252,5.976,82.275,4,79.847,4
		s-4.405,1.975-4.405,4.404h-4C71.441,3.771,75.212,0,79.847,0s8.405,3.77,8.405,8.404V17.364z"/>
	<path clip-path="url(#SVGID_2_)" fill="#282D33" d="M67.646,89.447c-4.277,0-8.03-3.904-8.03-8.357v-5.186h4v5.186
		c0,2.2,1.996,4.357,4.03,4.357V89.447z"/>
	<rect x="32.771" y="13.412" clip-path="url(#SVGID_2_)" fill="#282D33" width="32.486" height="4"/>
	<rect x="32.771" y="20.844" clip-path="url(#SVGID_2_)" fill="#282D33" width="13.236" height="4"/>
	<rect x="21.606" y="13.437" clip-path="url(#SVGID_2_)" fill="#5EB4E7" width="7.208" height="7.208"/>
	<rect x="32.77" y="33.599" clip-path="url(#SVGID_2_)" fill="#282D33" width="32.84" height="4"/>
	<rect x="32.77" y="41.032" clip-path="url(#SVGID_2_)" fill="#282D33" width="32.84" height="4"/>
	<rect x="21.606" y="33.624" clip-path="url(#SVGID_2_)" fill="#5EB4E7" width="7.208" height="7.208"/>
	<rect x="32.771" y="53.6" clip-path="url(#SVGID_2_)" fill="#282D33" width="13.236" height="4"/>
	<rect x="32.771" y="61.032" clip-path="url(#SVGID_2_)" fill="#282D33" width="13.236" height="4"/>
	<rect x="21.606" y="53.624" clip-path="url(#SVGID_2_)" fill="#5EB4E7" width="7.208" height="7.208"/>
	<path clip-path="url(#SVGID_2_)" fill="#F8C44F" d="M101.749,86.167c-2.307,0-4.299,1.318-5.281,3.237h-5.711
		c1.211-4.953,5.666-8.633,10.992-8.633c2.482,0,4.769,0.809,6.631,2.159h7.936v6.474h-3.576h-5.709
		C106.05,87.485,104.054,86.167,101.749,86.167"/>
	<polygon clip-path="url(#SVGID_2_)" fill="#5EB4E7" points="94.655,68.649 108.526,68.649 104.526,54.736 94.655,54.736 	"/>
	<path clip-path="url(#SVGID_2_)" fill="#282D33" d="M118.315,91.404h-12.509l-0.558-1.09c-0.677-1.324-2.018-2.146-3.5-2.146
		c-1.48,0-2.822,0.823-3.501,2.147l-0.558,1.089h-10.35V47.087h22.06l7.837,22.852v8.991h1.078V91.404z M108.141,87.404h6.175V82.93
		h-1.078V70.605l-6.694-19.519H91.341v36.317h4.018c1.48-2.022,3.832-3.236,6.391-3.236
		C104.31,84.168,106.662,85.382,108.141,87.404"/>
	<rect x="25.758" y="37.712" clip-path="url(#SVGID_2_)" fill="#FFFFFF" width="63.71" height="44.486"/>
	<path clip-path="url(#SVGID_2_)" fill="#282D33" d="M91.468,84.198h-67.71V35.712h67.71V84.198z M27.758,80.198h59.71V39.712
		h-59.71V80.198z"/>
	<rect x="31.758" y="43.711" clip-path="url(#SVGID_2_)" fill="#F8C44F" width="51.71" height="30.486"/>
	<rect x="23.831" y="80.868" clip-path="url(#SVGID_2_)" fill="#FFFFFF" width="65.637" height="8.574"/>
	<path clip-path="url(#SVGID_2_)" fill="#282D33" d="M91.468,91.443H21.831V78.869h69.637V91.443z M25.831,87.443h61.637v-4.574
		H25.831V87.443z"/>
	<line clip-path="url(#SVGID_2_)" fill="#FFFFFF" x1="88.812" y1="89.366" x2="81.438" y2="89.366"/>
	<rect x="81.439" y="87.366" clip-path="url(#SVGID_2_)" fill="#282D33" width="7.372" height="4"/>
	<path clip-path="url(#SVGID_2_)" fill="#FFFFFF" d="M95.815,92.101c0,3.278,2.656,5.936,5.934,5.936s5.934-2.657,5.934-5.936
		c0-3.277-2.656-5.934-5.934-5.934S95.815,88.823,95.815,92.101"/>
	<path clip-path="url(#SVGID_2_)" fill="#282D33" d="M101.749,100.035c-4.375,0-7.934-3.559-7.934-7.934s3.559-7.935,7.934-7.935
		s7.934,3.56,7.934,7.935S106.124,100.035,101.749,100.035 M101.749,88.167c-2.169,0-3.934,1.766-3.934,3.935
		s1.765,3.934,3.934,3.934s3.934-1.765,3.934-3.934S103.918,88.167,101.749,88.167"/>
	<path clip-path="url(#SVGID_2_)" fill="#FFFFFF" d="M65.628,92.101c0,3.278,2.656,5.936,5.937,5.936
		c3.274,0,5.931-2.657,5.931-5.936c0-3.277-2.656-5.934-5.931-5.934C68.284,86.167,65.628,88.823,65.628,92.101"/>
	<path clip-path="url(#SVGID_2_)" fill="#282D33" d="M71.563,100.035c-4.376,0-7.936-3.559-7.936-7.934s3.56-7.935,7.936-7.935
		c4.373,0,7.932,3.56,7.932,7.935S75.937,100.035,71.563,100.035 M71.563,88.167c-2.17,0-3.936,1.766-3.936,3.935
		s1.766,3.934,3.936,3.934c2.168,0,3.932-1.765,3.932-3.934S73.731,88.167,71.563,88.167"/>
	<path clip-path="url(#SVGID_2_)" fill="#FFFFFF" d="M30.304,92.101c0,3.278,2.66,5.936,5.936,5.936
		c3.277,0,5.935-2.657,5.935-5.936c0-3.277-2.658-5.934-5.935-5.934C32.964,86.167,30.304,88.823,30.304,92.101"/>
	<path clip-path="url(#SVGID_2_)" fill="#282D33" d="M36.239,100.035c-4.376,0-7.936-3.559-7.936-7.934s3.56-7.935,7.936-7.935
		s7.936,3.56,7.936,7.935S40.615,100.035,36.239,100.035 M36.239,88.167c-2.17,0-3.936,1.766-3.936,3.935s1.766,3.934,3.936,3.934
		s3.936-1.765,3.936-3.934S38.409,88.167,36.239,88.167"/>
	<path clip-path="url(#SVGID_2_)" fill="#FFFFFF" d="M30.304,92.101c0,3.278,2.66,5.936,5.936,5.936
		c3.277,0,5.935-2.657,5.935-5.936c0-3.277-2.658-5.934-5.935-5.934C32.964,86.167,30.304,88.823,30.304,92.101"/>
	<path clip-path="url(#SVGID_2_)" fill="#282D33" d="M36.239,100.035c-4.376,0-7.936-3.559-7.936-7.934s3.56-7.935,7.936-7.935
		s7.936,3.56,7.936,7.935S40.615,100.035,36.239,100.035 M36.239,88.167c-2.17,0-3.936,1.766-3.936,3.935s1.766,3.934,3.936,3.934
		s3.936-1.765,3.936-3.934S38.409,88.167,36.239,88.167"/>
	<path clip-path="url(#SVGID_2_)" fill="#FFFFFF" d="M101.749,92.798c-0.385,0-0.697-0.313-0.697-0.696
		c0-0.385,0.313-0.697,0.697-0.697s0.697,0.313,0.697,0.697C102.446,92.485,102.134,92.798,101.749,92.798"/>
	<path clip-path="url(#SVGID_2_)" fill="#282D33" d="M101.749,89.404c-1.488,0-2.697,1.209-2.697,2.696
		c0,1.491,1.209,2.698,2.697,2.698c1.49,0,2.697-1.207,2.697-2.698C104.446,90.613,103.239,89.404,101.749,89.404"/>
	<path clip-path="url(#SVGID_2_)" fill="#FFFFFF" d="M71.563,92.798c-0.386,0-0.699-0.313-0.699-0.696
		c0-0.385,0.313-0.697,0.699-0.697c0.383,0,0.694,0.313,0.694,0.697C72.258,92.485,71.946,92.798,71.563,92.798"/>
	<path clip-path="url(#SVGID_2_)" fill="#282D33" d="M71.563,89.404c-1.49,0-2.699,1.209-2.699,2.696
		c0,1.491,1.209,2.698,2.699,2.698c1.488,0,2.694-1.207,2.694-2.698C74.258,90.613,73.052,89.404,71.563,89.404"/>
	<path clip-path="url(#SVGID_2_)" fill="#FFFFFF" d="M36.239,92.798c-0.385,0-0.697-0.313-0.697-0.696
		c0-0.385,0.312-0.697,0.697-0.697c0.386,0,0.699,0.313,0.699,0.697C36.938,92.485,36.625,92.798,36.239,92.798"/>
	<path clip-path="url(#SVGID_2_)" fill="#282D33" d="M36.239,89.404c-1.49,0-2.697,1.209-2.697,2.696
		c0,1.491,1.207,2.698,2.697,2.698c1.492,0,2.699-1.207,2.699-2.698C38.938,90.613,37.731,89.404,36.239,89.404"/>
	<line clip-path="url(#SVGID_2_)" fill="#FFFFFF" x1="118.45" y1="75.534" x2="110.931" y2="75.534"/>
	<rect x="110.93" y="73.534" clip-path="url(#SVGID_2_)" fill="#282D33" width="7.521" height="4"/>
	<rect x="35.853" y="47.954" clip-path="url(#SVGID_2_)" fill="#282D33" width="16" height="4"/>
</g>
</svg>
