<?xml version="1.0" encoding="utf-8"?>
<!-- Generator: Adobe Illustrator 16.0.0, SVG Export Plug-In . SVG Version: 6.00 Build 0)  -->
<!DOCTYPE svg PUBLIC "-//W3C//DTD SVG 1.1//EN" "http://www.w3.org/Graphics/SVG/1.1/DTD/svg11.dtd">
<svg version="1.1" id="Layer_4" xmlns="http://www.w3.org/2000/svg" xmlns:xlink="http://www.w3.org/1999/xlink" x="0px" y="0px"
	 width="113.439px" height="100.694px" viewBox="0 0 113.439 100.694" enable-background="new 0 0 113.439 100.694"
	 xml:space="preserve">
<g>
	<line fill="#384663" x1="62.634" y1="74.682" x2="54.799" y2="74.682"/>
	<rect x="54.799" y="72.682" fill="#384663" width="7.835" height="4"/>
</g>
<g>
	<path fill="#384663" d="M10.071,76.682c-3.137,0-5.688-2.551-5.688-5.688V10.533c0-3.137,2.551-5.688,5.688-5.688h89.826
		c3.136,0,5.688,2.552,5.688,5.688v41.709h-4V10.533c0-0.931-0.757-1.688-1.688-1.688H10.071c-0.931,0-1.688,0.757-1.688,1.688
		v60.461c0,0.931,0.757,1.688,1.688,1.688V76.682z"/>
</g>
<g>
	<g>
		<g>
			<rect x="14.526" y="13.918" fill="#5EB4E7" width="5.868" height="4"/>
		</g>
		<g>
			<rect x="23.016" y="13.918" fill="#5EB4E7" width="5.869" height="4"/>
		</g>
		<g>
			<rect x="31.506" y="13.918" fill="#5EB4E7" width="5.867" height="4"/>
		</g>
		<g>
			<rect x="39.994" y="13.918" fill="#5EB4E7" width="5.869" height="4"/>
		</g>
		<g>
			<rect x="48.484" y="13.918" fill="#5EB4E7" width="5.867" height="4"/>
		</g>
		<g>
			<rect x="56.973" y="13.918" fill="#5EB4E7" width="5.87" height="4"/>
		</g>
		<g>
			<rect x="65.464" y="13.918" fill="#5EB4E7" width="5.866" height="4"/>
		</g>
		<g>
			<rect x="73.951" y="13.918" fill="#5EB4E7" width="5.87" height="4"/>
		</g>
		<g>
			<rect x="82.442" y="13.918" fill="#5EB4E7" width="5.868" height="4"/>
		</g>
		<g>
			<rect x="90.932" y="13.918" fill="#5EB4E7" width="5.867" height="4"/>
		</g>
	</g>
	<g>
		<g>
			<rect x="14.526" y="20.688" fill="#5EB4E7" width="5.868" height="4"/>
		</g>
		<g>
			<rect x="23.016" y="20.688" fill="#5EB4E7" width="5.869" height="4"/>
		</g>
		<g>
			<rect x="31.506" y="20.688" fill="#5EB4E7" width="5.867" height="4"/>
		</g>
		<g>
			<rect x="39.994" y="20.688" fill="#5EB4E7" width="5.869" height="4"/>
		</g>
		<g>
			<rect x="48.484" y="20.688" fill="#5EB4E7" width="5.867" height="4"/>
		</g>
		<g>
			<rect x="56.973" y="20.688" fill="#5EB4E7" width="5.87" height="4"/>
		</g>
		<g>
			<rect x="65.464" y="20.688" fill="#5EB4E7" width="5.866" height="4"/>
		</g>
		<g>
			<rect x="73.951" y="20.688" fill="#5EB4E7" width="5.87" height="4"/>
		</g>
		<g>
			<rect x="82.442" y="20.688" fill="#5EB4E7" width="5.868" height="4"/>
		</g>
		<g>
			<rect x="90.932" y="20.688" fill="#5EB4E7" width="5.867" height="4"/>
		</g>
	</g>
	<g>
		<g>
			<rect x="14.526" y="27.46" fill="#5EB4E7" width="5.868" height="4"/>
		</g>
		<g>
			<rect x="23.016" y="27.46" fill="#5EB4E7" width="5.869" height="4"/>
		</g>
		<g>
			<rect x="31.506" y="27.46" fill="#5EB4E7" width="5.867" height="4"/>
		</g>
		<g>
			<rect x="39.994" y="27.46" fill="#5EB4E7" width="5.869" height="4"/>
		</g>
		<g>
			<rect x="48.484" y="27.46" fill="#5EB4E7" width="5.867" height="4"/>
		</g>
		<g>
			<rect x="56.973" y="27.46" fill="#5EB4E7" width="5.87" height="4"/>
		</g>
		<g>
			<rect x="65.464" y="27.46" fill="#5EB4E7" width="5.866" height="4"/>
		</g>
		<g>
			<rect x="73.951" y="27.46" fill="#5EB4E7" width="5.87" height="4"/>
		</g>
		<g>
			<rect x="82.442" y="27.46" fill="#5EB4E7" width="5.868" height="4"/>
		</g>
		<g>
			<rect x="90.932" y="27.46" fill="#5EB4E7" width="5.867" height="4"/>
		</g>
	</g>
	<g>
		<g>
			<rect x="14.526" y="34.23" fill="#5EB4E7" width="5.868" height="4"/>
		</g>
		<g>
			<rect x="23.016" y="34.23" fill="#5EB4E7" width="5.869" height="4"/>
		</g>
		<g>
			<rect x="31.506" y="34.23" fill="#5EB4E7" width="5.867" height="4"/>
		</g>
		<g>
			<rect x="39.994" y="34.23" fill="#5EB4E7" width="5.869" height="4"/>
		</g>
		<g>
			<rect x="48.484" y="34.23" fill="#5EB4E7" width="5.867" height="4"/>
		</g>
		<g>
			<rect x="56.973" y="34.23" fill="#5EB4E7" width="5.87" height="4"/>
		</g>
		<g>
			<rect x="65.464" y="34.23" fill="#5EB4E7" width="5.866" height="4"/>
		</g>
		<g>
			<rect x="73.951" y="34.23" fill="#5EB4E7" width="5.87" height="4"/>
		</g>
		<g>
			<rect x="82.442" y="34.23" fill="#5EB4E7" width="5.868" height="4"/>
		</g>
		<g>
			<rect x="90.932" y="34.23" fill="#5EB4E7" width="5.867" height="4"/>
		</g>
	</g>
	<g>
		<g>
			<rect x="14.526" y="41" fill="#5EB4E7" width="5.868" height="4"/>
		</g>
		<g>
			<rect x="23.016" y="41" fill="#5EB4E7" width="5.869" height="4"/>
		</g>
		<g>
			<rect x="31.506" y="41" fill="#5EB4E7" width="5.867" height="4"/>
		</g>
		<g>
			<rect x="39.994" y="41" fill="#5EB4E7" width="5.869" height="4"/>
		</g>
		<g>
			<rect x="48.484" y="41" fill="#5EB4E7" width="31.414" height="4"/>
		</g>
		<g>
			<rect x="82.442" y="41" fill="#5EB4E7" width="5.868" height="4"/>
		</g>
		<g>
			<rect x="90.932" y="41" fill="#5EB4E7" width="5.867" height="4"/>
		</g>
	</g>
</g>
<path fill="#FFFFFF" d="M109.969,7c-1.729-2.986-4.953-5-8.651-5H8.651C4.951,2,1.729,4.014,0,7H109.969z"/>
<path fill="#384663" d="M113.439,9H-3.47l1.739-3.002C0.411,2.298,4.39,0,8.651,0h92.666c4.261,0,8.239,2.298,10.382,5.997
	L113.439,9z M4.795,5h100.377c-1.164-0.645-2.487-1-3.854-1H8.651C7.283,4,5.96,4.355,4.795,5z"/>
<path fill="#FFFFFF" d="M103.427,60.869c0-1.952-1.583-3.533-3.532-3.533c-1.951,0-3.533,0.697-3.533,2.647v-0.882
	c0-1.951-1.58-3.533-3.531-3.533c-1.949,0-3.531,1.582-3.531,3.533v-1.766c0-1.951-1.581-3.532-3.531-3.532
	s-3.531,1.581-3.531,3.532v1.984c0-4.779-0.031-20.345-0.031-20.345c0-2.014-1.638-3.653-3.656-3.653
	c-2.018,0-3.651,1.64-3.651,3.653l-0.021,35.696l-0.071-1.738v-7.299c0-2.98-2.413-5.395-5.398-5.395h-1.796
	c-0.078,0,0.074,0.007,0,0.013v6.752c0.011,0.001-0.014,0.003,0,0.006v8.96l10.228,11.898c1.181,1.122,2.65,1.938,4.283,2.335v7.238
	h17.661v-8.854c2.317-1.731,3.818-4.486,3.818-7.599V64.508L103.427,60.869z"/>
<path fill="#384663" d="M101.783,99.442H80.122V91.66c-1.354-0.539-2.6-1.333-3.661-2.341l-0.139-0.146L65.611,76.712l-0.002-9.61
	l-0.071-1.54l0.073-0.023V62.01l-0.117-0.015l0.117-2.187v-1.404l0.088-0.007l0.01-0.157l3.698-0.001
	c1.257,0,2.441,0.315,3.479,0.87l0.012-20.135c0-3.116,2.535-5.652,5.651-5.652c3.119,0,5.656,2.536,5.656,5.653l0,0
	c0,0,0.014,6.995,0.023,13.046c0.489-0.142,1.006-0.218,1.539-0.218c1.877,0,3.539,0.94,4.54,2.375
	c0.757-0.389,1.614-0.61,2.522-0.61c1.801,0,3.404,0.865,4.414,2.202c0.724-0.275,1.6-0.435,2.65-0.435
	c3.051,0,5.532,2.482,5.532,5.533l0.173,3.542l0.002,16.579c0,3.305-1.379,6.366-3.818,8.544V99.442z M84.122,95.442h13.661v-7.855
	l0.803-0.6c1.917-1.433,3.016-3.618,3.016-5.997V64.508l-0.173-3.542c-0.002-0.942-0.689-1.63-1.534-1.63
	c-1.533,0-1.533,0.405-1.533,0.647h-4v-0.882c0-0.845-0.687-1.533-1.531-1.533c-0.844,0-1.531,0.688-1.531,1.533h-4v-1.766
	c0-0.845-0.687-1.532-1.531-1.532c-0.844,0-1.531,0.688-1.531,1.532l-0.007,1.974l-3.993,0.011v-0.003
	c0-4.805-0.031-20.337-0.031-20.337c0-0.916-0.743-1.657-1.656-1.657c-0.91,0-1.651,0.742-1.651,1.653l-0.021,35.697l-3.997,0.082
	l-0.073-1.738l-0.001-7.382c0-1.803-1.415-3.283-3.194-3.389v4.633l0.158,1.546l-0.158,0.05v6.754l9.674,11.254
	c0.933,0.863,2.074,1.476,3.31,1.777l1.527,0.372V95.442z"/>
<path fill="#FFFFFF" d="M42.939,59.458l0.021,15.214l0.071-1.738v-7.299c0-2.98,2.412-5.395,5.396-5.395h1.798
	c0.077,0-0.074,0.007,0,0.013v6.752c-0.011,0.001,0.014,0.003,0,0.006v8.96L39.998,87.869c-1.181,1.122-2.65,1.938-4.283,2.335
	v7.238h-9.214h-8.448v-8.854c-2.316-1.731-3.818-4.486-3.818-7.599V59.458"/>
<path fill="#384663" d="M37.715,99.442H16.053v-9.908c-2.438-2.179-3.818-5.239-3.818-8.544V59.458h4V80.99
	c0,2.378,1.1,4.564,3.017,5.997l0.802,0.6v7.855h13.662v-6.81l1.527-0.372c1.235-0.301,2.377-0.914,3.31-1.777l9.674-11.254v-6.742
	l-0.158-0.048l0.158-1.563v-4.631c-1.779,0.105-3.194,1.585-3.194,3.389v7.299l-0.074,1.821l-3.997-0.081L40.939,59.46l3.43-0.004
	c1.166-0.768,2.562-1.216,4.059-1.216h3.678l0.012,0.156l0.108,0.009l0.019,1.713l0.116,1.876l-0.135,0.017v3.515l0.063,0.02
	l-0.063,1.607v9.56l-10.85,12.607c-1.062,1.008-2.308,1.802-3.661,2.341V99.442z"/>
<path fill="#FFFFFF" d="M14.234,59.584V46.766c0-1.955,1.584-3.54,3.539-3.54l0,0c1.956,0,3.541,1.585,3.541,3.54v12.818"/>
<path fill="#384663" d="M23.314,59.584h-4V46.766c0-0.849-0.691-1.54-1.541-1.54c-0.848,0-1.539,0.691-1.539,1.54v12.818h-4V46.766
	c0-3.055,2.485-5.54,5.539-5.54c3.056,0,5.541,2.485,5.541,5.54V59.584z"/>
<path fill="#FFFFFF" d="M21.438,59.584V39.078c0-1.955,1.585-3.539,3.539-3.539l0,0c1.955,0,3.541,1.584,3.541,3.539v20.506"/>
<path fill="#384663" d="M30.518,59.584h-4V39.078c0-0.849-0.691-1.539-1.541-1.539c-0.849,0-1.539,0.69-1.539,1.539v20.506h-4
	V39.078c0-3.054,2.484-5.539,5.539-5.539s5.541,2.485,5.541,5.539V59.584z"/>
<path fill="#FFFFFF" d="M28.639,59.584V35.453c0-1.954,1.586-3.54,3.541-3.54l0,0c1.955,0,3.539,1.586,3.539,3.54v24.131"/>
<path fill="#384663" d="M37.719,59.584h-4V35.453c0-0.849-0.69-1.54-1.539-1.54c-0.85,0-1.541,0.691-1.541,1.54v24.131h-4V35.453
	c0-3.055,2.486-5.54,5.541-5.54s5.539,2.485,5.539,5.54V59.584z"/>
<path fill="#FFFFFF" d="M35.842,59.584V41.578c0-1.955,1.585-3.539,3.539-3.539l0,0c1.955,0,3.541,1.584,3.541,3.539v18.006"/>
<path fill="#384663" d="M44.922,59.584h-4V41.578c0-0.849-0.691-1.539-1.541-1.539c-0.849,0-1.539,0.69-1.539,1.539v18.006h-4
	V41.578c0-3.054,2.484-5.539,5.539-5.539s5.541,2.485,5.541,5.539V59.584z"/>
<g>
	<polyline fill="#F8C44F" points="110.38,100.694 110.38,93.761 74.432,93.761 74.432,100.694 	"/>
</g>
<g>
	<polyline fill="#01CBD6" points="7.457,100.694 7.457,93.761 43.405,93.761 43.405,100.694 	"/>
	<polyline fill="#F8C44F" points="7.457,100.694 7.457,93.761 43.405,93.761 43.405,100.694 	"/>
</g>
</svg>
