<?xml version="1.0" encoding="UTF-8"?>
<!DOCTYPE svg  PUBLIC '-//W3C//DTD SVG 1.1//EN'  'http://www.w3.org/Graphics/SVG/1.1/DTD/svg11.dtd'>
<svg enable-background="new 0 0 13 13" version="1.1" viewBox="0 0 13 13" xml:space="preserve" xmlns="http://www.w3.org/2000/svg">
	<path d="m12.786 5.192l-0.011 2e-3c-0.063-0.321-0.331-0.567-0.67-0.567-0.384 0-0.695 0.311-0.695 0.695 0 0.037 0.016 0.069 0.021 0.104l-0.034 6e-3c0.055 0.297 0.092 0.6 0.092 0.913 0 2.755-2.233 4.99-4.989 4.99s-4.99-2.235-4.99-4.991 2.234-4.99 4.99-4.99c0.622 0 1.211 0.128 1.76 0.335l0.014-0.022c0.105 0.066 0.223 0.114 0.355 0.114 0.377 0 0.683-0.305 0.683-0.682 0-0.246-0.138-0.452-0.333-0.572l7e-3 -0.011c-0.017-6e-3 -0.034-0.011-0.05-0.017-0.037-0.019-0.075-0.031-0.115-0.043-0.732-0.29-1.527-0.456-2.363-0.456-3.566 0-6.458 2.91-6.458 6.5s2.892 6.5 6.458 6.5 6.458-2.91 6.458-6.5c1e-3 -0.448-0.044-0.886-0.13-1.308z"/>
	<path d="m12.813 1.35c0.061-0.117 0.104-0.244 0.104-0.385 0-0.462-0.364-0.836-0.814-0.836-0.226 0-0.429 0.094-0.576 0.246l-0.016-0.012-4.407 5.823h-5e-3c-0.149 0.169-0.36 0.28-0.6 0.28-0.241 0-0.451-0.112-0.6-0.282l-1.358-1.027-0.012 0.015c-0.12-0.072-0.253-0.125-0.403-0.125-0.449 0-0.813 0.374-0.813 0.835 0 0.229 0.09 0.436 0.235 0.586l-4e-3 5e-3 2.126 1.609-0.017 0.022 0.712 0.54c0.011-2e-3 0.025-5e-3 0.036-7e-3 0.133 0.095 0.285 0.164 0.459 0.164 0.293 0 0.538-0.167 0.682-0.405 4e-3 -1e-3 9e-3 -2e-3 0.013-3e-3l0.46-0.607-0.03-0.023 4.843-6.401-0.015-0.012z"/>
</svg>
