<?xml version="1.0" encoding="utf-8"?>
<!-- Generator: Adobe Illustrator 16.0.0, SVG Export Plug-In . SVG Version: 6.00 Build 0)  -->
<!DOCTYPE svg PUBLIC "-//W3C//DTD SVG 1.1//EN" "http://www.w3.org/Graphics/SVG/1.1/DTD/svg11.dtd">
<svg version="1.1" id="Camada_1" xmlns="http://www.w3.org/2000/svg" xmlns:xlink="http://www.w3.org/1999/xlink" x="0px" y="0px"
	 width="435px" height="98.444px" viewBox="0 0 435 98.444" enable-background="new 0 0 435 98.444" xml:space="preserve">
<g>
	<path fill="#FFFFFF" d="M78.456,0C45.469,25.218,19.527,59.185,4.111,98.444h6.474C26.715,58.621,54.006,24.516,88.575,0H78.456z"
		/>
	<path fill="#FFFFFF" d="M356.543,0h-10.119c34.57,24.516,61.861,58.621,77.99,98.444h6.474C415.473,59.185,389.53,25.218,356.543,0
		z"/>
</g>
<path fill="#FFFFFF" d="M73.985,98.444c28.818-49.292,82.294-82.411,143.515-82.411c61.22,0,114.696,33.119,143.514,82.411h8.093
	C339.593,45.114,282.769,9,217.5,9S95.407,45.114,65.893,98.444H73.985z"/>
</svg>
