<?xml version="1.0" encoding="utf-8"?>
<!-- Generator: Adobe Illustrator 16.0.0, SVG Export Plug-In . SVG Version: 6.00 Build 0)  -->
<!DOCTYPE svg PUBLIC "-//W3C//DTD SVG 1.1//EN" "http://www.w3.org/Graphics/SVG/1.1/DTD/svg11.dtd">
<svg version="1.1" id="Isolation_Mode" xmlns="http://www.w3.org/2000/svg" xmlns:xlink="http://www.w3.org/1999/xlink" x="0px"
	 y="0px" width="100%" height="100%" viewBox="0 0 800.935 410.796" enable-background="new 0 0 800.935 410.796"
	 xml:space="preserve">
<path fill="#EAEDF4" d="M607.752,245.516c0.075-0.488,0.157-0.98,0.231-1.467l0.095-0.573c5.534-30.486-12.22-38.244-17.8-39.895
	c-0.405-0.112-0.817-0.236-1.233-0.333c-6.288-1.547-12.776-0.556-17.81,2.729c-5.787,3.777-9.394,9.878-10.732,18.137
	c-1.648,11.845-4.121,23.054-6.96,31.479c-13.043,38.271-40.031,69.493-75.99,87.959c-35.86,18.407-76.827,22.249-115.396,10.813
	c-2.038-0.604-4.094-1.261-6.116-1.94c-39.241-13.375-70.938-41.243-89.255-78.459c-18.333-37.255-21.049-79.409-7.667-118.7
	c13.016-38.189,39.981-69.449,75.909-87.991c35.857-18.511,76.773-22.425,115.242-11.032c2.033,0.604,4.062,1.252,6.069,1.941
	c15.028,4.806,27.484,13.228,38.47,20.649c9.014,6.096,16.81,11.369,24.277,13.577c8.687,2.582,15.96,0.506,23.542-6.69
	c4.383-4.731,6.471-10.269,6.185-16.464c-0.344-7.573-4.325-15.482-10.66-21.157c-19.404-16.321-41.555-28.798-65.754-37.044
	c-2.651-0.9-5.373-1.767-8.054-2.566c-50.87-15.07-104.898-9.952-152.149,14.412c-47.385,24.449-82.97,65.746-100.201,116.306
	c-17.7,51.943-14.141,107.651,10.018,156.83c24.166,49.183,66.03,86.005,117.908,103.673c2.667,0.917,5.393,1.783,8.063,2.57
	c50.962,15.096,105.082,10.011,152.385-14.339c47.436-24.432,83.062-65.716,100.275-116.257
	C603.841,262.327,606.161,253.766,607.752,245.516z"/>
<path fill="#EAEDF4" d="M729.419,102.4c-0.035-0.038-0.068-0.077-0.104-0.113l-0.04-0.044c-2.087-2.397-3.847-1.474-4.336-1.132
	c-0.035,0.024-0.071,0.051-0.105,0.078c-0.527,0.404-0.864,0.986-0.923,1.601c-0.069,0.705,0.189,1.385,0.764,2.022
	c0.844,0.891,1.583,1.808,2.076,2.574c2.229,3.498,3.001,7.661,2.174,11.725c-0.823,4.053-3.143,7.579-6.529,9.936
	c-0.18,0.125-0.362,0.248-0.547,0.365c-3.586,2.286-7.85,3.039-12.004,2.121c-4.161-0.92-7.711-3.404-10-6.994
	c-2.226-3.491-3-7.653-2.182-11.72c0.813-4.058,3.124-7.587,6.501-9.938c0.179-0.125,0.361-0.244,0.546-0.362
	c1.348-0.896,2.82-1.353,4.117-1.757c1.067-0.331,1.99-0.619,2.645-1.074c0.764-0.529,1.064-1.246,0.974-2.314
	c-0.098-0.655-0.407-1.177-0.922-1.551c-0.628-0.458-1.519-0.646-2.377-0.502c-2.552,0.508-4.973,1.482-7.183,2.893
	c-0.242,0.153-0.486,0.316-0.722,0.479c-4.47,3.109-7.521,7.765-8.598,13.111c-1.079,5.361-0.052,10.858,2.894,15.479
	c3.026,4.746,7.717,8.032,13.204,9.251c5.487,1.215,11.12,0.222,15.86-2.801c0.244-0.154,0.489-0.318,0.723-0.481
	c4.477-3.113,7.537-7.775,8.618-13.124c1.083-5.366,0.061-10.864-2.886-15.483C730.514,103.79,729.978,103.055,729.419,102.4z"/>
<path fill="#EAEDF4" d="M652.251,199.986c0.016,0.062,0.029,0.123,0.045,0.184l0.019,0.071c0.843,3.825,3.292,3.864,4.023,3.784
	c0.052-0.006,0.106-0.013,0.16-0.022c0.809-0.127,1.518-0.558,1.943-1.188c0.491-0.722,0.612-1.61,0.368-2.639
	c-0.388-1.462-0.646-2.891-0.728-4.012c-0.349-5.102,1.274-10.062,4.567-13.97c3.283-3.899,7.875-6.347,12.93-6.897
	c0.27-0.029,0.539-0.054,0.809-0.072c5.229-0.357,10.287,1.345,14.24,4.791c3.96,3.451,6.335,8.235,6.693,13.471
	c0.348,5.091-1.272,10.053-4.557,13.97c-3.276,3.91-7.86,6.364-12.901,6.915c-0.268,0.029-0.535,0.051-0.805,0.07
	c-1.987,0.174-3.851-0.201-5.492-0.529c-1.351-0.271-2.52-0.504-3.496-0.398c-1.139,0.121-1.887,0.721-2.419,1.93
	c-0.281,0.767-0.254,1.514,0.082,2.223c0.409,0.866,1.262,1.596,2.275,1.945c3.062,0.957,6.256,1.332,9.48,1.109
	c0.352-0.021,0.713-0.055,1.063-0.092c6.673-0.727,12.721-3.964,17.043-9.113c4.332-5.164,6.465-11.719,6.006-18.457
	c-0.474-6.923-3.608-13.246-8.827-17.805c-5.221-4.554-11.902-6.804-18.815-6.332c-0.355,0.023-0.718,0.056-1.066,0.095
	c-6.683,0.727-12.745,3.965-17.072,9.114c-4.339,5.167-6.479,11.72-6.017,18.457C651.887,197.837,652.032,198.948,652.251,199.986z"
	/>
<path fill="#EAEDF4" d="M791.534,188.469c0.023-0.001,0.047-0.002,0.069-0.005h0.028c1.45-0.059,1.625-0.949,1.643-1.222
	c0.002-0.02,0.002-0.039,0.002-0.06c0.007-0.304-0.105-0.59-0.307-0.787c-0.231-0.226-0.547-0.328-0.938-0.306
	c-0.559,0.046-1.098,0.047-1.511,0.003c-1.885-0.206-3.587-1.123-4.797-2.578c-1.208-1.453-1.801-3.287-1.672-5.167
	c0.007-0.101,0.016-0.2,0.026-0.299c0.211-1.931,1.162-3.664,2.678-4.883c1.518-1.218,3.418-1.772,5.351-1.56
	c1.88,0.205,3.583,1.121,4.797,2.574c1.213,1.45,1.809,3.282,1.681,5.156c-0.008,0.101-0.017,0.199-0.027,0.298
	c-0.066,0.737-0.324,1.392-0.551,1.971c-0.188,0.473-0.35,0.885-0.375,1.248c-0.03,0.424,0.139,0.734,0.545,1.009
	c0.264,0.152,0.537,0.191,0.818,0.114c0.341-0.092,0.664-0.355,0.857-0.702c0.549-1.055,0.894-2.194,1.023-3.386
	c0.016-0.13,0.027-0.263,0.035-0.394c0.172-2.481-0.614-4.899-2.209-6.812c-1.602-1.918-3.854-3.124-6.341-3.396
	c-2.556-0.279-5.067,0.45-7.07,2.058c-2.003,1.605-3.26,3.896-3.538,6.448c-0.015,0.132-0.027,0.265-0.035,0.395
	c-0.172,2.485,0.613,4.908,2.21,6.822c1.601,1.922,3.851,3.13,6.338,3.4C790.726,188.462,791.14,188.481,791.534,188.469z"/>
<path fill="#EAEDF4" d="M761.675,278.649c0.043-0.002,0.086-0.006,0.127-0.012l0.051-0.004c2.66-0.205,2.92-1.853,2.935-2.353
	c0.002-0.037,0.002-0.073,0.001-0.109c-0.008-0.559-0.231-1.078-0.615-1.426c-0.439-0.398-1.027-0.566-1.745-0.498
	c-1.022,0.122-2.011,0.159-2.774,0.108c-3.473-0.252-6.662-1.819-8.984-4.414c-2.316-2.585-3.528-5.914-3.417-9.375
	c0.005-0.183,0.013-0.368,0.026-0.551c0.258-3.562,1.889-6.811,4.589-9.148c2.703-2.341,6.157-3.484,9.722-3.229
	c3.466,0.251,6.657,1.816,8.985,4.404c2.323,2.582,3.542,5.907,3.434,9.359c-0.007,0.182-0.016,0.366-0.03,0.55
	c-0.071,1.355-0.502,2.577-0.88,3.652c-0.312,0.885-0.581,1.651-0.603,2.319c-0.026,0.778,0.307,1.341,1.07,1.814
	c0.491,0.264,0.996,0.316,1.508,0.157c0.623-0.193,1.195-0.699,1.528-1.35c0.937-1.973,1.495-4.092,1.653-6.287
	c0.018-0.239,0.029-0.485,0.039-0.726c0.145-4.567-1.461-8.956-4.521-12.361c-3.068-3.413-7.287-5.476-11.875-5.808
	c-4.712-0.342-9.275,1.169-12.848,4.255c-3.566,3.086-5.721,7.377-6.063,12.084c-0.018,0.241-0.029,0.488-0.037,0.729
	c-0.146,4.574,1.459,8.971,4.518,12.38c3.072,3.419,7.287,5.486,11.874,5.817C760.19,278.692,760.954,278.7,761.675,278.649z"/>
<path fill="#EAEDF4" d="M603.599,140.454c-0.019-0.002-0.036-0.003-0.054-0.002l-0.022-0.001c-1.135-0.059-1.332,0.623-1.366,0.833
	c-0.004,0.016-0.005,0.03-0.007,0.047c-0.027,0.235,0.04,0.467,0.182,0.635c0.164,0.191,0.403,0.295,0.71,0.305
	c0.438,0.004,0.858,0.043,1.178,0.105c1.452,0.295,2.713,1.131,3.552,2.353c0.837,1.218,1.168,2.688,0.932,4.145
	c-0.011,0.076-0.024,0.153-0.04,0.23c-0.304,1.489-1.168,2.772-2.436,3.612c-1.269,0.841-2.789,1.136-4.279,0.833
	c-1.45-0.294-2.712-1.129-3.554-2.348c-0.84-1.217-1.174-2.687-0.939-4.138c0.012-0.077,0.025-0.154,0.042-0.23
	c0.104-0.568,0.353-1.061,0.569-1.495c0.181-0.356,0.336-0.665,0.381-0.945c0.055-0.327-0.056-0.583-0.353-0.825
	c-0.192-0.138-0.403-0.187-0.628-0.147c-0.273,0.048-0.543,0.229-0.719,0.485c-0.503,0.782-0.854,1.646-1.04,2.565
	c-0.021,0.101-0.038,0.203-0.056,0.304c-0.31,1.921,0.13,3.86,1.235,5.464c1.11,1.608,2.778,2.709,4.696,3.1
	c1.972,0.399,3.98,0.011,5.657-1.097c1.673-1.109,2.815-2.804,3.216-4.772c0.021-0.101,0.039-0.204,0.055-0.305
	c0.312-1.924-0.127-3.867-1.232-5.472c-1.111-1.612-2.777-2.714-4.696-3.104C604.228,140.517,603.905,140.472,603.599,140.454z"/>
<path fill="#EAEDF4" d="M699.479,277.547c-0.015,0.021-0.027,0.044-0.039,0.066l-0.017,0.026c-0.837,1.355-0.134,2.06,0.104,2.243
	c0.018,0.014,0.035,0.025,0.054,0.038c0.271,0.193,0.602,0.267,0.903,0.203c0.348-0.071,0.635-0.295,0.854-0.664
	c0.302-0.537,0.632-1.028,0.925-1.377c1.344-1.59,3.222-2.576,5.288-2.784c2.064-0.208,4.096,0.378,5.728,1.647
	c0.087,0.068,0.173,0.137,0.256,0.207c1.628,1.377,2.622,3.306,2.802,5.433c0.177,2.129-0.483,4.197-1.862,5.825
	c-1.34,1.586-3.22,2.573-5.286,2.787c-2.064,0.214-4.097-0.367-5.723-1.633c-0.086-0.069-0.171-0.139-0.255-0.208
	c-0.63-0.513-1.067-1.148-1.456-1.711c-0.313-0.461-0.59-0.86-0.905-1.106c-0.367-0.287-0.754-0.325-1.252-0.123
	c-0.301,0.146-0.504,0.372-0.605,0.676c-0.125,0.366-0.085,0.821,0.113,1.21c0.622,1.147,1.448,2.159,2.453,3.008
	c0.108,0.095,0.223,0.187,0.336,0.274c2.152,1.678,4.836,2.446,7.553,2.168c2.729-0.281,5.208-1.591,6.982-3.687
	c1.82-2.154,2.698-4.888,2.463-7.697c-0.232-2.808-1.546-5.355-3.697-7.175c-0.112-0.095-0.225-0.188-0.337-0.274
	c-2.156-1.681-4.844-2.452-7.565-2.174c-2.73,0.278-5.21,1.585-6.981,3.683C699.981,276.815,699.71,277.181,699.479,277.547z"/>
<path fill="#EAEDF4" d="M69.057,103.676c0.033-0.039,0.064-0.08,0.099-0.118l0.038-0.045c1.978-2.488,3.777-1.644,4.281-1.324
	c0.036,0.023,0.073,0.048,0.108,0.074c0.545,0.38,0.907,0.946,0.993,1.558c0.101,0.701-0.127,1.392-0.673,2.055
	c-0.804,0.927-1.501,1.876-1.96,2.664c-2.071,3.593-2.657,7.786-1.65,11.81c1.003,4.012,3.477,7.432,6.965,9.635
	c0.186,0.117,0.373,0.232,0.563,0.341c3.684,2.124,7.977,2.688,12.086,1.585c4.116-1.104,7.553-3.743,9.68-7.432
	c2.068-3.586,2.656-7.779,1.658-11.805c-0.993-4.018-3.458-7.44-6.937-9.639c-0.184-0.117-0.371-0.228-0.562-0.338
	c-1.386-0.835-2.877-1.226-4.191-1.572c-1.08-0.283-2.016-0.529-2.689-0.955c-0.786-0.495-1.118-1.197-1.075-2.27
	c0.068-0.658,0.354-1.193,0.853-1.59c0.606-0.485,1.488-0.713,2.352-0.607c2.572,0.395,5.033,1.26,7.305,2.57
	c0.248,0.143,0.5,0.295,0.742,0.447c4.604,2.908,7.857,7.423,9.172,12.716c1.316,5.309,0.534,10.846-2.203,15.593
	c-2.812,4.876-7.352,8.368-12.779,9.829c-5.428,1.458-11.1,0.716-15.969-2.093c-0.251-0.144-0.504-0.296-0.744-0.449
	c-4.61-2.911-7.875-7.432-9.192-12.728c-1.321-5.313-0.544-10.851,2.194-15.597C68.025,105.112,68.527,104.354,69.057,103.676z"/>
<path fill="#EAEDF4" d="M144.486,197.734c-0.013,0.063-0.023,0.124-0.036,0.186l-0.016,0.072c-0.672,3.858-3.116,4.007-3.851,3.959
	c-0.053-0.003-0.107-0.008-0.162-0.015c-0.813-0.092-1.54-0.49-1.994-1.101c-0.522-0.699-0.683-1.581-0.484-2.619
	c0.322-1.479,0.518-2.917,0.549-4.04c0.121-5.112-1.721-9.995-5.185-13.753c-3.453-3.75-8.149-5.99-13.224-6.316
	c-0.271-0.017-0.541-0.029-0.811-0.036c-5.24-0.124-10.218,1.801-14.014,5.42c-3.803,3.623-5.963,8.509-6.088,13.755
	c-0.121,5.101,1.719,9.985,5.174,13.753c3.446,3.761,8.135,6.009,13.195,6.335c0.27,0.017,0.537,0.026,0.808,0.034
	c1.993,0.085,3.838-0.372,5.463-0.773c1.337-0.331,2.495-0.615,3.475-0.553c1.144,0.07,1.917,0.636,2.503,1.82
	c0.314,0.753,0.32,1.501,0.017,2.224c-0.37,0.884-1.189,1.65-2.187,2.045c-3.016,1.092-6.19,1.608-9.422,1.529
	c-0.352-0.006-0.715-0.022-1.066-0.044c-6.698-0.43-12.885-3.395-17.432-8.347c-4.557-4.967-6.979-11.42-6.82-18.172
	c0.166-6.938,3.016-13.394,8.027-18.18c5.013-4.781,11.588-7.326,18.515-7.162c0.356,0.008,0.72,0.023,1.07,0.047
	c6.708,0.429,12.908,3.395,17.46,8.347c4.564,4.969,6.994,11.42,6.831,18.171C144.756,195.571,144.659,196.688,144.486,197.734z"/>
<path fill="#EAEDF4" d="M9.829,188.421c-0.023,0-0.047,0-0.069-0.002l-0.028,0.001c-1.451,0.006-1.665-0.876-1.695-1.147
	c-0.003-0.02-0.004-0.039-0.005-0.06c-0.02-0.303,0.08-0.594,0.271-0.8c0.222-0.235,0.532-0.352,0.923-0.347
	c0.561,0.021,1.099-0.002,1.51-0.064c1.874-0.29,3.533-1.281,4.678-2.789c1.142-1.505,1.652-3.363,1.44-5.236
	c-0.012-0.1-0.024-0.199-0.04-0.297c-0.296-1.92-1.323-3.608-2.892-4.759c-1.57-1.149-3.494-1.619-5.415-1.32
	c-1.869,0.288-3.529,1.279-4.678,2.785c-1.147,1.502-1.661,3.359-1.449,5.226c0.012,0.101,0.025,0.198,0.04,0.296
	c0.1,0.734,0.386,1.376,0.638,1.944c0.21,0.464,0.389,0.869,0.431,1.23c0.049,0.422-0.106,0.74-0.5,1.032
	c-0.256,0.164-0.527,0.215-0.813,0.15c-0.344-0.076-0.679-0.325-0.888-0.663c-0.595-1.029-0.99-2.152-1.173-3.337
	c-0.021-0.129-0.039-0.262-0.053-0.392c-0.281-2.472,0.396-4.922,1.904-6.903c1.515-1.987,3.711-3.292,6.184-3.675
	c2.541-0.393,5.082,0.225,7.154,1.741c2.072,1.515,3.43,3.747,3.821,6.284c0.021,0.131,0.039,0.264,0.053,0.393
	c0.282,2.476-0.395,4.931-1.904,6.914c-1.514,1.991-3.708,3.298-6.181,3.679C10.637,188.378,10.224,188.416,9.829,188.421z"/>
<path fill="#EAEDF4" d="M38.668,281.185c-0.043,0-0.086-0.002-0.127-0.006l-0.051-0.002c-2.667-0.086-3-1.721-3.036-2.22
	c-0.004-0.037-0.005-0.073-0.006-0.109c-0.017-0.558,0.183-1.087,0.551-1.451c0.421-0.418,1.001-0.611,1.722-0.575
	c1.026,0.076,2.016,0.069,2.776-0.016c3.458-0.405,6.575-2.113,8.779-4.809c2.199-2.686,3.262-6.065,2.997-9.518
	c-0.014-0.183-0.029-0.367-0.051-0.549c-0.416-3.547-2.189-6.721-4.991-8.936c-2.805-2.219-6.307-3.207-9.855-2.793
	c-3.452,0.404-6.57,2.11-8.781,4.799c-2.206,2.683-3.275,6.059-3.014,9.503c0.015,0.181,0.032,0.365,0.055,0.548
	c0.132,1.352,0.616,2.553,1.041,3.609c0.351,0.87,0.654,1.624,0.705,2.291c0.062,0.776-0.247,1.353-0.988,1.859
	c-0.479,0.286-0.981,0.361-1.499,0.225c-0.632-0.166-1.226-0.646-1.587-1.28c-1.023-1.929-1.676-4.021-1.932-6.208
	c-0.028-0.237-0.051-0.483-0.071-0.723c-0.348-4.557,1.062-9.012,3.968-12.55c2.913-3.547,7.036-5.794,11.604-6.33
	c4.692-0.551,9.318,0.755,13.024,3.68c3.7,2.924,6.043,7.115,6.594,11.802c0.028,0.24,0.051,0.487,0.069,0.727
	c0.35,4.563-1.059,9.026-3.963,12.568c-2.917,3.553-7.035,5.805-11.604,6.34C40.153,281.161,39.391,281.203,38.668,281.185z"/>
<path fill="#EAEDF4" d="M196.444,141.099c0.019-0.003,0.036-0.005,0.054-0.005l0.022-0.002c1.131-0.108,1.358,0.563,1.401,0.771
	c0.005,0.016,0.007,0.03,0.01,0.047c0.037,0.233-0.02,0.468-0.154,0.642c-0.154,0.199-0.39,0.313-0.695,0.336
	c-0.438,0.023-0.855,0.081-1.172,0.158c-1.438,0.359-2.66,1.25-3.443,2.508c-0.782,1.254-1.047,2.738-0.746,4.182
	c0.014,0.076,0.031,0.152,0.05,0.229c0.369,1.475,1.29,2.718,2.594,3.501c1.305,0.783,2.837,1.011,4.312,0.642
	c1.436-0.358,2.659-1.248,3.446-2.503c0.785-1.253,1.054-2.736,0.755-4.176c-0.016-0.076-0.032-0.153-0.053-0.229
	c-0.129-0.563-0.398-1.044-0.635-1.468c-0.196-0.349-0.365-0.649-0.423-0.928c-0.069-0.324,0.03-0.585,0.315-0.84
	c0.187-0.146,0.395-0.204,0.621-0.176c0.275,0.036,0.553,0.205,0.739,0.453c0.537,0.76,0.926,1.607,1.153,2.517
	c0.025,0.1,0.047,0.201,0.069,0.301c0.395,1.905,0.042,3.862-0.991,5.514c-1.038,1.656-2.655,2.83-4.555,3.306
	c-1.951,0.486-3.976,0.188-5.699-0.845c-1.721-1.033-2.938-2.676-3.426-4.624c-0.025-0.1-0.048-0.202-0.068-0.303
	c-0.396-1.907-0.045-3.868,0.988-5.521c1.039-1.66,2.654-2.835,4.554-3.31C195.819,141.188,196.139,141.13,196.444,141.099z"/>
<path fill="#EAEDF4" d="M100.753,277.318c0.016,0.021,0.029,0.042,0.042,0.064l0.018,0.025c0.896,1.317,0.226,2.052-0.004,2.246
	c-0.016,0.014-0.033,0.026-0.051,0.04c-0.264,0.205-0.59,0.293-0.895,0.243c-0.35-0.056-0.646-0.267-0.882-0.626
	c-0.325-0.522-0.677-0.999-0.985-1.334c-1.412-1.528-3.332-2.431-5.406-2.547c-2.071-0.115-4.074,0.561-5.648,1.901
	c-0.084,0.071-0.167,0.144-0.246,0.218c-1.565,1.448-2.473,3.419-2.558,5.552c-0.082,2.135,0.669,4.172,2.119,5.736
	c1.409,1.525,3.331,2.428,5.405,2.55c2.071,0.122,4.076-0.549,5.644-1.886c0.083-0.073,0.165-0.146,0.245-0.219
	c0.607-0.541,1.016-1.195,1.379-1.774c0.293-0.475,0.551-0.886,0.855-1.146c0.354-0.303,0.738-0.358,1.245-0.179
	c0.308,0.133,0.521,0.35,0.635,0.648c0.142,0.36,0.122,0.816-0.06,1.214c-0.57,1.174-1.35,2.222-2.316,3.113
	c-0.104,0.1-0.214,0.196-0.323,0.289c-2.075,1.772-4.723,2.659-7.449,2.502c-2.738-0.159-5.273-1.357-7.14-3.372
	c-1.914-2.071-2.912-4.764-2.803-7.58c0.107-2.815,1.307-5.419,3.375-7.332c0.107-0.1,0.216-0.198,0.324-0.289
	c2.08-1.775,4.73-2.666,7.462-2.509c2.739,0.157,5.274,1.353,7.138,3.369C100.219,276.609,100.507,276.963,100.753,277.318z"/>
<path fill="#EAEDF4" d="M195.209,223.621c-0.031,0.009-0.062,0.017-0.091,0.026l-0.037,0.009c-1.896,0.508-1.863,1.734-1.805,2.099
	c0.002,0.026,0.008,0.053,0.014,0.08c0.082,0.402,0.314,0.747,0.639,0.947c0.373,0.229,0.818,0.271,1.328,0.125
	c0.724-0.226,1.435-0.387,1.993-0.451c2.548-0.287,5.065,0.418,7.093,1.98c2.025,1.559,3.351,3.803,3.738,6.321
	c0.021,0.135,0.039,0.269,0.055,0.402c0.293,2.61-0.448,5.179-2.086,7.237c-1.642,2.057-3.984,3.352-6.599,3.644
	c-2.541,0.287-5.06-0.417-7.093-1.975c-2.03-1.554-3.359-3.795-3.746-6.306c-0.02-0.135-0.037-0.268-0.053-0.4
	c-0.131-0.992,0.017-1.933,0.143-2.764c0.108-0.68,0.199-1.271,0.125-1.758c-0.086-0.568-0.4-0.929-1.018-1.17
	c-0.394-0.123-0.766-0.094-1.114,0.092c-0.423,0.223-0.771,0.666-0.923,1.181c-0.412,1.555-0.528,3.16-0.347,4.771
	c0.018,0.177,0.042,0.355,0.07,0.53c0.509,3.325,2.263,6.282,4.934,8.333c2.683,2.056,6.012,2.98,9.375,2.602
	c3.455-0.389,6.552-2.097,8.719-4.812c2.167-2.712,3.147-6.105,2.757-9.558c-0.02-0.178-0.042-0.356-0.07-0.53
	c-0.51-3.331-2.265-6.295-4.939-8.347c-2.682-2.063-6.009-2.989-9.37-2.608C196.278,223.391,195.726,223.487,195.209,223.621z"/>
</svg>
