<?xml version="1.0" encoding="utf-8"?>
<!-- Generator: Adobe Illustrator 16.0.0, SVG Export Plug-In . SVG Version: 6.00 Build 0)  -->
<!DOCTYPE svg PUBLIC "-//W3C//DTD SVG 1.1//EN" "http://www.w3.org/Graphics/SVG/1.1/DTD/svg11.dtd">
<svg version="1.1" id="Camada_1" xmlns="http://www.w3.org/2000/svg" xmlns:xlink="http://www.w3.org/1999/xlink" x="0px" y="0px"
	 width="46.286px" height="46.287px" viewBox="0 0 46.286 46.287" enable-background="new 0 0 46.286 46.287" xml:space="preserve">
<g>
	<defs>
		<path id="SVGID_1_" d="M24.361,7.337V4.915c2.623,0.173,5.096,0.903,7.302,2.07l-0.987,1.724c-0.177,0.309-0.07,0.703,0.238,0.881
			c0.099,0.055,0.206,0.085,0.32,0.085c0.23,0,0.444-0.124,0.559-0.324l0.988-1.722c2.201,1.372,4.09,3.199,5.536,5.348
			l-2.095,1.209c-0.583,0.336-0.781,1.082-0.444,1.664c0.226,0.391,0.634,0.608,1.055,0.608c0.207,0,0.417-0.052,0.608-0.163
			l2.097-1.209c1.103,2.234,1.762,4.725,1.861,7.358L39.41,22.45c-0.172,0-0.334,0.067-0.455,0.19
			c-0.121,0.122-0.188,0.283-0.188,0.456c0,0.229,0.125,0.444,0.325,0.558c0.098,0.056,0.207,0.084,0.32,0.084h0.002l1.989-0.005
			c-0.085,2.674-0.747,5.204-1.866,7.47l-2.097-1.21c-0.582-0.336-1.327-0.137-1.663,0.445c-0.337,0.583-0.138,1.327,0.444,1.664
			l2.095,1.208c-1.426,2.118-3.281,3.925-5.441,5.29l-0.997-1.716c-0.116-0.198-0.33-0.32-0.559-0.32
			c-0.114,0-0.224,0.028-0.323,0.087c-0.149,0.087-0.255,0.226-0.3,0.392c-0.043,0.167-0.021,0.34,0.066,0.49l0.999,1.718
			c-2.231,1.199-4.739,1.946-7.401,2.123v-2.423c0-0.673-0.545-1.219-1.219-1.219c-0.672,0-1.218,0.546-1.218,1.219v2.423
			c-2.623-0.175-5.096-0.904-7.302-2.072l0.988-1.723c0.086-0.15,0.108-0.323,0.063-0.49c-0.045-0.166-0.152-0.304-0.301-0.391
			c-0.1-0.056-0.207-0.084-0.32-0.084c-0.231,0-0.446,0.124-0.561,0.323l-0.987,1.722c-2.201-1.371-4.091-3.199-5.535-5.349
			l2.093-1.208c0.583-0.337,0.783-1.081,0.446-1.664c-0.336-0.582-1.081-0.781-1.664-0.445l-2.096,1.21
			c-1.103-2.235-1.762-4.726-1.862-7.358l1.989-0.007c0.173,0,0.334-0.068,0.455-0.19s0.188-0.284,0.188-0.456
			c-0.001-0.354-0.291-0.643-0.645-0.643l-1.991,0.006c0.084-2.674,0.747-5.204,1.866-7.469l2.096,1.209
			c0.192,0.111,0.402,0.163,0.608,0.163c0.421,0,0.83-0.217,1.056-0.608c0.337-0.582,0.137-1.328-0.446-1.664l-2.094-1.209
			c1.425-2.118,3.281-3.924,5.441-5.288l0.998,1.715c0.058,0.099,0.137,0.178,0.236,0.235c0.197,0.112,0.446,0.114,0.645-0.003
			c0.15-0.085,0.256-0.226,0.3-0.392s0.021-0.339-0.067-0.489l-0.998-1.717c2.231-1.199,4.739-1.947,7.401-2.123v2.423
			c0,0.672,0.545,1.217,1.218,1.217C23.816,8.555,24.361,8.01,24.361,7.337 M23.143,0C10.382,0,0,10.382,0,23.144
			c0,12.761,10.382,23.143,23.143,23.143c12.763,0,23.144-10.382,23.144-23.143C46.286,10.382,35.905,0,23.143,0z"/>
	</defs>
	<clipPath id="SVGID_2_">
		<use xlink:href="#SVGID_1_"  overflow="visible"/>
	</clipPath>
	
		<linearGradient id="SVGID_3_" gradientUnits="userSpaceOnUse" x1="0" y1="46.2876" x2="1" y2="46.2876" gradientTransform="matrix(0 -46.2865 -46.2865 0 2165.603 46.2866)">
		<stop  offset="0" style="stop-color:#365D9D"/>
		<stop  offset="0.0924" style="stop-color:#3364A0"/>
		<stop  offset="1" style="stop-color:#00ADBB"/>
	</linearGradient>
	<rect y="0" clip-path="url(#SVGID_2_)" fill="url(#SVGID_3_)" width="46.286" height="46.286"/>
</g>
<g>
	<defs>
		<path id="SVGID_4_" d="M32.146,16.539l-7.814,4.335c-0.355-0.187-0.759-0.295-1.189-0.295c-0.43,0-0.833,0.108-1.188,0.295
			l-7.813-4.335c-0.739-0.411-1.67-0.144-2.081,0.595c-0.41,0.739-0.143,1.671,0.597,2.08l7.971,4.424
			c0.23,1.179,1.268,2.07,2.515,2.07c1.247,0,2.286-0.891,2.516-2.07l7.971-4.424c0.74-0.409,1.007-1.341,0.596-2.08
			c-0.278-0.503-0.8-0.788-1.338-0.788C32.636,16.346,32.381,16.408,32.146,16.539"/>
	</defs>
	<clipPath id="SVGID_5_">
		<use xlink:href="#SVGID_4_"  overflow="visible"/>
	</clipPath>
	
		<linearGradient id="SVGID_6_" gradientUnits="userSpaceOnUse" x1="4.882813e-004" y1="46.2866" x2="1.0005" y2="46.2866" gradientTransform="matrix(0 -9.3614 -9.3614 0 456.449 25.7085)">
		<stop  offset="0" style="stop-color:#365D9D"/>
		<stop  offset="0.0924" style="stop-color:#3364A0"/>
		<stop  offset="1" style="stop-color:#00ADBB"/>
	</linearGradient>
	<rect x="11.65" y="16.127" clip-path="url(#SVGID_5_)" fill="url(#SVGID_6_)" width="22.986" height="9.58"/>
</g>
</svg>
