<?xml version="1.0" encoding="utf-8"?>
<!-- Generator: Adobe Illustrator 16.0.0, SVG Export Plug-In . SVG Version: 6.00 Build 0)  -->
<!DOCTYPE svg PUBLIC "-//W3C//DTD SVG 1.1//EN" "http://www.w3.org/Graphics/SVG/1.1/DTD/svg11.dtd">
<svg version="1.1" id="Camada_1" xmlns="http://www.w3.org/2000/svg" xmlns:xlink="http://www.w3.org/1999/xlink" x="0px" y="0px"
	 width="46.969px" height="46.287px" viewBox="0 0 46.969 46.287" enable-background="new 0 0 46.969 46.287" xml:space="preserve">
<g>
	<g>
		<defs>
			<path id="SVGID_1_" d="M30.499,24.076v0.477c-1.679,0.383-2.929,1.793-2.929,3.468c0,1.969,1.725,3.571,3.843,3.571
				c1.109,0,2.012,0.781,2.012,1.742s-0.902,1.742-2.012,1.742c-1.11,0-2.013-0.781-2.013-1.742c0-0.505-0.408-0.915-0.915-0.915
				s-0.916,0.408-0.916,0.915c0,1.677,1.248,3.085,2.928,3.469v0.396c0,0.505,0.41,0.915,0.916,0.915s0.915-0.409,0.915-0.915
				v-0.396c1.678-0.384,2.927-1.792,2.927-3.469c0-1.97-1.724-3.571-3.841-3.571c-1.111,0-2.013-0.781-2.013-1.742
				s0.901-1.742,2.013-1.742c1.108,0,2.012,0.781,2.012,1.742c0,0.505,0.41,0.915,0.915,0.915c0.506,0,0.914-0.409,0.914-0.915
				c0-1.675-1.247-3.085-2.927-3.468v-0.477c0-0.505-0.408-0.915-0.914-0.915C30.909,23.161,30.499,23.571,30.499,24.076"/>
		</defs>
		<clipPath id="SVGID_2_">
			<use xlink:href="#SVGID_1_"  overflow="visible"/>
		</clipPath>
		
			<linearGradient id="SVGID_3_" gradientUnits="userSpaceOnUse" x1="-511.9277" y1="146.8379" x2="-511.8364" y2="146.8379" gradientTransform="matrix(84 0 0 84 43029.5039 -12303.7275)">
			<stop  offset="0" style="stop-color:#465E9A"/>
			<stop  offset="1" style="stop-color:#60A9B7"/>
		</linearGradient>
		<rect x="27.573" y="23.161" clip-path="url(#SVGID_2_)" fill="url(#SVGID_3_)" width="7.682" height="14.95"/>
	</g>
</g>
<g>
	<g>
		<defs>
			<path id="SVGID_4_" d="M35.342,20.441c-0.218,0.455-0.026,1.001,0.428,1.221c3.469,1.667,5.71,5.23,5.71,9.074
				c0,1.646-0.405,3.277-1.172,4.721c-0.238,0.445-0.068,1,0.376,1.238c0.137,0.072,0.285,0.107,0.43,0.107
				c0.326,0,0.644-0.177,0.81-0.486c0.909-1.706,1.387-3.635,1.387-5.579c0-2.281-0.646-4.501-1.877-6.416
				c-1.196-1.86-2.879-3.352-4.867-4.308c-0.128-0.062-0.263-0.089-0.396-0.089C35.828,19.922,35.501,20.114,35.342,20.441"/>
		</defs>
		<clipPath id="SVGID_5_">
			<use xlink:href="#SVGID_4_"  overflow="visible"/>
		</clipPath>
		
			<linearGradient id="SVGID_6_" gradientUnits="userSpaceOnUse" x1="-512.9229" y1="146.916" x2="-512.8315" y2="146.916" gradientTransform="matrix(88.0758 0 0 88.0758 45211.3945 -12911.4229)">
			<stop  offset="0" style="stop-color:#465E9A"/>
			<stop  offset="1" style="stop-color:#60A9B7"/>
		</linearGradient>
		<rect x="35.125" y="19.922" clip-path="url(#SVGID_5_)" fill="url(#SVGID_6_)" width="8.185" height="16.878"/>
	</g>
</g>
<g>
	<g>
		<defs>
			<path id="SVGID_7_" d="M31.875,19.759c0,0.506,0.408,0.916,0.915,0.916h0.051h0.007c0.502,0,0.912-0.407,0.914-0.911
				c0.004-0.505-0.403-0.917-0.912-0.918h-0.06C32.284,18.844,31.875,19.254,31.875,19.759"/>
		</defs>
		<clipPath id="SVGID_8_">
			<use xlink:href="#SVGID_7_"  overflow="visible"/>
		</clipPath>
		
			<linearGradient id="SVGID_9_" gradientUnits="userSpaceOnUse" x1="-505.4414" y1="163.8682" x2="-505.3503" y2="163.8682" gradientTransform="matrix(20.6261 0 0 20.6261 10457.1582 -3360.2012)">
			<stop  offset="0" style="stop-color:#465E9A"/>
			<stop  offset="1" style="stop-color:#60A9B7"/>
		</linearGradient>
		<rect x="31.875" y="18.844" clip-path="url(#SVGID_8_)" fill="url(#SVGID_9_)" width="1.89" height="1.829"/>
	</g>
</g>
<g>
	<g>
		<defs>
			<path id="SVGID_10_" d="M20.913,25.157c-0.908,1.706-1.387,3.635-1.387,5.578c0,2.283,0.649,4.503,1.877,6.415
				c1.196,1.862,2.879,3.354,4.869,4.31c0.128,0.062,0.263,0.091,0.396,0.091c0.343,0,0.669-0.191,0.825-0.52
				c0.219-0.455,0.026-1.003-0.43-1.22c-3.466-1.669-5.708-5.23-5.708-9.076c0-1.645,0.406-3.276,1.172-4.718
				c0.237-0.447,0.068-1.002-0.377-1.238c-0.138-0.073-0.283-0.108-0.428-0.108C21.394,24.672,21.077,24.847,20.913,25.157"/>
		</defs>
		<clipPath id="SVGID_11_">
			<use xlink:href="#SVGID_10_"  overflow="visible"/>
		</clipPath>
		
			<linearGradient id="SVGID_12_" gradientUnits="userSpaceOnUse" x1="-511.1494" y1="146.3809" x2="-511.0581" y2="146.3809" gradientTransform="matrix(88.0747 0 0 88.0747 45038.8945 -12859.3994)">
			<stop  offset="0" style="stop-color:#465E9A"/>
			<stop  offset="1" style="stop-color:#60A9B7"/>
		</linearGradient>
		<rect x="19.525" y="24.672" clip-path="url(#SVGID_11_)" fill="url(#SVGID_12_)" width="8.186" height="16.879"/>
	</g>
</g>
<g>
	<g>
		<defs>
			<path id="SVGID_13_" d="M29.073,41.709c-0.002,0.506,0.406,0.918,0.912,0.919h0.06c0.507,0,0.917-0.41,0.917-0.916
				c0-0.504-0.41-0.914-0.917-0.914l-0.053-0.001c0,0,0,0-0.002,0C29.484,40.798,29.076,41.205,29.073,41.709"/>
		</defs>
		<clipPath id="SVGID_14_">
			<use xlink:href="#SVGID_13_"  overflow="visible"/>
		</clipPath>
		
			<linearGradient id="SVGID_15_" gradientUnits="userSpaceOnUse" x1="-504.0923" y1="153.2979" x2="-504" y2="153.2979" gradientTransform="matrix(20.6241 0 0 20.6241 10425.5156 -3119.9082)">
			<stop  offset="0" style="stop-color:#465E9A"/>
			<stop  offset="1" style="stop-color:#60A9B7"/>
		</linearGradient>
		<rect x="29.071" y="40.798" clip-path="url(#SVGID_14_)" fill="url(#SVGID_15_)" width="1.891" height="1.83"/>
	</g>
</g>
<g>
	<g>
		<defs>
			<path id="SVGID_16_" d="M6.901,37.14c0-1.313,1.066-2.378,2.377-2.378h7.116c0.463,1.72,1.212,3.324,2.195,4.758H9.279
				C7.968,39.518,6.901,38.451,6.901,37.14 M6.901,30.554c0-1.313,1.066-2.379,2.377-2.379h6.799
				c-0.139,0.834-0.211,1.689-0.211,2.562c0,0.746,0.053,1.479,0.154,2.196H9.278C7.968,32.933,6.901,31.864,6.901,30.554
				 M6.901,23.967c0-1.311,1.066-2.379,2.377-2.379h9.571c-1.038,1.424-1.843,3.028-2.352,4.758h-7.22
				C7.968,26.346,6.901,25.277,6.901,23.967 M17.695,30.735c0-7.565,6.156-13.721,13.722-13.721c7.565,0,13.721,6.156,13.721,13.721
				s-6.155,13.721-13.721,13.721C23.851,44.456,17.695,38.301,17.695,30.735 M6.901,17.381c0-1.313,1.066-2.379,2.377-2.379h22.412
				c0.37,0,0.723,0.086,1.038,0.238c-0.432-0.036-0.87-0.055-1.312-0.055c-4.295,0-8.188,1.75-11.005,4.574H9.279
				C7.968,19.759,6.901,18.692,6.901,17.381 M12.755,10.794c0-1.311,1.068-2.379,2.379-2.379h22.412
				c1.312,0,2.377,1.068,2.377,2.379s-1.065,2.378-2.377,2.378h-5.855H15.134C13.823,13.172,12.755,12.105,12.755,10.794
				 M1.96,4.207c0-1.312,1.068-2.378,2.379-2.378h22.413c1.312,0,2.378,1.066,2.378,2.378c0,1.311-1.066,2.379-2.378,2.379H4.339
				C3.028,6.586,1.96,5.518,1.96,4.207 M4.339,0c-2.32,0-4.208,1.888-4.208,4.207c0,2.32,1.889,4.208,4.208,4.208h7.326
				c-0.466,0.678-0.739,1.496-0.739,2.379c0,0.881,0.273,1.701,0.739,2.378H9.279c-2.32,0-4.207,1.889-4.207,4.207
				c0,1.333,0.624,2.523,1.593,3.292c-0.97,0.772-1.593,1.961-1.593,3.295c0,1.332,0.624,2.521,1.593,3.293
				c-0.97,0.771-1.593,1.961-1.593,3.294c0,1.332,0.624,2.521,1.593,3.292c-0.97,0.771-1.593,1.962-1.593,3.294
				c0,2.321,1.887,4.208,4.207,4.208H20.06c2.841,3.037,6.88,4.938,11.358,4.938c8.575,0,15.552-6.976,15.552-15.551
				c0-7.136-4.832-13.164-11.397-14.986c-0.113-0.265-0.25-0.516-0.407-0.747h2.382c2.32,0,4.208-1.888,4.208-4.207
				c0-2.32-1.889-4.208-4.208-4.208h-7.325c0.465-0.678,0.738-1.497,0.738-2.379C30.959,1.886,29.071,0,26.751,0H4.339z"/>
		</defs>
		<clipPath id="SVGID_17_">
			<use xlink:href="#SVGID_16_"  overflow="visible"/>
		</clipPath>
		
			<linearGradient id="SVGID_18_" gradientUnits="userSpaceOnUse" x1="-513.7246" y1="143.7764" x2="-513.6333" y2="143.7764" gradientTransform="matrix(512.001 0 0 512.001 263027.6875 -73590.2656)">
			<stop  offset="0" style="stop-color:#465E9A"/>
			<stop  offset="1" style="stop-color:#60A9B7"/>
		</linearGradient>
		<rect x="0.131" clip-path="url(#SVGID_17_)" fill="url(#SVGID_18_)" width="46.838" height="46.287"/>
	</g>
</g>
</svg>
