<?xml version="1.0" encoding="utf-8"?>
<!-- Generator: Adobe Illustrator 16.0.0, SVG Export Plug-In . SVG Version: 6.00 Build 0)  -->
<!DOCTYPE svg PUBLIC "-//W3C//DTD SVG 1.1//EN" "http://www.w3.org/Graphics/SVG/1.1/DTD/svg11.dtd">
<svg version="1.1" id="Camada_1" xmlns="http://www.w3.org/2000/svg" xmlns:xlink="http://www.w3.org/1999/xlink" x="0px" y="0px"
	 width="77.722px" height="67.86px" viewBox="0 0 77.722 67.86" enable-background="new 0 0 77.722 67.86" xml:space="preserve">
<g>
	<defs>
		<path id="SVGID_1_" d="M56.866,9.646c-0.483,0-0.876,0.384-0.876,0.855l0.002,1.646c0,0.126-0.137,0.181-0.188,0.193
			c-2.334,0.556-3.793,2.265-3.793,4.422c0,2.689,2.223,3.904,4.621,4.816c1.92,0.752,2.701,1.516,2.701,2.637
			c0,1.218-1.108,2.07-2.695,2.07c-1.355,0-3.19-0.86-3.209-0.869c-0.118-0.056-0.241-0.083-0.37-0.083
			c-0.349,0-0.651,0.21-0.773,0.538l-0.404,1.092c-0.143,0.408,0.078,0.738,0.359,0.885c1.128,0.587,3.308,0.931,3.405,0.947
			c0.026,0.002,0.158,0.049,0.158,0.17v1.64c0,0.47,0.396,0.855,0.878,0.855h0.782c0.483,0,0.877-0.385,0.877-0.855v-1.726
			c0-0.161,0.12-0.174,0.145-0.181c2.485-0.558,4.018-2.377,4.018-4.662c0-2.346-1.304-3.862-4.355-5.068
			c-2.323-0.931-2.993-1.494-2.993-2.511c0-0.814,0.614-1.763,2.353-1.763c1.536,0,2.715,0.604,2.727,0.61
			c0.125,0.066,0.264,0.101,0.399,0.101c0.337,0,0.634-0.202,0.758-0.518l0.423-1.079c0.146-0.393-0.076-0.736-0.36-0.859
			c-0.947-0.412-2.796-0.73-2.815-0.734c-0.028-0.005-0.134-0.027-0.134-0.148L58.501,10.5c0-0.471-0.394-0.855-0.878-0.855H56.866z
			"/>
	</defs>
	<clipPath id="SVGID_2_">
		<use xlink:href="#SVGID_1_"  overflow="visible"/>
	</clipPath>
	
		<linearGradient id="SVGID_3_" gradientUnits="userSpaceOnUse" x1="0" y1="67.8613" x2="1" y2="67.8613" gradientTransform="matrix(10.6666 0 0 -10.6666 51.8359 744.393)">
		<stop  offset="0" style="stop-color:#455D9A"/>
		<stop  offset="0.0924" style="stop-color:#47649D"/>
		<stop  offset="1" style="stop-color:#60ABB9"/>
	</linearGradient>
	<rect x="51.739" y="9.646" clip-path="url(#SVGID_2_)" fill="url(#SVGID_3_)" width="10.765" height="21.814"/>
</g>
<g>
	<defs>
		<path id="SVGID_4_" d="M41.381,20.551c0-8.719,7.07-15.788,15.79-15.788c8.719,0,15.787,7.069,15.787,15.788
			c0,8.721-7.068,15.791-15.787,15.791C48.451,36.342,41.381,29.272,41.381,20.551 M57.171,0C45.82,0,36.618,9.202,36.618,20.551
			c0,11.35,9.202,20.552,20.553,20.552s20.55-9.202,20.55-20.552C77.721,9.202,68.521,0,57.171,0z"/>
	</defs>
	<clipPath id="SVGID_5_">
		<use xlink:href="#SVGID_4_"  overflow="visible"/>
	</clipPath>
	
		<linearGradient id="SVGID_6_" gradientUnits="userSpaceOnUse" x1="0" y1="67.8604" x2="1" y2="67.8604" gradientTransform="matrix(41.1031 0 0 -41.1031 36.625 2809.8191)">
		<stop  offset="0" style="stop-color:#455D9A"/>
		<stop  offset="0.0924" style="stop-color:#47649D"/>
		<stop  offset="1" style="stop-color:#60ABB9"/>
	</linearGradient>
	<rect x="36.618" y="0" clip-path="url(#SVGID_5_)" fill="url(#SVGID_6_)" width="41.103" height="41.103"/>
</g>
<g>
	<defs>
		<path id="SVGID_7_" d="M24.412,44.486c-1.065,0.173-1.733,0.154-1.799,1.172c-0.31,4.737-0.92,14.421-1.252,19.481
			c-0.008,0.105,0.142,1.544,1.327,0.532c1.3-1.106,3.119-2.335,4.804-1.952c2.417,0.549,21.739,4.098,27.439,4.141h0.2
			c0.438-0.003,0.783-0.031,1.019-0.085c4.511-1.049,17.28-8.617,19.729-10.969c3.796-3.648,0.846-7.497-2.333-5.744
			c-4.371,2.413-10.381,4.644-16.375,5.583c-5.334,0.837-15.368-1.182-15.368-3.563c0-0.423,1.942,0.042,4.553,0.509
			c2.947,0.524,6.748,1.051,9.571,0.297c4.081-1.089,3.502-4.908,1.281-5.411c-2.206-0.501-15.138-5.238-20.662-5.402
			c-0.097-0.003-0.201-0.004-0.309-0.004C33.466,43.07,27.404,43.998,24.412,44.486"/>
	</defs>
	<clipPath id="SVGID_8_">
		<use xlink:href="#SVGID_7_"  overflow="visible"/>
	</clipPath>
	
		<linearGradient id="SVGID_9_" gradientUnits="userSpaceOnUse" x1="0" y1="67.8604" x2="1" y2="67.8604" gradientTransform="matrix(56.3067 0 0 -56.3067 21.375 3876.4438)">
		<stop  offset="0" style="stop-color:#455D9A"/>
		<stop  offset="0.0924" style="stop-color:#47649D"/>
		<stop  offset="1" style="stop-color:#60ABB9"/>
	</linearGradient>
	<rect x="21.353" y="43.07" clip-path="url(#SVGID_8_)" fill="url(#SVGID_9_)" width="58.322" height="24.79"/>
</g>
<g>
	<defs>
		<path id="SVGID_10_" d="M5.942,60.794c0-1.83,1.482-3.312,3.311-3.312c1.828,0,3.312,1.481,3.312,3.312
			c0,1.828-1.483,3.312-3.312,3.312S5.942,62.622,5.942,60.794 M2.227,45.259L0.051,65.03c-0.23,0.897,0.339,1.659,1.265,1.696
			l13.272-0.001c0.925,0.035,1.74-0.691,1.812-1.614l1.456-19.05c0.071-0.922-0.628-1.714-1.552-1.76L4.327,43.71
			c-0.028-0.001-0.057-0.002-0.085-0.002C3.345,43.708,2.451,44.39,2.227,45.259"/>
	</defs>
	<clipPath id="SVGID_11_">
		<use xlink:href="#SVGID_10_"  overflow="visible"/>
	</clipPath>
	
		<linearGradient id="SVGID_12_" gradientUnits="userSpaceOnUse" x1="0" y1="67.8604" x2="1" y2="67.8604" gradientTransform="matrix(17.8611 0 0 -17.8611 0 1267.2775)">
		<stop  offset="0" style="stop-color:#455D9A"/>
		<stop  offset="0.0924" style="stop-color:#47649D"/>
		<stop  offset="1" style="stop-color:#60ABB9"/>
	</linearGradient>
	<rect x="-0.179" y="43.708" clip-path="url(#SVGID_11_)" fill="url(#SVGID_12_)" width="18.106" height="23.053"/>
</g>
</svg>
