<?xml version="1.0" encoding="utf-8"?>
<!-- Generator: Adobe Illustrator 16.0.0, SVG Export Plug-In . SVG Version: 6.00 Build 0)  -->
<!DOCTYPE svg PUBLIC "-//W3C//DTD SVG 1.1//EN" "http://www.w3.org/Graphics/SVG/1.1/DTD/svg11.dtd">
<svg version="1.1" id="Camada_1" xmlns="http://www.w3.org/2000/svg" xmlns:xlink="http://www.w3.org/1999/xlink" x="0px" y="0px"
	 width="65.807px" height="46.287px" viewBox="0 0 65.807 46.287" enable-background="new 0 0 65.807 46.287" xml:space="preserve">
<g>
	<g>
		<defs>
			<path id="SVGID_1_" d="M6.653,25.66c0-0.526,0.424-0.95,0.95-0.95h11.403c0.526,0,0.951,0.424,0.951,0.95
				c0,0.525-0.425,0.949-0.951,0.949H7.603C7.077,26.609,6.653,26.186,6.653,25.66 M12.354,20.908h1.899v1.903h-1.899V20.908z
				 M1.901,18.058v-0.951h22.806v0.951c0,0.524-0.425,0.951-0.951,0.951H2.851C2.325,19.007,1.901,18.582,1.901,18.058 M1.901,2.852
				c0-0.524,0.424-0.95,0.95-0.95H23.76c0.522,0,0.949,0.425,0.949,0.95v12.355H1.901V2.852z M2.851,0C1.276,0,0,1.277,0,2.852
				v15.206c0,1.575,1.276,2.851,2.851,2.851h7.602v1.903H7.603c-1.575,0-2.852,1.276-2.852,2.85c0,1.577,1.277,2.853,2.852,2.853
				h11.403c1.575,0,2.852-1.275,2.852-2.853c0-1.574-1.277-2.85-2.852-2.85h-2.851v-1.903h7.602c1.575,0,2.853-1.275,2.853-2.851
				V2.852C26.609,1.277,25.332,0,23.756,0H2.851z"/>
		</defs>
		<clipPath id="SVGID_2_">
			<use xlink:href="#SVGID_1_"  overflow="visible"/>
		</clipPath>
		
			<linearGradient id="SVGID_3_" gradientUnits="userSpaceOnUse" x1="-533.3594" y1="204.0625" x2="-533.2407" y2="204.0625" gradientTransform="matrix(224 0 0 224 119472.5938 -45695.6367)">
			<stop  offset="0" style="stop-color:#435594"/>
			<stop  offset="1" style="stop-color:#5EA6B8"/>
		</linearGradient>
		<rect x="0" clip-path="url(#SVGID_2_)" fill="url(#SVGID_3_)" width="26.608" height="28.511"/>
	</g>
</g>
<g>
	<g>
		<defs>
			<path id="SVGID_4_" d="M45.853,43.241c0-0.525,0.424-0.951,0.951-0.951h11.4c0.527,0,0.953,0.426,0.953,0.951
				c0,0.523-0.426,0.95-0.953,0.95h-11.4C46.277,44.191,45.853,43.765,45.853,43.241 M51.555,38.49h1.898v1.899h-1.898V38.49z
				 M41.101,35.641v-0.952H63.91v0.952c0,0.523-0.426,0.948-0.95,0.948H42.051C41.528,36.589,41.101,36.164,41.101,35.641
				 M41.101,20.434c0-0.524,0.427-0.95,0.95-0.95h20.908c0.524,0,0.95,0.424,0.95,0.95v12.354H41.101V20.434z M42.051,17.583
				c-1.574,0-2.852,1.276-2.852,2.851v15.207c0,1.572,1.276,2.851,2.852,2.851h7.604v1.898h-2.853c-1.575,0-2.852,1.277-2.852,2.854
				s1.275,2.851,2.852,2.851h11.402c1.575,0,2.853-1.274,2.853-2.851s-1.275-2.854-2.853-2.854h-2.852v-1.898h7.604
				c1.571,0,2.851-1.277,2.851-2.851V20.434c0-1.575-1.275-2.851-2.851-2.851H42.051z"/>
		</defs>
		<clipPath id="SVGID_5_">
			<use xlink:href="#SVGID_4_"  overflow="visible"/>
		</clipPath>
		
			<linearGradient id="SVGID_6_" gradientUnits="userSpaceOnUse" x1="-534.6582" y1="203.4795" x2="-534.5396" y2="203.4795" gradientTransform="matrix(224 0 0 224 119802.5938 -45547.6367)">
			<stop  offset="0" style="stop-color:#435594"/>
			<stop  offset="1" style="stop-color:#5EA6B8"/>
		</linearGradient>
		<rect x="39.202" y="17.583" clip-path="url(#SVGID_5_)" fill="url(#SVGID_6_)" width="26.61" height="28.511"/>
	</g>
</g>
<g>
	<g>
		<defs>
			<path id="SVGID_7_" d="M31.799,3.498c-0.156-0.229-0.179-0.526-0.051-0.774c0.102-0.227,0.308-0.388,0.55-0.436
				c6.928-1.207,12.479,1.669,15.64,8.111c0.111,0.233,0.319,0.409,0.563,0.485c0.246,0.078,0.514,0.054,0.741-0.069l0.491-0.266
				l-1.35,2.803l-2.759-1.334l0.606-0.122c0.313-0.06,0.574-0.273,0.691-0.569c0.12-0.292,0.089-0.625-0.087-0.89
				c-3.183-4.782-8.121-7.057-14.288-6.588c-0.025,0.003-0.051,0.003-0.072,0.003C32.205,3.853,31.953,3.724,31.799,3.498
				 M31.973,0.415c-0.847,0.156-1.568,0.709-1.938,1.488c-0.423,0.859-0.349,1.881,0.196,2.668c0.547,0.809,1.487,1.256,2.461,1.175
				C37.6,5.374,41.615,6.953,44.39,10.33l-1.912,0.384c-0.401,0.078-0.707,0.406-0.755,0.814c-0.051,0.403,0.162,0.797,0.53,0.974
				l6.161,2.975c0.474,0.229,1.04,0.03,1.27-0.441l3.045-6.312c0.179-0.371,0.1-0.814-0.2-1.1C52.23,7.34,51.786,7.28,51.421,7.476
				L49.19,8.687c-3.046-5.559-7.986-8.561-13.929-8.561C34.196,0.123,33.098,0.219,31.973,0.415"/>
		</defs>
		<clipPath id="SVGID_8_">
			<use xlink:href="#SVGID_7_"  overflow="visible"/>
		</clipPath>
		
			<linearGradient id="SVGID_9_" gradientUnits="userSpaceOnUse" x1="-535.0625" y1="205.2568" x2="-534.9431" y2="205.2568" gradientTransform="matrix(160.9562 -56.1345 56.1345 160.9562 74631.8906 -63061.7461)">
			<stop  offset="0" style="stop-color:#435594"/>
			<stop  offset="1" style="stop-color:#5EA6B8"/>
		</linearGradient>
		<polygon clip-path="url(#SVGID_8_)" fill="url(#SVGID_9_)" points="24.765,1.812 50.381,-7.121 57.751,14.014 32.136,22.949 		"/>
	</g>
</g>
<g>
	<g>
		<defs>
			<path id="SVGID_10_" d="M18.792,33.685l2.873,1.142l-0.64,0.181c-0.302,0.086-0.541,0.315-0.643,0.613
				c-0.098,0.299-0.043,0.628,0.147,0.876c3.505,4.577,8.601,6.495,14.738,5.545c0.286-0.047,0.576,0.062,0.755,0.29
				c0.184,0.224,0.226,0.533,0.108,0.798c-0.092,0.237-0.287,0.418-0.53,0.49c-6.836,1.753-12.578-0.723-16.171-6.97
				c-0.241-0.416-0.758-0.591-1.201-0.399c-0.047,0.022-0.095,0.046-0.14,0.075l-0.469,0.306L18.792,33.685z M17.378,32.099
				l-2.618,6.593c-0.155,0.385-0.041,0.825,0.281,1.088c0.319,0.263,0.77,0.289,1.12,0.063l2.145-1.389
				c4.042,6.328,10.465,8.881,17.771,7.012c0.133-0.035,0.256-0.078,0.379-0.133c0.666-0.289,1.186-0.829,1.448-1.505
				c0.361-0.9,0.214-1.927-0.395-2.685c-0.605-0.757-1.57-1.133-2.532-0.978c-4.886,0.754-9.007-0.534-12.01-3.731l1.913-0.544
				c0.393-0.108,0.672-0.46,0.689-0.867c0.02-0.407-0.219-0.78-0.598-0.932l-6.358-2.524c-0.115-0.047-0.233-0.067-0.35-0.067
				C17.881,31.501,17.525,31.728,17.378,32.099"/>
		</defs>
		<clipPath id="SVGID_11_">
			<use xlink:href="#SVGID_10_"  overflow="visible"/>
		</clipPath>
		
			<linearGradient id="SVGID_12_" gradientUnits="userSpaceOnUse" x1="-534.1069" y1="204.2764" x2="-533.9885" y2="204.2764" gradientTransform="matrix(156.8331 -67.6753 67.6753 156.8331 69957.6719 -68139.5156)">
			<stop  offset="0" style="stop-color:#435594"/>
			<stop  offset="1" style="stop-color:#5EA6B8"/>
		</linearGradient>
		<polygon clip-path="url(#SVGID_11_)" fill="url(#SVGID_12_)" points="8.845,33.985 34.549,22.895 44.025,44.85 18.32,55.941 		"/>
	</g>
</g>
<g>
	<g>
		<defs>
			<path id="SVGID_13_" d="M5.7,3.803c-1.049,0-1.899,0.851-1.899,1.901v1.899c0,0.526,0.427,0.951,0.951,0.951
				s0.951-0.425,0.951-0.951V5.704h1.899c0.526,0,0.951-0.425,0.951-0.953c0-0.523-0.425-0.95-0.951-0.95H5.7V3.803z"/>
		</defs>
		<clipPath id="SVGID_14_">
			<use xlink:href="#SVGID_13_"  overflow="visible"/>
		</clipPath>
		
			<linearGradient id="SVGID_15_" gradientUnits="userSpaceOnUse" x1="-523.2354" y1="215.0469" x2="-523.1162" y2="215.0469" gradientTransform="matrix(40 0 0 40 20933.1699 -8595.6924)">
			<stop  offset="0" style="stop-color:#435594"/>
			<stop  offset="1" style="stop-color:#5EA6B8"/>
		</linearGradient>
		<rect x="3.801" y="3.803" clip-path="url(#SVGID_14_)" fill="url(#SVGID_15_)" width="4.751" height="4.751"/>
	</g>
</g>
<g>
	<g>
		<defs>
			<path id="SVGID_16_" d="M20.906,9.504v1.901h-1.901c-0.524,0-0.95,0.424-0.95,0.948s0.425,0.951,0.95,0.951h1.901
				c1.05,0,1.901-0.851,1.901-1.899V9.504c0-0.524-0.425-0.95-0.95-0.95C21.332,8.555,20.906,8.98,20.906,9.504"/>
		</defs>
		<clipPath id="SVGID_17_">
			<use xlink:href="#SVGID_16_"  overflow="visible"/>
		</clipPath>
		
			<linearGradient id="SVGID_18_" gradientUnits="userSpaceOnUse" x1="-525.8779" y1="214.165" x2="-525.7588" y2="214.165" gradientTransform="matrix(40 0 0 40 21053.1699 -8555.6611)">
			<stop  offset="0" style="stop-color:#435594"/>
			<stop  offset="1" style="stop-color:#5EA6B8"/>
		</linearGradient>
		<rect x="18.056" y="8.555" clip-path="url(#SVGID_17_)" fill="url(#SVGID_18_)" width="4.751" height="4.751"/>
	</g>
</g>
<g>
	<g>
		<defs>
			<path id="SVGID_19_" d="M44.902,21.383c-1.05,0-1.898,0.851-1.898,1.899v1.903c0,0.522,0.424,0.948,0.95,0.948
				c0.522,0,0.948-0.426,0.948-0.948v-1.903h1.902c0.522,0,0.948-0.424,0.948-0.95s-0.426-0.951-0.948-0.951h-1.902V21.383z"/>
		</defs>
		<clipPath id="SVGID_20_">
			<use xlink:href="#SVGID_19_"  overflow="visible"/>
		</clipPath>
		
			<linearGradient id="SVGID_21_" gradientUnits="userSpaceOnUse" x1="-530.5044" y1="211.7861" x2="-530.3853" y2="211.7861" gradientTransform="matrix(40 0 0 40 21263.1699 -8447.6611)">
			<stop  offset="0" style="stop-color:#435594"/>
			<stop  offset="1" style="stop-color:#5EA6B8"/>
		</linearGradient>
		<rect x="43" y="21.383" clip-path="url(#SVGID_20_)" fill="url(#SVGID_21_)" width="4.752" height="4.751"/>
	</g>
</g>
<g>
	<g>
		<defs>
			<path id="SVGID_22_" d="M60.11,27.086v1.901h-1.902c-0.522,0-0.948,0.424-0.948,0.946c0,0.529,0.426,0.951,0.948,0.951h1.902
				c1.05,0,1.898-0.851,1.898-1.897v-1.901c0-0.525-0.426-0.952-0.95-0.952S60.11,26.562,60.11,27.086"/>
		</defs>
		<clipPath id="SVGID_23_">
			<use xlink:href="#SVGID_22_"  overflow="visible"/>
		</clipPath>
		
			<linearGradient id="SVGID_24_" gradientUnits="userSpaceOnUse" x1="-533.1475" y1="210.9043" x2="-533.0283" y2="210.9043" gradientTransform="matrix(40 0 0 40 21383.2012 -8407.6611)">
			<stop  offset="0" style="stop-color:#435594"/>
			<stop  offset="1" style="stop-color:#5EA6B8"/>
		</linearGradient>
		<rect x="57.258" y="26.135" clip-path="url(#SVGID_23_)" fill="url(#SVGID_24_)" width="4.75" height="4.752"/>
	</g>
</g>
</svg>
