<?xml version="1.0" encoding="utf-8"?>
<!-- Generator: Adobe Illustrator 16.0.0, SVG Export Plug-In . SVG Version: 6.00 Build 0)  -->
<!DOCTYPE svg PUBLIC "-//W3C//DTD SVG 1.1//EN" "http://www.w3.org/Graphics/SVG/1.1/DTD/svg11.dtd">
<svg version="1.1" id="Camada_1" xmlns="http://www.w3.org/2000/svg" xmlns:xlink="http://www.w3.org/1999/xlink" x="0px" y="0px"
	 width="349.608px" height="360px" viewBox="0 0 349.608 360" enable-background="new 0 0 349.608 360" xml:space="preserve">
<g>
	<defs>
		<rect id="SVGID_1_" x="0.001" width="349.608" height="360"/>
	</defs>
	<clipPath id="SVGID_2_">
		<use xlink:href="#SVGID_1_"  overflow="visible"/>
	</clipPath>
	<path clip-path="url(#SVGID_2_)" fill="#365d9d" d="M97.59,345.883h210.912c11.02,0,21.029-6.785,21.029-14.533V27.696
		c0-7.748-10.01-13.578-21.029-13.578H97.59c-5.549,0-10.039-3.157-10.039-7.059C87.551,3.157,92.041,0,97.59,0h210.912
		c22.098,0,41.107,12.158,41.107,27.696V331.35c0,15.537-19.01,28.65-41.107,28.65H97.59c-5.549,0-10.039-3.157-10.039-7.059
		S92.041,345.883,97.59,345.883"/>
	<path clip-path="url(#SVGID_2_)" fill="#365d9d" d="M10.041,164.941h218.398l-75.271-83.976
		c-3.706-4.117-3.372-10.642,0.746-14.348c4.127-3.705,10.46-3.456,14.176,0.662l90.354,100.348
		c0.137,0.154,0.232,0.309,0.359,0.468c0.23,0.289,0.456,0.564,0.654,0.878c0.158,0.25,0.285,0.507,0.42,0.767
		c0.156,0.306,0.316,0.608,0.443,0.934c0.115,0.296,0.193,0.595,0.279,0.899c0.086,0.311,0.184,0.616,0.24,0.939
		c0.066,0.363,0.086,0.728,0.113,1.096c0.015,0.235,0.068,0.456,0.068,0.693c0,0.049-0.015,0.096-0.015,0.142
		c-0.005,0.412-0.067,0.821-0.123,1.228c-0.034,0.24-0.037,0.486-0.086,0.718c-0.083,0.387-0.226,0.76-0.353,1.135
		c-0.248,0.73-0.562,1.424-0.961,2.066c-0.059,0.096-0.098,0.204-0.162,0.299c-0.373,0.554-0.797,1.068-1.267,1.537l-90.328,90.325
		c-1.961,1.961-4.529,2.941-7.099,2.941c-2.568,0-5.137-0.98-7.098-2.941c-3.923-3.921-3.923-9.934,0-13.854l73.215-72.878H10.041
		c-5.549,0-10.039-4.49-10.039-10.039S4.492,164.941,10.041,164.941"/>
</g>
</svg>
