<svg version="1.1" id="Camada_1" xmlns="http://www.w3.org/2000/svg" xmlns:xlink="http://www.w3.org/1999/xlink" x="0px" y="0px"
	 width="56px" height="57px" viewBox="0 0 56 57" enable-background="new 0 0 56 57" xml:space="preserve">
<polygon fill="#FFFFFF" points="34,34 28,36 22,34 22,30 28,31 34,30 "/>
<g>
	<defs>
		<rect id="SVGID_1_" width="56" height="57"/>
	</defs>
	<clipPath id="SVGID_2_">
		<use xlink:href="#SVGID_1_"  overflow="visible"/>
	</clipPath>
	<path clip-path="url(#SVGID_2_)" fill="#63B4E4" d="M38,39c7,4,17,3,17,13v4H1v-4c0-10,10-9,17-13H38z"/>
	<polygon clip-path="url(#SVGID_2_)" fill="#FFFFFF" points="32,44 28,40 24,44 18,39 20,34 28,36 36,34 38,39 	"/>
	<path clip-path="url(#SVGID_2_)" fill="#F5C24E" d="M17,14c0-6.075,4.925-9,11-9s11,2.925,11,9l-5,2l-6-2l-6-2L17,14z"/>
	<path clip-path="url(#SVGID_2_)" fill="#FFFFFF" d="M39,14v6c-1,7-5,10-5,10c-2,1-6,1-6,1s-4,0-6-1c0,0-4-3-5-10v-6l5-2l6,2l6,2
		L39,14z"/>
	<path clip-path="url(#SVGID_2_)" fill="#63B4E4" d="M17,24c-2.762,0-5-2.239-5-5s2.238-5,5-5V24z"/>
	<path clip-path="url(#SVGID_2_)" fill="#63B4E4" d="M39,14c2.762,0,5,2.239,5,5s-2.238,5-5,5V14z"/>
	<path clip-path="url(#SVGID_2_)" fill="#394865" d="M56,57H0v-5c0-7.773,5.61-9.567,11.036-11.302
		c2.207-0.706,4.49-1.437,6.468-2.566l0.992,1.736c-2.161,1.234-4.545,1.997-6.85,2.734C6.256,44.326,2,45.687,2,52v3h52v-3
		c0-6.313-4.256-7.674-9.646-9.397c-2.305-0.737-4.688-1.5-6.85-2.734l0.992-1.736c1.978,1.13,4.261,1.86,6.468,2.566
		C50.39,42.433,56,44.227,56,52V57z"/>
	<path clip-path="url(#SVGID_2_)" fill="#394865" d="M31.938,45.353L28,41.414l-3.938,3.938l-7.26-6.05l2.594-6.484L28,34.969
		l8.604-2.15l2.595,6.484L31.938,45.353z M28,38.586l4.062,4.061l4.74-3.949l-1.405-3.516L28,37.031l-7.396-1.85l-1.406,3.516
		l4.74,3.949L28,38.586z"/>
	<rect x="33" y="30" clip-path="url(#SVGID_2_)" fill="#394865" width="2" height="4"/>
	<rect x="21" y="30" clip-path="url(#SVGID_2_)" fill="#394865" width="2" height="4"/>
	<path clip-path="url(#SVGID_2_)" fill="#394865" d="M28,32c-0.173,0-4.261-0.013-6.447-1.105L21.4,30.8
		c-0.177-0.133-4.343-3.333-5.39-10.658L16,20v-6h2v5.928c0.869,5.934,4.042,8.805,4.538,9.221C24.033,29.844,26.973,30,28,30
		c1.027,0,3.968-0.156,5.462-0.851c0.487-0.408,3.668-3.279,4.538-9.221V14h2l-0.01,6.142C38.943,27.467,34.777,30.667,34.6,30.8
		l-0.152,0.095C32.261,31.987,28.173,32,28,32"/>
	<path clip-path="url(#SVGID_2_)" fill="#394865" d="M40,14h-2c0-5.898-5.166-8-10-8s-10,2.102-10,8h-2c0-6.075,4.71-10,12-10
		S40,7.925,40,14"/>
	<path clip-path="url(#SVGID_2_)" fill="#394865" d="M39,25v-2c2.206,0,4-1.794,4-4s-1.794-4-4-4v-2c3.309,0,6,2.691,6,6
		S42.309,25,39,25"/>
	<path clip-path="url(#SVGID_2_)" fill="#394865" d="M44,16h-2C42,5.678,34.768,2,28,2c-6.768,0-14,3.678-14,14h-2
		c0-9.72,6.28-16,16-16C37.72,0,44,6.28,44,16"/>
	<path clip-path="url(#SVGID_2_)" fill="#394865" d="M28,27v-2c8.225,0,10.299-1.715,10.319-1.732l1.388,1.439
		C39.473,24.942,37.15,27,28,27"/>
	<rect x="27" y="51" clip-path="url(#SVGID_2_)" fill="#394865" width="2" height="2"/>
	<rect x="27" y="47" clip-path="url(#SVGID_2_)" fill="#394865" width="2" height="2"/>
	<path clip-path="url(#SVGID_2_)" fill="#394865" d="M18,25h-1c-3.309,0-6-2.691-6-6s2.691-6,6-6v2c-2.206,0-4,1.794-4,4
		s1.794,4,4,4h1V25z"/>
	<polygon clip-path="url(#SVGID_2_)" fill="#394865" points="34.031,17.064 22.031,13.064 17.371,14.929 16.628,13.071 
		21.968,10.936 33.97,14.936 38.628,13.071 39.371,14.929 	"/>
</g>
</svg>
