<?xml version="1.0" encoding="utf-8"?>
<!-- Generator: Adobe Illustrator 16.0.0, SVG Export Plug-In . SVG Version: 6.00 Build 0)  -->
<!DOCTYPE svg PUBLIC "-//W3C//DTD SVG 1.1//EN" "http://www.w3.org/Graphics/SVG/1.1/DTD/svg11.dtd">
<svg version="1.1" id="Camada_1" xmlns="http://www.w3.org/2000/svg" xmlns:xlink="http://www.w3.org/1999/xlink" x="0px" y="0px"
	 width="102.5px" height="97.888px" viewBox="0 0 102.5 97.888" enable-background="new 0 0 102.5 97.888" xml:space="preserve">
<rect x="2" y="2" fill="#FFFFFF" width="98.5" height="11.5"/>
<path fill="#394865" d="M4,4h94.5v7.5H4V4z M0,15.5h102.5V0H0V15.5z"/>
<path fill="#FFFFFF" d="M6.5,7.667h3.739H6.5z"/>
<rect x="6.5" y="5.667" fill="#394865" width="3.738" height="4"/>
<path fill="#FFFFFF" d="M12.971,7.667h3.74H12.971z"/>
<rect x="12.971" y="5.667" fill="#394865" width="3.74" height="4"/>
<path fill="#FFFFFF" d="M19.443,7.667h3.74H19.443z"/>
<rect x="19.444" y="5.667" fill="#394865" width="3.74" height="4"/>
<polygon fill="#394865" points="0,11.5 0,69 18.371,69 18.371,65.001 4,65.001 4,15.501 98.5,15.501 98.5,65.001 84.127,65.001 
	84.127,69 102.5,69 102.5,11.5 "/>
<rect x="8" y="19.5" fill="#5EB4E7" width="86.5" height="41.5"/>
<g>
	<defs>
		<rect id="SVGID_1_" y="0" width="102.5" height="97.888"/>
	</defs>
	<clipPath id="SVGID_2_">
		<use xlink:href="#SVGID_1_"  overflow="visible"/>
	</clipPath>
	<path clip-path="url(#SVGID_2_)" fill="#F8C44F" d="M66.934,43.556c-6.605-1.229-12.201-4.024-15.684-7.437
		c-3.484,3.413-9.081,6.208-15.686,7.436c-4.149,0.772-8.137,0.81-11.649,0.263v22.514c0,17.283,11.541,24.861,27.334,29.472
		c15.791-4.61,27.332-12.188,27.332-29.472V43.818C75.072,44.365,71.082,44.327,66.934,43.556"/>
	<path clip-path="url(#SVGID_2_)" fill="#394865" d="M51.25,97.888l-0.561-0.164c-13.396-3.912-28.773-11.015-28.773-31.391v-24.85
		l2.308,0.359c3.417,0.533,7.219,0.446,10.975-0.253c5.968-1.109,11.308-3.625,14.652-6.898l1.399-1.371l1.399,1.371
		c3.342,3.274,8.682,5.789,14.649,6.898c3.756,0.699,7.563,0.785,10.976,0.253l2.308-0.359v24.85
		c0,20.376-15.376,27.479-28.771,31.391L51.25,97.888z M25.916,46.068v20.265c0,13.866,7.585,22.08,25.334,27.385
		c17.747-5.305,25.332-13.519,25.332-27.385V46.068c-3.222,0.269-6.635,0.083-10.014-0.546C60.598,44.413,55.128,42,51.25,38.804
		C47.37,42,41.9,44.412,35.93,45.522C32.553,46.15,29.142,46.335,25.916,46.068"/>
	<path clip-path="url(#SVGID_2_)" fill="#FFFFFF" d="M62.25,65.334c0,6.074-4.926,11-11,11c-6.076,0-11.002-4.926-11.002-11
		c0-6.075,4.926-11.001,11.002-11.001C57.324,54.333,62.25,59.259,62.25,65.334"/>
	<polyline clip-path="url(#SVGID_2_)" fill="#FFFFFF" points="55.92,61.201 50.285,68.264 46.578,65.873 	"/>
	<polygon clip-path="url(#SVGID_2_)" fill="#394865" points="50.721,70.926 45.494,67.555 47.662,64.193 49.85,65.604 
		54.356,59.954 57.483,62.449 	"/>
</g>
</svg>
