<?xml version="1.0" encoding="utf-8"?>
<!-- Generator: Adobe Illustrator 16.0.0, SVG Export Plug-In . SVG Version: 6.00 Build 0)  -->
<!DOCTYPE svg PUBLIC "-//W3C//DTD SVG 1.1//EN" "http://www.w3.org/Graphics/SVG/1.1/DTD/svg11.dtd">
<svg version="1.1" id="Camada_1" xmlns="http://www.w3.org/2000/svg" xmlns:xlink="http://www.w3.org/1999/xlink" x="0px" y="0px"
	 width="511.018px" height="512px" viewBox="0 0 511.018 512" enable-background="new 0 0 511.018 512" xml:space="preserve">
<g>
	<defs>
		<rect id="SVGID_1_" width="511.018" height="512"/>
	</defs>
	<clipPath id="SVGID_2_">
		<use xlink:href="#SVGID_1_"  overflow="visible"/>
	</clipPath>
	<path clip-path="url(#SVGID_2_)" fill="#00ADBB" d="M278.509,512c-60.305,0-131.897-34.067-188.566-91.082
		c-63.81-64.198-98.415-147.119-88.16-211.25c5.5-34.401,23.345-60.197,51.606-74.598c16.302-8.309,36.083-5.015,49.22,8.204
		l45.046,45.274c8.995,9.05,13.472,21.485,12.286,34.123c-1.171,12.481-7.753,23.695-18.059,30.766
		c-0.313,0.214-0.633,0.416-0.96,0.607l-12.514,7.279c4.497,16.951,16.422,52.052,42.899,78.689
		c26.649,26.812,61.587,38.881,78.473,43.437l7.404-12.486c0.188-0.315,0.385-0.623,0.594-0.925
		c7.134-10.264,18.388-16.778,30.876-17.873c12.64-1.113,25.053,3.441,34.043,12.487l45.045,45.274
		c13.143,13.222,16.319,33.021,7.912,49.274c-14.572,28.171-40.482,45.86-74.928,51.153C293.534,511.459,286.11,512,278.509,512
		 M72.204,161.049c-1.723,0-3.428,0.381-4.978,1.171c-19.502,9.94-31.397,27.522-35.352,52.259
		c-8.633,53.993,23.389,128.321,79.683,184.957c56.296,56.64,130.462,89.112,184.539,80.799
		c24.773-3.809,42.434-15.596,52.49-35.034c2.266-4.384,1.259-10.053-2.453-13.786l-45.045-45.274
		c-2.604-2.618-6.16-3.938-9.773-3.619c-1.965,0.172-5.594,0.998-8.255,4.549l-12.75,21.504c-3.22,5.429-9.45,8.311-15.672,7.247
		c-2.505-0.427-61.859-10.979-104.944-54.326c-43.086-43.349-53.249-102.741-53.661-105.246c-1.024-6.24,1.911-12.462,7.376-15.639
		l21.605-12.566c3.558-2.639,4.403-6.257,4.588-8.22c0.338-3.607-0.957-7.175-3.554-9.789L81,164.761
		C78.594,162.339,75.37,161.049,72.204,161.049"/>
	<path clip-path="url(#SVGID_2_)" fill="#00ADBB" d="M232.935,305.417c-7.117,0-14.038-2.795-19.287-8.046
		c-7.459-7.459-9.964-18.29-6.536-28.266l19.185-55.834c-9.316-19.759-14.232-41.588-14.265-63.543
		c-0.061-39.413,15.185-76.676,42.931-104.924c27.751-28.255,64.736-44.16,104.14-44.784c40.853-0.656,79.258,14.895,108.129,43.765
		c28.871,28.871,44.413,67.272,43.768,108.127c-0.625,39.405-16.529,76.391-44.783,104.142
		c-28.192,27.691-65.366,42.931-104.689,42.932h-0.236c-21.955-0.033-43.783-4.949-63.542-14.266l-55.834,19.186
		C238.959,304.922,235.929,305.417,232.935,305.417 M361.541,30.475c-0.652,0-1.301,0.005-1.954,0.015
		c-64.659,1.026-117.182,54.495-117.082,119.193c0.03,19.284,4.783,38.432,13.746,55.374c1.97,3.723,2.31,8.094,0.941,12.077
		l-19.208,55.899l55.901-19.208c3.982-1.368,8.354-1.028,12.076,0.942c16.942,8.963,36.092,13.716,55.376,13.745h0.184
		c64.621,0,117.986-52.482,119.01-117.083c0.515-32.535-11.859-63.111-34.846-86.096C423.16,42.811,393.344,30.475,361.541,30.475"
		/>
	<path clip-path="url(#SVGID_2_)" fill="#00ADBB" d="M417.759,119.208h-115.5c-7.594,0-13.75-6.156-13.75-13.75
		s6.156-13.75,13.75-13.75h115.5c7.594,0,13.75,6.156,13.75,13.75S425.353,119.208,417.759,119.208"/>
	<path clip-path="url(#SVGID_2_)" fill="#00ADBB" d="M417.759,161.375h-115.5c-7.594,0-13.75-6.156-13.75-13.75
		c0-7.594,6.156-13.75,13.75-13.75h115.5c7.594,0,13.75,6.156,13.75,13.75C431.509,155.219,425.353,161.375,417.759,161.375"/>
	<path clip-path="url(#SVGID_2_)" fill="#00ADBB" d="M417.759,203.542h-115.5c-7.594,0-13.75-6.156-13.75-13.75
		c0-7.594,6.156-13.75,13.75-13.75h115.5c7.594,0,13.75,6.156,13.75,13.75C431.509,197.386,425.353,203.542,417.759,203.542"/>
</g>
</svg>
