<?xml version="1.0" encoding="utf-8"?>
<!-- Generator: Adobe Illustrator 16.0.0, SVG Export Plug-In . SVG Version: 6.00 Build 0)  -->
<!DOCTYPE svg PUBLIC "-//W3C//DTD SVG 1.1//EN" "http://www.w3.org/Graphics/SVG/1.1/DTD/svg11.dtd">
<svg version="1.1" id="Camada_1" xmlns="http://www.w3.org/2000/svg" xmlns:xlink="http://www.w3.org/1999/xlink" x="0px" y="0px"
	 width="72px" height="72px" viewBox="0 0 72 72" enable-background="new 0 0 72 72" xml:space="preserve">
<g>
	<path fill="#FFFFFF" d="M72,35.074c0,19.367-15.824,35.07-35.344,35.07c-6.199,0-12.023-1.582-17.086-4.363L0,72l6.379-18.816
		C3.16,47.898,1.309,41.7,1.309,35.075C1.309,15.703,17.133,0,36.656,0C56.176,0,72,15.703,72,35.074L72,35.074z M36.656,5.586
		c-16.39,0-29.718,13.226-29.718,29.488c0,6.449,2.101,12.426,5.66,17.289L8.887,63.313l11.418-3.629
		c4.691,3.078,10.312,4.875,16.351,4.875c16.383,0,29.715-13.227,29.715-29.483C66.371,18.812,53.039,5.586,36.656,5.586
		L36.656,5.586z M54.504,43.152c-0.219-0.359-0.797-0.574-1.66-1.004c-0.867-0.431-5.129-2.513-5.922-2.797
		c-0.793-0.285-1.375-0.431-1.949,0.43c-0.578,0.859-2.238,2.797-2.746,3.371c-0.504,0.574-1.008,0.645-1.875,0.215
		s-3.66-1.34-6.969-4.266c-2.574-2.281-4.313-5.095-4.821-5.955c-0.503-0.859-0.05-1.324,0.379-1.753
		c0.391-0.387,0.868-1.004,1.301-1.504c0.434-0.504,0.578-0.864,0.867-1.438c0.289-0.574,0.145-1.074-0.074-1.504
		c-0.215-0.429-1.949-4.66-2.672-6.383c-0.718-1.718-1.441-1.433-1.949-1.433c-0.504,0-1.082-0.071-1.66-0.071
		s-1.516,0.215-2.309,1.075c-0.793,0.859-3.031,2.941-3.031,7.168c0,4.23,3.102,8.32,3.535,8.89
		c0.434,0.574,5.992,9.539,14.801,12.98c8.809,3.441,8.809,2.293,10.398,2.148c1.586-0.141,5.125-2.078,5.848-4.086
		S54.719,43.508,54.504,43.152L54.504,43.152z"/>
</g>
</svg>
